<svg version="1.1" id="Layer_1" xmlns="http://www.w3.org/2000/svg" xmlns:xlink="http://www.w3.org/1999/xlink" x="0px" y="0px"
	 width="100%" viewBox="0 0 500 500" enable-background="new 0 0 500 500" xml:space="preserve">
<path fill="#47704C" opacity="1.000000" stroke="none" 
	d="
M1.000000,241.000000 
	C1.000000,160.686600 1.000000,80.873199 1.000000,1.029900 
	C167.605118,1.029900 334.210236,1.029900 500.907684,1.029900 
	C500.907684,167.563461 500.907684,334.126984 500.907684,500.845276 
	C334.333435,500.845276 167.666733,500.845276 1.000000,500.845276 
	C1.000000,414.456299 1.000000,327.978149 1.000000,241.000000 
M176.829834,470.959625 
	C178.422180,471.618652 180.014526,472.277710 181.671585,472.963562 
	C182.661057,467.741516 183.558670,463.004303 184.456284,458.267059 
	C186.080338,459.394775 186.780197,460.697693 186.922913,462.059052 
	C187.145584,464.183105 186.862091,466.356689 187.027283,468.491150 
	C187.243240,471.281677 190.263931,472.510834 194.024796,471.021484 
	C209.792892,471.254547 225.560516,471.544556 241.329468,471.673889 
	C244.583389,471.700562 247.842224,471.128235 251.899704,470.932312 
	C253.511627,470.925995 255.123550,470.919678 257.259247,471.576752 
	C261.767731,471.914764 266.283112,472.611053 270.783386,472.523895 
	C284.527954,472.257782 298.266754,471.690216 312.467957,471.691406 
	C314.883698,471.417206 317.299438,471.143036 319.505249,470.892670 
	C320.014923,468.644531 320.390991,466.985840 320.767029,465.327118 
	C321.201996,465.319611 321.636963,465.312103 322.071960,465.304626 
	C322.363190,466.452118 323.012787,467.642944 322.880280,468.739227 
	C322.436310,472.411835 324.383636,471.510376 327.364075,470.865784 
	C332.300415,471.238556 337.237427,471.920654 342.172913,471.909607 
	C349.087799,471.894165 356.001587,471.362671 363.294250,471.623810 
	C365.285126,471.806732 367.276001,471.989624 369.606476,472.203766 
	C369.050995,468.903137 368.847656,466.752380 368.316742,464.685791 
	C362.879303,443.518677 357.687164,422.281525 351.788574,401.242798 
	C348.782196,390.519806 344.537292,380.139038 340.684845,369.665161 
	C340.250092,368.483154 338.857239,367.486969 337.685791,366.767578 
	C320.997131,356.519135 303.234619,348.784027 284.227783,343.925079 
	C282.708588,343.536682 280.337097,342.162048 280.322479,341.215454 
	C280.300262,339.776733 281.662872,337.735046 283.016815,336.953583 
	C290.356628,332.717194 296.031891,326.491333 299.523590,319.281708 
	C303.948730,310.144623 307.197540,300.285004 307.142395,289.715912 
	C307.129547,287.255676 308.516113,284.738434 309.474976,282.333618 
	C311.238953,277.909637 314.277039,273.680573 314.811035,269.138306 
	C316.377716,255.811737 313.447723,242.775177 311.327057,229.618622 
	C308.790894,213.883987 300.098907,205.657684 285.164215,201.657288 
	C276.275879,199.276443 266.884613,198.416641 258.771820,192.663071 
	C251.992630,187.855240 244.359207,188.598480 236.541702,192.923218 
	C223.197830,200.305267 211.613068,209.867310 199.962799,219.463135 
	C196.568878,222.258575 194.696991,225.402725 194.825958,230.014893 
	C194.906250,232.886292 193.605331,235.772339 193.157990,238.687668 
	C192.344864,243.986664 191.363846,249.295670 191.102631,254.632294 
	C190.894424,258.886108 191.154526,263.300873 192.098511,267.440826 
	C193.525665,273.699768 191.266174,281.260773 198.110519,285.826233 
	C198.622314,286.167633 198.369095,287.604126 198.538223,288.519165 
	C199.897491,295.872986 199.635712,304.114899 203.035950,310.361755 
	C207.850845,319.207611 212.146988,328.992004 221.670532,334.786835 
	C223.558624,335.935699 223.349045,340.886322 223.542404,344.117584 
	C223.574677,344.656982 220.737381,345.464966 219.172318,345.987976 
	C204.183609,350.997498 188.994781,355.492340 174.305542,361.260803 
	C170.103012,362.911133 165.905289,367.646637 164.175552,371.958466 
	C158.443237,386.247711 153.268707,400.822815 148.953033,415.601562 
	C144.243759,431.728271 140.736542,448.205719 136.692856,464.527222 
	C135.074112,471.060944 135.733185,471.859161 142.954758,470.972626 
	C154.017792,470.924377 165.080811,470.876160 176.829834,470.959625 
M386.482239,172.985580 
	C393.273987,180.226074 401.768768,184.805679 411.000122,187.908081 
	C419.320953,190.704498 427.878906,190.635178 436.570496,189.060211 
	C455.157684,185.692139 468.791870,175.117157 477.180969,158.931595 
	C482.489899,148.688828 484.358215,137.040726 482.181763,124.933296 
	C479.831177,111.857399 474.198578,100.605827 464.404266,92.196037 
	C445.161102,75.673065 420.161407,72.589676 397.513428,86.307457 
	C378.328491,97.927704 370.172150,115.927643 371.023163,137.919357 
	C371.535767,151.164688 377.078308,162.649200 386.482239,172.985580 
M405.505615,451.026855 
	C415.445526,454.356964 425.389221,455.972137 436.031006,454.129456 
	C467.354492,448.705597 488.247620,418.765320 480.837738,386.048737 
	C475.103607,360.730865 452.653168,342.758392 425.854980,343.058838 
	C409.778442,343.239075 396.147736,349.285126 385.169739,361.277649 
	C372.468750,375.152405 368.141113,391.660187 371.529999,409.617249 
	C375.164948,428.878021 386.649048,442.804871 405.505615,451.026855 
M201.468964,117.975204 
	C204.405609,120.910980 207.166931,124.050728 210.307068,126.749763 
	C232.282486,145.638260 264.387360,144.307281 284.908875,124.384377 
	C302.300415,107.500130 306.449890,86.728630 298.399933,64.024483 
	C290.628632,42.106220 271.125885,29.221273 249.176102,28.132902 
	C230.933701,27.228361 215.472549,33.763775 203.411377,47.991982 
	C194.718231,58.247066 190.448822,70.079842 190.085068,83.254700 
	C189.738922,95.791550 193.824402,107.164375 201.468964,117.975204 
M35.892414,185.632584 
	C37.763329,187.424393 39.596241,189.257935 41.511173,191.001404 
	C56.673382,204.805908 74.678650,208.367233 93.877579,203.372467 
	C121.352325,196.224686 139.152832,169.065903 134.100998,140.012405 
	C128.939865,110.330368 102.275154,89.725479 70.373848,94.244659 
	C45.955429,97.703804 27.384819,116.151756 23.606939,141.164780 
	C21.158913,157.372955 25.106106,172.149155 35.892414,185.632584 
M125.119865,372.434113 
	C111.824265,347.098206 85.887131,336.277588 59.244461,344.076599 
	C36.739845,350.664246 23.434462,366.287262 19.881449,389.848328 
	C17.252254,407.283325 21.984678,422.433167 33.836132,435.251648 
	C44.934376,447.255463 58.519688,453.179779 75.272560,453.273743 
	C86.617401,453.337311 96.773056,450.490753 105.644501,444.469971 
	C129.449661,428.314087 137.782959,399.932983 125.119865,372.434113 
M348.604218,202.188126 
	C348.631744,201.355026 348.338135,200.019196 348.735626,199.765289 
	C353.630402,196.638626 358.667694,193.736008 363.582642,190.639755 
	C367.503815,188.169540 371.527222,185.774490 375.055908,182.811035 
	C376.472351,181.621506 377.683258,178.662964 377.162292,177.129868 
	C376.665344,175.667282 373.829956,174.296783 371.955627,174.201447 
	C370.064850,174.105286 367.947876,175.392426 366.179443,176.479401 
	C358.214630,181.374939 350.338470,186.414658 342.192871,191.552170 
	C340.891357,189.517838 340.151398,187.788925 338.885651,186.638489 
	C338.304260,186.110107 335.944275,186.325150 335.659393,186.868362 
	C332.116058,193.624512 328.806335,200.503189 325.206238,207.818314 
	C333.960632,207.818314 342.418335,207.818314 351.754028,207.818314 
	C350.359894,205.338364 349.649872,204.075333 348.604218,202.188126 
M132.773895,195.421661 
	C140.621445,200.238052 148.468994,205.054443 156.212524,209.807007 
	C155.376175,212.102829 154.781799,213.734421 153.880188,216.209442 
	C162.174057,216.209442 169.840866,216.209442 178.234360,216.209442 
	C174.232224,209.322083 170.320175,202.589767 166.008865,195.170334 
	C164.347458,197.682098 163.296799,199.270508 162.102325,201.076324 
	C155.702438,197.073120 149.529221,193.085159 143.219131,189.327026 
	C140.702911,187.828430 137.965652,186.198334 135.174332,185.843002 
	C133.348114,185.610504 130.203247,187.092834 129.508911,188.641159 
	C128.471054,190.955521 128.024368,194.440155 132.773895,195.421661 
M132.939911,325.495789 
	C129.183731,328.940826 125.213112,332.190735 121.797119,335.945282 
	C120.719276,337.129944 120.421265,339.967712 121.072884,341.489441 
	C121.612724,342.750092 124.484993,344.232147 125.605347,343.791077 
	C128.733200,342.559540 131.736496,340.678741 134.336716,338.511597 
	C139.265686,334.403595 143.879105,329.916931 148.567307,325.638977 
	C150.163651,327.705109 151.232651,329.088715 152.823776,331.148102 
	C155.460541,323.017822 157.646973,316.276154 160.131058,308.616669 
	C152.478577,310.245392 145.758118,311.675781 138.358383,313.250702 
	C139.951859,315.291840 140.826660,316.412415 141.962555,317.867432 
	C139.014038,320.346436 136.242813,322.676361 132.939911,325.495789 
M369.571533,337.051025 
	C372.623383,338.777924 375.576660,339.143616 377.606506,335.689117 
	C379.590576,332.312561 377.358032,330.237732 374.882812,328.313446 
	C368.665894,323.480347 362.488251,318.596771 356.522888,313.912476 
	C357.436554,312.665985 358.147552,311.695984 359.381409,310.012695 
	C352.337891,308.868469 346.082153,307.852234 338.755920,306.662079 
	C341.604889,313.650970 344.096313,319.762756 346.741211,326.251038 
	C347.998413,324.414368 348.851196,323.168549 349.894989,321.643707 
	C353.305725,324.571594 356.213959,327.260345 359.326935,329.686493 
	C362.449615,332.120270 365.776428,334.292145 369.571533,337.051025 
M259.187561,153.996841 
	C257.827209,153.839569 256.466827,153.682281 255.163361,153.531586 
	C255.507629,145.296173 254.504684,143.216278 250.399536,143.003784 
	C245.660187,142.758469 244.677597,144.537949 244.599823,153.717957 
	C243.662994,153.810074 242.702896,153.900864 241.743576,153.999420 
	C236.668106,154.520752 236.281509,155.439621 238.959198,159.943924 
	C240.343124,162.271957 241.301331,164.864258 242.780609,167.121735 
	C245.019196,170.537933 247.544693,173.766129 250.346924,177.622833 
	C254.300293,170.879425 257.990784,164.920959 261.238495,158.730209 
	C261.814178,157.632874 264.881866,154.294083 259.187561,153.996841 
z"/>
<path fill="#F04922" opacity="1.000000" stroke="none" 
	d="
M251.098785,470.831970 
	C247.842224,471.128235 244.583389,471.700562 241.329468,471.673889 
	C225.560516,471.544556 209.792892,471.254547 193.433472,470.587067 
	C192.798752,464.187897 192.960587,458.212372 192.649445,452.261627 
	C192.382233,447.151337 191.758347,442.036926 190.872192,436.998199 
	C190.659729,435.790039 188.900070,434.278656 187.628220,434.023926 
	C186.700317,433.838074 185.035919,435.260651 184.360336,436.368835 
	C183.347092,438.030945 182.717194,439.999939 182.265549,441.918762 
	C180.065704,451.264465 177.979355,460.636871 175.393951,469.999268 
	C163.982635,469.999268 153.030212,469.999847 141.966400,469.601196 
	C148.558182,437.612274 156.960434,406.522552 168.541458,376.320862 
	C170.417053,371.429565 173.067856,367.675476 177.879517,366.044006 
	C192.176041,361.196594 206.575684,356.653778 220.926941,351.967133 
	C223.972992,350.972412 225.746048,352.302277 227.528000,354.729279 
	C234.423965,364.121552 241.649445,373.273804 248.451508,382.731659 
	C249.960342,384.829590 250.962814,387.804047 250.980377,390.383179 
	C251.162933,417.198486 251.096268,444.015442 251.098785,470.831970 
z"/>
<path fill="#F04922" opacity="1.000000" stroke="none" 
	d="
M362.915833,471.051941 
	C356.001587,471.362671 349.087799,471.894165 342.172913,471.909607 
	C337.237427,471.920654 332.300415,471.238556 327.202454,470.578064 
	C327.615051,469.032959 328.755524,467.725464 328.649597,466.528290 
	C328.403778,463.750732 327.625702,461.008881 326.938385,458.284058 
	C325.199280,451.389465 323.559052,444.460968 321.482635,437.667267 
	C321.014771,436.136536 318.929535,435.100159 317.588806,433.836212 
	C316.436279,435.423584 314.999969,436.885773 314.226044,438.640167 
	C313.663422,439.915558 313.914337,441.576935 313.909271,443.066589 
	C313.882233,451.021057 313.981445,458.977753 313.799377,466.928223 
	C313.766144,468.378387 312.633118,469.803345 312.007812,471.239929 
	C298.266754,471.690216 284.527954,472.257782 270.783386,472.523895 
	C266.283112,472.611053 261.767731,471.914764 257.012939,470.781860 
	C256.752106,443.165924 256.686981,416.344604 256.811951,389.524200 
	C256.822815,387.189850 257.650085,384.606873 258.839691,382.573090 
	C264.804596,372.375336 271.116974,362.380768 277.073730,352.178436 
	C278.646332,349.484985 280.159119,349.090332 283.072388,349.864014 
	C300.070404,354.378326 316.158173,361.041443 331.198883,370.108429 
	C333.532471,371.515167 335.934296,374.072266 336.717285,376.590881 
	C344.017609,400.072845 351.137787,423.614716 357.929779,447.248535 
	C360.162842,455.018890 361.285431,463.108398 362.915833,471.051941 
z"/>
<path fill="#ED2125" opacity="1.000000" stroke="none" 
	d="
M386.231079,172.730011 
	C377.078308,162.649200 371.535767,151.164688 371.023163,137.919357 
	C370.172150,115.927643 378.328491,97.927704 397.513428,86.307457 
	C420.161407,72.589676 445.161102,75.673065 464.404266,92.196037 
	C474.198578,100.605827 479.831177,111.857399 482.181763,124.933296 
	C484.358215,137.040726 482.489899,148.688828 477.180969,158.931595 
	C468.791870,175.117157 455.157684,185.692139 436.570496,189.060211 
	C427.878906,190.635178 419.320953,190.704498 411.000122,187.908081 
	C401.768768,184.805679 393.273987,180.226074 386.231079,172.730011 
M414.254456,152.315094 
	C409.377991,151.298538 405.296692,148.968643 404.160858,143.872162 
	C402.930420,138.350922 404.238678,133.390549 409.133240,129.713669 
	C410.955627,128.344681 412.444672,126.431190 413.801270,124.559769 
	C420.919525,114.740219 427.971619,104.872200 434.965027,94.963387 
	C435.633667,94.015999 435.738708,92.670837 436.105408,91.510338 
	C435.662354,91.276222 435.219299,91.042114 434.776276,90.808006 
	C433.625641,92.092461 432.387146,93.309265 431.338196,94.671967 
	C422.140869,106.620354 412.969208,118.588554 403.819794,130.573669 
	C403.122070,131.487625 402.548401,132.530914 402.092804,133.589691 
	C397.709991,143.774994 402.263275,152.100403 414.193207,155.777573 
	C426.458435,159.558075 426.416901,159.544968 422.583130,171.674179 
	C422.091156,173.230652 422.297455,175.007843 422.180298,176.682800 
	C422.753632,176.764084 423.326996,176.845383 423.900330,176.926682 
	C425.264008,173.129074 426.739563,169.367188 427.966217,165.525818 
	C430.020172,159.093765 427.203735,155.030182 420.397736,153.973358 
	C418.502350,153.679062 416.721710,152.645950 415.789734,151.879898 
	C420.938477,149.724915 425.841949,150.685471 430.756348,152.831345 
	C432.227264,153.473648 434.002930,153.673477 435.631989,153.646896 
	C439.449188,153.584579 442.395874,151.934784 443.593933,148.097763 
	C444.906433,143.894226 443.955597,140.157745 440.515564,137.351822 
	C437.529633,134.916290 434.252106,133.094772 430.133759,134.942856 
	C432.258301,136.558960 434.720703,137.313980 436.903412,138.559250 
	C440.248718,140.467834 442.078857,143.408493 440.560455,147.309723 
	C439.061096,151.162201 435.700287,150.903900 432.544342,150.008759 
	C429.693420,149.200119 426.975403,147.924011 424.196838,146.859116 
	C418.257233,144.582764 415.963135,145.878662 414.254456,152.315094 
z"/>
<path fill="#ED2226" opacity="1.000000" stroke="none" 
	d="
M405.104980,451.006104 
	C386.649048,442.804871 375.164948,428.878021 371.529999,409.617249 
	C368.141113,391.660187 372.468750,375.152405 385.169739,361.277649 
	C396.147736,349.285126 409.778442,343.239075 425.854980,343.058838 
	C452.653168,342.758392 475.103607,360.730865 480.837738,386.048737 
	C488.247620,418.765320 467.354492,448.705597 436.031006,454.129456 
	C425.389221,455.972137 415.445526,454.356964 405.104980,451.006104 
M407.062500,384.939270 
	C406.822418,384.952271 406.582367,384.965271 406.393005,384.120880 
	C407.622437,379.822723 408.482147,375.374084 410.157318,371.257294 
	C413.781342,362.351044 428.518799,356.831329 437.170319,364.753113 
	C439.623077,366.998993 442.079865,369.284851 444.795654,371.178192 
	C445.969147,371.996307 447.924286,372.347961 449.300323,372.007080 
	C450.344482,371.748413 451.034119,370.058624 451.166199,369.894501 
	C448.195435,368.357666 445.862671,367.331329 443.727051,365.990936 
	C441.905060,364.847382 440.356140,363.278748 438.606293,362.008545 
	C428.945709,354.995941 415.132874,357.180145 408.904816,367.373779 
	C401.562836,379.390472 401.513367,392.650665 404.289856,406.020996 
	C404.636780,407.691650 406.114227,409.148224 407.142181,410.653137 
	C411.076599,416.412994 414.723083,422.410492 419.105865,427.808777 
	C422.062286,431.450195 425.631256,435.074707 429.708221,437.222107 
	C437.292358,441.216827 446.496979,436.070221 447.471985,427.942413 
	C447.632874,426.601624 447.051239,425.171783 446.812775,423.783081 
	C446.332642,423.786377 445.852539,423.789673 445.372406,423.792999 
	C445.065643,424.942017 444.699188,426.078827 444.461975,427.242035 
	C443.074829,434.044861 436.647614,437.505737 430.472687,434.249725 
	C427.482635,432.673157 424.675720,430.248413 422.587891,427.580139 
	C419.531616,423.674164 417.172943,419.218262 414.580261,414.958221 
	C414.231232,414.384766 414.148407,413.592010 414.118256,412.893188 
	C414.043884,411.172791 414.566406,409.252289 413.975006,407.758179 
	C411.106476,400.511322 409.144745,393.183228 411.040344,385.382263 
	C411.441711,383.730469 412.613800,382.249146 413.514679,380.739349 
	C414.919891,378.384369 416.945312,376.243286 417.735992,373.708374 
	C419.757233,367.228668 424.760651,364.779205 430.803467,367.824249 
	C434.488342,369.681091 439.463867,377.241455 437.648438,379.527710 
	C436.006409,381.595581 432.228882,382.288269 429.251709,382.902863 
	C424.378601,383.908844 420.783081,386.974396 419.891327,391.988525 
	C418.822021,398.000854 420.048950,403.695190 423.565033,408.589905 
	C424.881775,410.422943 427.417542,411.472168 429.540833,412.611694 
	C432.478455,414.188263 435.453308,415.814270 438.601135,416.838531 
	C440.697113,417.520538 443.122589,417.189850 445.400604,417.312378 
	C445.261963,415.160126 445.201355,412.998047 444.931793,410.862335 
	C444.861328,410.303955 444.224548,409.714722 443.706055,409.331512 
	C439.751953,406.408997 439.092255,402.898102 440.975616,398.357361 
	C441.555664,396.958771 440.417786,394.847656 440.066528,393.062836 
	C439.464264,393.164734 438.862030,393.266632 438.259766,393.368530 
	C437.832855,397.188049 436.434448,401.232056 437.250610,404.764374 
	C438.076813,408.340271 441.093903,411.409943 442.931305,414.349335 
	C437.895447,412.509277 432.959595,410.767212 428.085602,408.866455 
	C427.238892,408.536255 426.206329,407.638184 426.020721,406.828064 
	C424.896423,401.920837 423.261139,396.966125 423.240204,392.021179 
	C423.222473,387.831696 428.606567,384.986572 432.605347,385.994019 
	C437.776031,387.296661 440.316315,385.729462 440.965637,380.836304 
	C441.839020,374.254486 435.901672,365.596832 429.430908,364.016724 
	C422.019409,362.206879 416.885284,365.414001 414.802948,372.868103 
	C414.296417,374.681366 413.015747,376.288635 412.032135,377.955872 
	C410.644684,380.307526 409.202332,382.626770 407.062500,384.939270 
z"/>
<path fill="#ED2226" opacity="1.000000" stroke="none" 
	d="
M201.217575,117.709190 
	C193.824402,107.164375 189.738922,95.791550 190.085068,83.254700 
	C190.448822,70.079842 194.718231,58.247066 203.411377,47.991982 
	C215.472549,33.763775 230.933701,27.228361 249.176102,28.132902 
	C271.125885,29.221273 290.628632,42.106220 298.399933,64.024483 
	C306.449890,86.728630 302.300415,107.500130 284.908875,124.384377 
	C264.387360,144.307281 232.282486,145.638260 210.307068,126.749763 
	C207.166931,124.050728 204.405609,120.910980 201.217575,117.709190 
M232.109741,62.843597 
	C230.186005,58.445614 228.681656,53.781319 226.138580,49.776634 
	C225.074799,48.101437 221.805923,47.826523 219.539612,46.914959 
	C218.884857,49.069126 217.213058,51.525707 217.748383,53.326004 
	C220.297180,61.897770 223.170731,70.400398 226.469955,78.712814 
	C229.051834,85.217903 229.490662,91.459259 226.664078,98.487190 
	C224.321411,97.217201 222.208603,96.012512 220.043457,94.910660 
	C215.765518,92.733612 211.407501,92.163895 207.336075,95.199379 
	C206.304001,95.968842 205.227615,97.844223 205.486633,98.883743 
	C205.807236,100.170319 207.347641,101.354385 208.627136,102.160271 
	C211.656311,104.068153 215.316925,105.217606 217.865555,107.592880 
	C222.957321,112.338295 227.618835,117.576530 232.156418,122.869789 
	C233.931976,124.941040 234.896683,127.707367 236.230682,130.157120 
	C236.968781,121.127892 229.329910,117.737511 224.958252,112.097794 
	C220.358353,106.163635 215.577576,100.652527 206.723679,98.938576 
	C215.716293,91.210007 221.778351,101.319214 228.924881,100.991730 
	C231.292404,93.036461 232.040955,85.596779 228.784515,77.869949 
	C225.505539,70.089661 222.939804,62.003822 220.213531,54.000095 
	C219.716934,52.542221 219.950745,50.835552 219.838882,49.112869 
	C224.435349,48.940323 224.893921,52.248474 226.139526,54.848328 
	C229.430420,61.717075 232.793533,68.551216 236.127899,75.399139 
	C236.621292,75.238152 237.114685,75.077171 237.608078,74.916191 
	C237.703583,74.023720 237.941528,73.120117 237.872742,72.240501 
	C237.096130,62.307770 236.200073,52.383484 235.545151,42.443161 
	C235.454361,41.065182 236.492218,39.612846 237.007599,38.194939 
	C238.195816,39.319977 240.150452,40.282715 240.429459,41.600288 
	C241.287216,45.650928 241.343475,49.863392 242.009354,53.964561 
	C242.861206,59.211147 243.774002,64.472733 245.160797,69.592369 
	C245.575409,71.123039 247.665192,72.199951 248.987488,73.484756 
	C249.737427,72.091164 250.927292,70.768509 251.165329,69.292366 
	C252.621414,60.262276 253.825073,51.191715 255.225143,42.152035 
	C255.381836,41.140419 256.244751,40.238178 256.780151,39.285217 
	C257.250031,39.201683 257.719879,39.118145 258.189728,39.034611 
	C258.810120,40.795021 260.049042,42.591877 259.947815,44.309765 
	C259.400177,53.604195 258.752747,62.907398 257.624725,72.144691 
	C257.251160,75.203514 257.279877,77.247696 260.244385,78.714928 
	C263.403809,80.278633 264.965302,78.231621 266.319092,76.113190 
	C269.793976,70.675636 273.038879,65.090591 276.542267,59.672207 
	C277.210358,58.638969 278.642548,58.099785 279.722198,57.332661 
	C280.142578,58.641678 280.732697,59.927570 280.915466,61.268955 
	C281.014526,61.996372 280.500061,62.859428 280.125397,63.591190 
	C276.878967,69.932129 273.574249,76.243370 270.352051,82.596474 
	C269.535095,84.207237 268.507446,85.891037 268.331268,87.618256 
	C267.000275,100.666725 265.841248,113.732964 264.690857,126.799149 
	C264.610382,127.713333 265.029114,128.671463 265.330872,130.188187 
	C266.196289,129.160172 266.741302,128.815872 266.785187,128.416519 
	C268.182068,115.703888 269.470612,102.979012 270.939697,90.274963 
	C271.213287,87.909058 271.867737,85.473602 272.889465,83.328957 
	C276.025513,76.746284 279.556610,70.351143 282.665558,63.756496 
	C284.143646,60.621292 284.863312,56.979019 280.722870,55.214153 
	C276.664307,53.484196 275.391907,56.836609 273.741425,59.671425 
	C270.662567,64.959503 267.351685,70.123055 263.868805,75.152489 
	C263.410309,75.814583 261.374817,75.384628 260.069733,75.460457 
	C260.175690,73.990181 260.271973,72.519135 260.389160,71.049751 
	C261.116577,61.927105 262.009308,52.813351 262.494141,43.677917 
	C262.669159,40.380161 261.465393,37.074436 257.350006,37.006145 
	C253.607712,36.944054 253.117203,40.030220 252.689789,42.958553 
	C251.357285,52.087814 249.966141,61.208515 248.597733,70.332535 
	C246.372849,63.926571 245.149597,57.341698 244.074341,50.732735 
	C243.540176,47.449505 243.490448,44.078838 242.829712,40.827351 
	C242.227890,37.865768 240.594009,35.442917 237.043701,35.826721 
	C233.309753,36.230377 232.866180,38.962013 232.984009,42.072453 
	C233.242340,48.892601 233.397095,55.716671 233.112823,62.910698 
	C232.958206,63.041771 232.803604,63.172844 232.109741,62.843597 
z"/>
<path fill="#ED2125" opacity="1.000000" stroke="none" 
	d="
M35.687954,185.333786 
	C25.106106,172.149155 21.158913,157.372955 23.606939,141.164780 
	C27.384819,116.151756 45.955429,97.703804 70.373848,94.244659 
	C102.275154,89.725479 128.939865,110.330368 134.100998,140.012405 
	C139.152832,169.065903 121.352325,196.224686 93.877579,203.372467 
	C74.678650,208.367233 56.673382,204.805908 41.511173,191.001404 
	C39.596241,189.257935 37.763329,187.424393 35.687954,185.333786 
M80.215736,166.558228 
	C90.275162,165.836456 100.144363,164.135864 108.543083,158.187897 
	C111.802177,155.879822 114.291771,153.567932 118.512337,156.004257 
	C119.411819,156.523483 121.651863,155.518906 122.739799,154.590179 
	C123.319748,154.095123 123.196960,151.995178 122.640053,151.073532 
	C118.120605,143.594009 112.877571,136.843033 104.580727,133.043076 
	C93.762383,128.088257 82.267006,125.622810 71.146667,129.770401 
	C58.491714,134.490356 46.595203,141.254349 34.432274,147.258011 
	C33.666473,147.636017 32.887737,149.288864 33.112690,150.056137 
	C33.420128,151.104797 34.527992,152.191940 35.567810,152.703888 
	C39.397240,154.589279 43.782768,155.637894 47.156441,158.100769 
	C56.856636,165.182175 67.771439,166.854080 80.215736,166.558228 
z"/>
<path fill="#080403" opacity="1.000000" stroke="none" 
	d="
M363.105042,471.337891 
	C361.285431,463.108398 360.162842,455.018890 357.929779,447.248535 
	C351.137787,423.614716 344.017609,400.072845 336.717285,376.590881 
	C335.934296,374.072266 333.532471,371.515167 331.198883,370.108429 
	C316.158173,361.041443 300.070404,354.378326 283.072388,349.864014 
	C280.159119,349.090332 278.646332,349.484985 277.073730,352.178436 
	C271.116974,362.380768 264.804596,372.375336 258.839691,382.573090 
	C257.650085,384.606873 256.822815,387.189850 256.811951,389.524200 
	C256.686981,416.344604 256.752106,443.165924 256.751038,470.450195 
	C255.123550,470.919678 253.511627,470.925995 251.499237,470.882141 
	C251.096268,444.015442 251.162933,417.198486 250.980377,390.383179 
	C250.962814,387.804047 249.960342,384.829590 248.451508,382.731659 
	C241.649445,373.273804 234.423965,364.121552 227.528000,354.729279 
	C225.746048,352.302277 223.972992,350.972412 220.926941,351.967133 
	C206.575684,356.653778 192.176041,361.196594 177.879517,366.044006 
	C173.067856,367.675476 170.417053,371.429565 168.541458,376.320862 
	C156.960434,406.522552 148.558182,437.612274 141.937271,469.816376 
	C142.019516,470.430756 142.024063,470.865112 142.024063,470.865112 
	C135.733185,471.859161 135.074112,471.060944 136.692856,464.527222 
	C140.736542,448.205719 144.243759,431.728271 148.953033,415.601562 
	C153.268707,400.822815 158.443237,386.247711 164.175552,371.958466 
	C165.905289,367.646637 170.103012,362.911133 174.305542,361.260803 
	C188.994781,355.492340 204.183609,350.997498 219.172318,345.987976 
	C220.737381,345.464966 223.574677,344.656982 223.542404,344.117584 
	C223.349045,340.886322 223.558624,335.935699 221.670532,334.786835 
	C212.146988,328.992004 207.850845,319.207611 203.035950,310.361755 
	C199.635712,304.114899 199.897491,295.872986 198.538223,288.519165 
	C198.369095,287.604126 198.622314,286.167633 198.110519,285.826233 
	C191.266174,281.260773 193.525665,273.699768 192.098511,267.440826 
	C191.154526,263.300873 190.894424,258.886108 191.102631,254.632294 
	C191.363846,249.295670 192.344864,243.986664 193.157990,238.687668 
	C193.605331,235.772339 194.906250,232.886292 194.825958,230.014893 
	C194.696991,225.402725 196.568878,222.258575 199.962799,219.463135 
	C211.613068,209.867310 223.197830,200.305267 236.541702,192.923218 
	C244.359207,188.598480 251.992630,187.855240 258.771820,192.663071 
	C266.884613,198.416641 276.275879,199.276443 285.164215,201.657288 
	C300.098907,205.657684 308.790894,213.883987 311.327057,229.618622 
	C313.447723,242.775177 316.377716,255.811737 314.811035,269.138306 
	C314.277039,273.680573 311.238953,277.909637 309.474976,282.333618 
	C308.516113,284.738434 307.129547,287.255676 307.142395,289.715912 
	C307.197540,300.285004 303.948730,310.144623 299.523590,319.281708 
	C296.031891,326.491333 290.356628,332.717194 283.016815,336.953583 
	C281.662872,337.735046 280.300262,339.776733 280.322479,341.215454 
	C280.337097,342.162048 282.708588,343.536682 284.227783,343.925079 
	C303.234619,348.784027 320.997131,356.519135 337.685791,366.767578 
	C338.857239,367.486969 340.250092,368.483154 340.684845,369.665161 
	C344.537292,380.139038 348.782196,390.519806 351.788574,401.242798 
	C357.687164,422.281525 362.879303,443.518677 368.316742,464.685791 
	C368.847656,466.752380 369.050995,468.903137 369.606476,472.203766 
	C367.276001,471.989624 365.285126,471.806732 363.105042,471.337891 
M268.033905,235.464066 
	C266.016418,233.249756 263.666901,231.250458 262.060455,228.769943 
	C259.737610,225.183258 257.133881,225.131226 253.676849,226.803253 
	C243.676208,231.640213 233.784729,236.767548 223.521561,240.979660 
	C212.274673,245.595490 207.139481,253.445953 206.151947,265.500458 
	C204.990295,279.680725 203.717468,293.641571 208.921173,307.343750 
	C216.325439,326.840240 232.794556,338.340851 253.319672,338.162201 
	C275.656036,337.967773 290.327667,327.710632 297.590912,307.708099 
	C303.047791,292.680237 301.670319,277.602875 298.618256,262.469910 
	C298.342987,261.105133 296.746796,259.879608 295.541595,258.849792 
	C286.570129,251.184250 277.542450,243.584488 268.033905,235.464066 
M230.688980,231.200867 
	C238.756195,227.681610 246.791519,224.086380 254.906311,220.680435 
	C258.156860,219.316116 261.018494,219.527832 263.907349,222.427307 
	C272.927612,231.480759 281.419281,241.433243 291.765259,248.683548 
	C301.197113,255.293243 305.757202,262.966980 306.169495,273.895111 
	C306.175720,274.059418 306.555115,274.209656 307.437714,274.883911 
	C308.050293,272.557098 308.954224,270.595825 309.029633,268.603149 
	C309.605743,253.372208 307.694977,238.442703 303.551331,223.756546 
	C301.670135,217.089172 297.561829,212.516754 291.249634,210.374893 
	C283.726898,207.822281 275.919220,206.121658 268.312531,203.798096 
	C265.263184,202.866623 262.175171,201.630569 259.532257,199.885605 
	C253.145645,195.668839 246.711334,193.286591 239.719803,198.137665 
	C229.079330,205.520554 218.573090,213.096710 207.992996,220.566925 
	C202.434082,224.491882 199.342346,229.567139 200.070618,236.618301 
	C200.183670,237.712845 199.775406,238.924683 199.379868,239.998138 
	C196.487961,247.846390 196.626740,266.446045 199.552109,274.398621 
	C200.661133,267.723633 201.812561,260.690826 203.002548,253.664536 
	C203.920563,248.244034 206.731796,244.255661 211.691071,241.658783 
	C217.873611,238.421371 223.928131,234.939468 230.688980,231.200867 
M235.817459,356.689362 
	C241.667984,364.456482 247.518509,372.223602 253.680908,380.404755 
	C260.369781,369.333679 266.841125,358.888641 272.974915,348.249023 
	C274.222443,346.085052 274.198944,343.188324 274.908417,339.960205 
	C259.174683,344.959351 244.699142,345.144318 230.593918,339.047089 
	C228.868912,345.918579 230.566193,351.487946 235.817459,356.689362 
z"/>
<path fill="#ED2125" opacity="1.000000" stroke="none" 
	d="
M125.334152,372.748169 
	C137.782959,399.932983 129.449661,428.314087 105.644501,444.469971 
	C96.773056,450.490753 86.617401,453.337311 75.272560,453.273743 
	C58.519688,453.179779 44.934376,447.255463 33.836132,435.251648 
	C21.984678,422.433167 17.252254,407.283325 19.881449,389.848328 
	C23.434462,366.287262 36.739845,350.664246 59.244461,344.076599 
	C85.887131,336.277588 111.824265,347.098206 125.334152,372.748169 
M46.378815,403.162903 
	C48.567142,405.903442 51.402641,407.852234 51.640873,412.217957 
	C51.944324,417.778900 53.320591,423.429047 55.189644,428.702148 
	C56.335590,431.935120 58.654961,435.684082 61.511700,437.214020 
	C72.648201,443.178314 84.698952,444.450287 96.821236,440.689819 
	C105.456390,438.011169 109.035835,431.409973 107.582138,422.392639 
	C106.735901,417.143463 105.415787,411.970764 104.565292,406.722107 
	C104.335281,405.302673 104.746689,403.596832 105.365746,402.253845 
	C108.059517,396.409821 110.972664,390.667114 113.697685,384.836945 
	C113.970352,384.253510 113.756378,383.149750 113.351738,382.586914 
	C107.830017,374.906281 102.610191,366.961761 96.525101,359.749542 
	C92.505753,354.985687 86.864380,353.947357 80.548470,356.185608 
	C77.791992,357.162415 74.115417,357.261719 71.391685,356.278076 
	C64.260750,353.702759 58.322826,355.348206 53.823719,360.783478 
	C48.111141,367.684753 43.100624,375.170166 37.875092,382.466522 
	C37.403885,383.124481 37.183731,384.422333 37.506454,385.116425 
	C40.230530,390.975342 43.108204,396.762909 46.378815,403.162903 
z"/>
<path fill="#030000" opacity="1.000000" stroke="none" 
	d="
M348.772034,202.500214 
	C349.649872,204.075333 350.359894,205.338364 351.754028,207.818314 
	C342.418335,207.818314 333.960632,207.818314 325.206238,207.818314 
	C328.806335,200.503189 332.116058,193.624512 335.659393,186.868362 
	C335.944275,186.325150 338.304260,186.110107 338.885651,186.638489 
	C340.151398,187.788925 340.891357,189.517838 342.192871,191.552170 
	C350.338470,186.414658 358.214630,181.374939 366.179443,176.479401 
	C367.947876,175.392426 370.064850,174.105286 371.955627,174.201447 
	C373.829956,174.296783 376.665344,175.667282 377.162292,177.129868 
	C377.683258,178.662964 376.472351,181.621506 375.055908,182.811035 
	C371.527222,185.774490 367.503815,188.169540 363.582642,190.639755 
	C358.667694,193.736008 353.630402,196.638626 348.735626,199.765289 
	C348.338135,200.019196 348.631744,201.355026 348.772034,202.500214 
z"/>
<path fill="#020000" opacity="1.000000" stroke="none" 
	d="
M132.455643,195.421173 
	C128.024368,194.440155 128.471054,190.955521 129.508911,188.641159 
	C130.203247,187.092834 133.348114,185.610504 135.174332,185.843002 
	C137.965652,186.198334 140.702911,187.828430 143.219131,189.327026 
	C149.529221,193.085159 155.702438,197.073120 162.102325,201.076324 
	C163.296799,199.270508 164.347458,197.682098 166.008865,195.170334 
	C170.320175,202.589767 174.232224,209.322083 178.234360,216.209442 
	C169.840866,216.209442 162.174057,216.209442 153.880188,216.209442 
	C154.781799,213.734421 155.376175,212.102829 156.212524,209.807007 
	C148.468994,205.054443 140.621445,200.238052 132.455643,195.421173 
z"/>
<path fill="#020000" opacity="1.000000" stroke="none" 
	d="
M133.205750,325.251038 
	C136.242813,322.676361 139.014038,320.346436 141.962555,317.867432 
	C140.826660,316.412415 139.951859,315.291840 138.358383,313.250702 
	C145.758118,311.675781 152.478577,310.245392 160.131058,308.616669 
	C157.646973,316.276154 155.460541,323.017822 152.823776,331.148102 
	C151.232651,329.088715 150.163651,327.705109 148.567307,325.638977 
	C143.879105,329.916931 139.265686,334.403595 134.336716,338.511597 
	C131.736496,340.678741 128.733200,342.559540 125.605347,343.791077 
	C124.484993,344.232147 121.612724,342.750092 121.072884,341.489441 
	C120.421265,339.967712 120.719276,337.129944 121.797119,335.945282 
	C125.213112,332.190735 129.183731,328.940826 133.205750,325.251038 
z"/>
<path fill="#020000" opacity="1.000000" stroke="none" 
	d="
M369.292664,336.814911 
	C365.776428,334.292145 362.449615,332.120270 359.326935,329.686493 
	C356.213959,327.260345 353.305725,324.571594 349.894989,321.643707 
	C348.851196,323.168549 347.998413,324.414368 346.741211,326.251038 
	C344.096313,319.762756 341.604889,313.650970 338.755920,306.662079 
	C346.082153,307.852234 352.337891,308.868469 359.381409,310.012695 
	C358.147552,311.695984 357.436554,312.665985 356.522888,313.912476 
	C362.488251,318.596771 368.665894,323.480347 374.882812,328.313446 
	C377.358032,330.237732 379.590576,332.312561 377.606506,335.689117 
	C375.576660,339.143616 372.623383,338.777924 369.292664,336.814911 
z"/>
<path fill="#020000" opacity="1.000000" stroke="none" 
	d="
M259.577301,153.997437 
	C264.881866,154.294083 261.814178,157.632874 261.238495,158.730209 
	C257.990784,164.920959 254.300293,170.879425 250.346924,177.622833 
	C247.544693,173.766129 245.019196,170.537933 242.780609,167.121735 
	C241.301331,164.864258 240.343124,162.271957 238.959198,159.943924 
	C236.281509,155.439621 236.668106,154.520752 241.743576,153.999420 
	C242.702896,153.900864 243.662994,153.810074 244.599823,153.717957 
	C244.677597,144.537949 245.660187,142.758469 250.399536,143.003784 
	C254.504684,143.216278 255.507629,145.296173 255.163361,153.531586 
	C256.466827,153.682281 257.827209,153.839569 259.577301,153.997437 
z"/>
<path fill="#090301" opacity="1.000000" stroke="none" 
	d="
M175.852844,469.999847 
	C177.979355,460.636871 180.065704,451.264465 182.265549,441.918762 
	C182.717194,439.999939 183.347092,438.030945 184.360336,436.368835 
	C185.035919,435.260651 186.700317,433.838074 187.628220,434.023926 
	C188.900070,434.278656 190.659729,435.790039 190.872192,436.998199 
	C191.758347,442.036926 192.382233,447.151337 192.649445,452.261627 
	C192.960587,458.212372 192.798752,464.187897 192.971985,470.615234 
	C190.263931,472.510834 187.243240,471.281677 187.027283,468.491150 
	C186.862091,466.356689 187.145584,464.183105 186.922913,462.059052 
	C186.780197,460.697693 186.080338,459.394775 184.456284,458.267059 
	C183.558670,463.004303 182.661057,467.741516 181.671585,472.963562 
	C180.014526,472.277710 178.422180,471.618652 176.447235,470.675537 
	C176.064651,470.391418 175.852859,469.999847 175.852844,469.999847 
z"/>
<path fill="#050201" opacity="1.000000" stroke="none" 
	d="
M312.237885,471.465668 
	C312.633118,469.803345 313.766144,468.378387 313.799377,466.928223 
	C313.981445,458.977753 313.882233,451.021057 313.909271,443.066589 
	C313.914337,441.576935 313.663422,439.915558 314.226044,438.640167 
	C314.999969,436.885773 316.436279,435.423584 317.588806,433.836212 
	C318.929535,435.100159 321.014771,436.136536 321.482635,437.667267 
	C323.559052,444.460968 325.199280,451.389465 326.938385,458.284058 
	C327.625702,461.008881 328.403778,463.750732 328.649597,466.528290 
	C328.755524,467.725464 327.615051,469.032959 326.700195,470.522766 
	C324.383636,471.510376 322.436310,472.411835 322.880280,468.739227 
	C323.012787,467.642944 322.363190,466.452118 322.071960,465.304626 
	C321.636963,465.312103 321.201996,465.319611 320.767029,465.327118 
	C320.390991,466.985840 320.014923,468.644531 319.505249,470.892670 
	C317.299438,471.143036 314.883698,471.417206 312.237885,471.465668 
z"/>
<path fill="#ED2523" opacity="1.000000" stroke="none" 
	d="
M175.393951,469.999268 
	C175.852859,469.999847 176.064651,470.391418 176.104248,470.609680 
	C165.080811,470.876160 154.017792,470.924377 142.489410,470.918884 
	C142.024063,470.865112 142.019516,470.430756 142.048645,470.215576 
	C153.030212,469.999847 163.982635,469.999268 175.393951,469.999268 
z"/>
<path fill="#FEECED" opacity="1.000000" stroke="none" 
	d="
M414.888428,151.951767 
	C416.721710,152.645950 418.502350,153.679062 420.397736,153.973358 
	C427.203735,155.030182 430.020172,159.093765 427.966217,165.525818 
	C426.739563,169.367188 425.264008,173.129074 423.900330,176.926682 
	C423.326996,176.845383 422.753632,176.764084 422.180298,176.682800 
	C422.297455,175.007843 422.091156,173.230652 422.583130,171.674179 
	C426.416901,159.544968 426.458435,159.558075 414.193207,155.777573 
	C402.263275,152.100403 397.709991,143.774994 402.092804,133.589691 
	C402.548401,132.530914 403.122070,131.487625 403.819794,130.573669 
	C412.969208,118.588554 422.140869,106.620354 431.338196,94.671967 
	C432.387146,93.309265 433.625641,92.092461 434.776276,90.808006 
	C435.219299,91.042114 435.662354,91.276222 436.105408,91.510338 
	C435.738708,92.670837 435.633667,94.015999 434.965027,94.963387 
	C427.971619,104.872200 420.919525,114.740219 413.801270,124.559769 
	C412.444672,126.431190 410.955627,128.344681 409.133240,129.713669 
	C404.238678,133.390549 402.930420,138.350922 404.160858,143.872162 
	C405.296692,148.968643 409.377991,151.298538 414.598755,152.157227 
	C414.943054,151.999344 414.888428,151.951767 414.888428,151.951767 
z"/>
<path fill="#FEEEEE" opacity="1.000000" stroke="none" 
	d="
M414.965027,152.028137 
	C415.963135,145.878662 418.257233,144.582764 424.196838,146.859116 
	C426.975403,147.924011 429.693420,149.200119 432.544342,150.008759 
	C435.700287,150.903900 439.061096,151.162201 440.560455,147.309723 
	C442.078857,143.408493 440.248718,140.467834 436.903412,138.559250 
	C434.720703,137.313980 432.258301,136.558960 430.133759,134.942856 
	C434.252106,133.094772 437.529633,134.916290 440.515564,137.351822 
	C443.955597,140.157745 444.906433,143.894226 443.593933,148.097763 
	C442.395874,151.934784 439.449188,153.584579 435.631989,153.646896 
	C434.002930,153.673477 432.227264,153.473648 430.756348,152.831345 
	C425.841949,150.685471 420.938477,149.724915 415.339081,151.915833 
	C414.888428,151.951767 414.943054,151.999344 414.965027,152.028137 
z"/>
<path fill="#FEECED" opacity="1.000000" stroke="none" 
	d="
M407.783447,384.959839 
	C409.202332,382.626770 410.644684,380.307526 412.032135,377.955872 
	C413.015747,376.288635 414.296417,374.681366 414.802948,372.868103 
	C416.885284,365.414001 422.019409,362.206879 429.430908,364.016724 
	C435.901672,365.596832 441.839020,374.254486 440.965637,380.836304 
	C440.316315,385.729462 437.776031,387.296661 432.605347,385.994019 
	C428.606567,384.986572 423.222473,387.831696 423.240204,392.021179 
	C423.261139,396.966125 424.896423,401.920837 426.020721,406.828064 
	C426.206329,407.638184 427.238892,408.536255 428.085602,408.866455 
	C432.959595,410.767212 437.895447,412.509277 442.931305,414.349335 
	C441.093903,411.409943 438.076813,408.340271 437.250610,404.764374 
	C436.434448,401.232056 437.832855,397.188049 438.259766,393.368530 
	C438.862030,393.266632 439.464264,393.164734 440.066528,393.062836 
	C440.417786,394.847656 441.555664,396.958771 440.975616,398.357361 
	C439.092255,402.898102 439.751953,406.408997 443.706055,409.331512 
	C444.224548,409.714722 444.861328,410.303955 444.931793,410.862335 
	C445.201355,412.998047 445.261963,415.160126 445.400604,417.312378 
	C443.122589,417.189850 440.697113,417.520538 438.601135,416.838531 
	C435.453308,415.814270 432.478455,414.188263 429.540833,412.611694 
	C427.417542,411.472168 424.881775,410.422943 423.565033,408.589905 
	C420.048950,403.695190 418.822021,398.000854 419.891327,391.988525 
	C420.783081,386.974396 424.378601,383.908844 429.251709,382.902863 
	C432.228882,382.288269 436.006409,381.595581 437.648438,379.527710 
	C439.463867,377.241455 434.488342,369.681091 430.803467,367.824249 
	C424.760651,364.779205 419.757233,367.228668 417.735992,373.708374 
	C416.945312,376.243286 414.919891,378.384369 413.514679,380.739349 
	C412.613800,382.249146 411.441711,383.730469 411.040344,385.382263 
	C409.144745,393.183228 411.106476,400.511322 413.975006,407.758179 
	C414.566406,409.252289 414.043884,411.172791 414.118256,412.893188 
	C414.148407,413.592010 414.231232,414.384766 414.580261,414.958221 
	C417.172943,419.218262 419.531616,423.674164 422.587891,427.580139 
	C424.675720,430.248413 427.482635,432.673157 430.472687,434.249725 
	C436.647614,437.505737 443.074829,434.044861 444.461975,427.242035 
	C444.699188,426.078827 445.065643,424.942017 445.372406,423.792999 
	C445.852539,423.789673 446.332642,423.786377 446.812775,423.783081 
	C447.051239,425.171783 447.632874,426.601624 447.471985,427.942413 
	C446.496979,436.070221 437.292358,441.216827 429.708221,437.222107 
	C425.631256,435.074707 422.062286,431.450195 419.105865,427.808777 
	C414.723083,422.410492 411.076599,416.412994 407.142181,410.653137 
	C406.114227,409.148224 404.636780,407.691650 404.289856,406.020996 
	C401.513367,392.650665 401.562836,379.390472 408.904816,367.373779 
	C415.132874,357.180145 428.945709,354.995941 438.606293,362.008545 
	C440.356140,363.278748 441.905060,364.847382 443.727051,365.990936 
	C445.862671,367.331329 448.195435,368.357666 451.166199,369.894501 
	C451.034119,370.058624 450.344482,371.748413 449.300323,372.007080 
	C447.924286,372.347961 445.969147,371.996307 444.795654,371.178192 
	C442.079865,369.284851 439.623077,366.998993 437.170319,364.753113 
	C428.518799,356.831329 413.781342,362.351044 410.157318,371.257294 
	C408.482147,375.374084 407.622437,379.822723 406.238831,384.934845 
	C406.229950,393.684753 403.791748,402.120270 409.426239,408.523743 
	C408.893250,400.878510 408.338318,392.919159 407.783447,384.959839 
M412.382538,412.333649 
	C412.302765,412.011200 412.222992,411.688721 412.143219,411.366272 
	C412.096039,411.661255 412.048828,411.956268 412.382538,412.333649 
z"/>
<path fill="#F03F43" opacity="1.000000" stroke="none" 
	d="
M407.422974,384.949554 
	C408.338318,392.919159 408.893250,400.878510 409.426239,408.523743 
	C403.791748,402.120270 406.229950,393.684753 406.213501,385.363525 
	C406.582367,384.965271 406.822418,384.952271 407.422974,384.949554 
z"/>
<path fill="#FDE4E5" opacity="1.000000" stroke="none" 
	d="
M233.594162,62.539139 
	C233.397095,55.716671 233.242340,48.892601 232.984009,42.072453 
	C232.866180,38.962013 233.309753,36.230377 237.043701,35.826721 
	C240.594009,35.442917 242.227890,37.865768 242.829712,40.827351 
	C243.490448,44.078838 243.540176,47.449505 244.074341,50.732735 
	C245.149597,57.341698 246.372849,63.926571 248.597733,70.332535 
	C249.966141,61.208515 251.357285,52.087814 252.689789,42.958553 
	C253.117203,40.030220 253.607712,36.944054 257.350006,37.006145 
	C261.465393,37.074436 262.669159,40.380161 262.494141,43.677917 
	C262.009308,52.813351 261.116577,61.927105 260.389160,71.049751 
	C260.271973,72.519135 260.175690,73.990181 260.069702,75.460457 
	C261.374817,75.384628 263.410309,75.814583 263.868805,75.152489 
	C267.351685,70.123055 270.662567,64.959503 273.741425,59.671425 
	C275.391907,56.836609 276.664307,53.484196 280.722870,55.214153 
	C284.863312,56.979019 284.143646,60.621292 282.665558,63.756496 
	C279.556610,70.351143 276.025513,76.746284 272.889465,83.328957 
	C271.867737,85.473602 271.213287,87.909058 270.939697,90.274963 
	C269.470612,102.979012 268.182068,115.703888 266.785187,128.416519 
	C266.741302,128.815872 266.196289,129.160172 265.330872,130.188187 
	C265.029114,128.671463 264.610382,127.713333 264.690857,126.799149 
	C265.841248,113.732964 267.000275,100.666725 268.331268,87.618256 
	C268.507446,85.891037 269.535095,84.207237 270.352051,82.596474 
	C273.574249,76.243370 276.878967,69.932129 280.125397,63.591190 
	C280.500061,62.859428 281.014526,61.996372 280.915466,61.268955 
	C280.732697,59.927570 280.142578,58.641678 279.722198,57.332657 
	C278.642548,58.099785 277.210358,58.638969 276.542267,59.672207 
	C273.038879,65.090591 269.793976,70.675636 266.319092,76.113190 
	C264.965302,78.231621 263.403809,80.278633 260.244385,78.714928 
	C257.279877,77.247696 257.251160,75.203514 257.624725,72.144691 
	C258.752747,62.907398 259.400177,53.604195 259.947815,44.309765 
	C260.049042,42.591877 258.810120,40.795021 258.189728,39.034611 
	C257.719879,39.118145 257.250031,39.201683 256.780151,39.285217 
	C256.244751,40.238178 255.381836,41.140419 255.225143,42.152035 
	C253.825073,51.191715 252.621414,60.262276 251.165329,69.292366 
	C250.927292,70.768509 249.737427,72.091164 248.987488,73.484756 
	C247.665192,72.199951 245.575409,71.123039 245.160797,69.592369 
	C243.774002,64.472733 242.861206,59.211147 242.009354,53.964561 
	C241.343475,49.863392 241.287216,45.650928 240.429459,41.600288 
	C240.150452,40.282715 238.195816,39.319977 237.007599,38.194939 
	C236.492218,39.612846 235.454361,41.065182 235.545151,42.443161 
	C236.200073,52.383484 237.096130,62.307770 237.872742,72.240501 
	C237.941528,73.120117 237.703583,74.023720 237.608078,74.916191 
	C237.114685,75.077171 236.621292,75.238152 236.127899,75.399139 
	C232.793533,68.551216 229.430420,61.717075 226.139526,54.848328 
	C224.893921,52.248474 224.435349,48.940323 219.838882,49.112869 
	C219.950745,50.835552 219.716934,52.542221 220.213531,54.000095 
	C222.939804,62.003822 225.505539,70.089661 228.784515,77.869949 
	C232.040955,85.596779 231.292404,93.036461 228.924881,100.991730 
	C221.778351,101.319214 215.716293,91.210007 206.723679,98.938576 
	C215.577576,100.652527 220.358353,106.163635 224.958252,112.097794 
	C229.329910,117.737511 236.968781,121.127892 236.230682,130.157120 
	C234.896683,127.707367 233.931976,124.941040 232.156418,122.869789 
	C227.618835,117.576530 222.957321,112.338295 217.865555,107.592880 
	C215.316925,105.217606 211.656311,104.068153 208.627136,102.160271 
	C207.347641,101.354385 205.807236,100.170319 205.486633,98.883743 
	C205.227615,97.844223 206.304001,95.968842 207.336075,95.199379 
	C211.407501,92.163895 215.765518,92.733612 220.043457,94.910660 
	C222.208603,96.012512 224.321411,97.217201 226.664078,98.487190 
	C229.490662,91.459259 229.051834,85.217903 226.469955,78.712814 
	C223.170731,70.400398 220.297180,61.897770 217.748383,53.326004 
	C217.213058,51.525707 218.884857,49.069126 219.539612,46.914959 
	C221.805923,47.826523 225.074799,48.101437 226.138580,49.776634 
	C228.681656,53.781319 230.186005,58.445614 232.475983,63.337032 
	C233.033997,64.082390 233.225769,64.334305 233.417542,64.586227 
	C233.476425,63.903866 233.535294,63.221500 233.594162,62.539139 
z"/>
<path fill="#FEF1F1" opacity="1.000000" stroke="none" 
	d="
M79.753601,166.601456 
	C67.771439,166.854080 56.856636,165.182175 47.156441,158.100769 
	C43.782768,155.637894 39.397240,154.589279 35.567810,152.703888 
	C34.527992,152.191940 33.420128,151.104797 33.112690,150.056137 
	C32.887737,149.288864 33.666473,147.636017 34.432274,147.258011 
	C46.595203,141.254349 58.491714,134.490356 71.146667,129.770401 
	C82.267006,125.622810 93.762383,128.088257 104.580727,133.043076 
	C112.877571,136.843033 118.120605,143.594009 122.640053,151.073532 
	C123.196960,151.995178 123.319748,154.095123 122.739799,154.590179 
	C121.651863,155.518906 119.411819,156.523483 118.512337,156.004257 
	C114.291771,153.567932 111.802177,155.879822 108.543083,158.187897 
	C100.144363,164.135864 90.275162,165.836456 79.753601,166.601456 
M87.899078,132.263947 
	C86.327751,131.963348 84.627151,131.174927 83.233360,131.544281 
	C82.391212,131.767456 81.319260,134.664856 81.559532,134.858185 
	C83.154991,136.141953 85.077301,137.019516 86.624649,138.715363 
	C86.113304,143.174988 86.713799,148.061951 81.473946,151.052963 
	C81.312332,151.095642 81.150711,151.138306 80.346268,151.018707 
	C79.914619,151.091202 79.482964,151.163696 78.555672,151.261948 
	C78.257477,151.451096 78.077583,151.719528 77.200447,152.013107 
	C69.432625,150.272171 67.158951,145.715057 70.250961,136.113556 
	C67.846001,135.845627 65.528259,135.013550 63.546570,135.513519 
	C61.131313,136.122864 58.259998,137.291397 59.276737,141.552887 
	C59.530193,142.039368 59.783649,142.525848 59.529751,143.457123 
	C61.102978,147.298477 62.045609,151.588348 64.388451,154.882309 
	C68.515366,160.684662 77.737251,162.122330 85.701416,158.865768 
	C88.382118,157.422668 91.738434,156.572876 90.978424,152.278259 
	C90.875587,151.697128 91.595200,150.778946 92.169952,150.299988 
	C96.381645,146.790283 97.162712,141.061295 94.481827,135.913269 
	C92.950630,132.972946 91.278740,131.402878 87.899078,132.263947 
M98.044868,134.212936 
	C97.803719,134.262299 97.562569,134.311661 97.321419,134.361008 
	C97.435516,134.685242 97.549614,135.009476 97.766235,136.126465 
	C100.050362,148.147263 97.085762,155.115616 86.166801,162.204041 
	C96.727882,161.019089 105.571922,158.001892 112.206993,150.222549 
	C114.591568,147.426727 115.041824,144.361526 111.649155,142.138489 
	C107.406586,139.358536 102.874786,137.019989 98.044868,134.212936 
M57.862255,149.315079 
	C57.365475,146.099731 56.868694,142.884384 56.304195,139.230728 
	C50.508892,142.472855 44.713585,145.714981 38.208572,149.354156 
	C48.857849,153.579926 56.438702,162.190521 67.395897,162.500290 
	C64.274162,158.343719 61.172363,154.213684 57.862255,149.315079 
z"/>
<path fill="#F3E3DD" opacity="1.000000" stroke="none" 
	d="
M268.283173,235.714066 
	C277.542450,243.584488 286.570129,251.184250 295.541595,258.849792 
	C296.746796,259.879608 298.342987,261.105133 298.618256,262.469910 
	C301.670319,277.602875 303.047791,292.680237 297.590912,307.708099 
	C290.327667,327.710632 275.656036,337.967773 253.319672,338.162201 
	C232.794556,338.340851 216.325439,326.840240 208.921173,307.343750 
	C203.717468,293.641571 204.990295,279.680725 206.151947,265.500458 
	C207.139481,253.445953 212.274673,245.595490 223.521561,240.979660 
	C233.784729,236.767548 243.676208,231.640213 253.676849,226.803253 
	C257.133881,225.131226 259.737610,225.183258 262.060455,228.769943 
	C263.666901,231.250458 266.016418,233.249756 268.283173,235.714066 
M266.800964,320.126526 
	C270.859558,312.742859 268.798889,308.669952 260.539246,308.198700 
	C255.904083,307.934235 251.233368,307.949982 246.594788,308.173676 
	C240.585815,308.463531 237.932480,312.961456 240.994110,318.173981 
	C242.398788,320.565460 244.905945,322.862854 247.447327,323.926178 
	C254.211502,326.756348 260.755524,326.034576 266.800964,320.126526 
M281.162415,272.388794 
	C276.501801,269.291077 271.712372,270.218475 271.080048,274.700714 
	C270.791138,276.748291 271.756897,280.102234 273.257141,280.982025 
	C275.062927,282.041046 278.534332,281.930115 280.399261,280.827759 
	C283.216614,279.162476 283.436920,275.942780 281.162415,272.388794 
M227.359802,281.605011 
	C231.415344,283.020569 235.016388,282.189331 235.821487,277.798126 
	C236.206467,275.698303 234.581100,271.990204 232.806656,271.082916 
	C231.032623,270.175873 227.193466,271.063232 225.582458,272.574341 
	C222.707092,275.271423 223.844711,278.569397 227.359802,281.605011 
M257.510315,297.103149 
	C258.815338,296.325562 260.120361,295.548004 261.425354,294.770447 
	C261.293365,294.398102 261.161346,294.025726 261.029358,293.653381 
	C256.574829,293.653381 252.120331,293.653381 246.764038,293.653381 
	C250.035599,297.420258 253.032455,298.472809 257.510315,297.103149 
z"/>
<path fill="#A55D25" opacity="1.000000" stroke="none" 
	d="
M230.363464,231.382019 
	C223.928131,234.939468 217.873611,238.421371 211.691071,241.658783 
	C206.731796,244.255661 203.920563,248.244034 203.002548,253.664536 
	C201.812561,260.690826 200.661133,267.723633 199.552109,274.398621 
	C196.626740,266.446045 196.487961,247.846390 199.379868,239.998138 
	C199.775406,238.924683 200.183670,237.712845 200.070618,236.618301 
	C199.342346,229.567139 202.434082,224.491882 207.992996,220.566925 
	C218.573090,213.096710 229.079330,205.520554 239.719803,198.137665 
	C246.711334,193.286591 253.145645,195.668839 259.532257,199.885605 
	C262.175171,201.630569 265.263184,202.866623 268.312531,203.798096 
	C275.919220,206.121658 283.726898,207.822281 291.249634,210.374893 
	C297.561829,212.516754 301.670135,217.089172 303.551331,223.756546 
	C307.694977,238.442703 309.605743,253.372208 309.029633,268.603149 
	C308.954224,270.595825 308.050293,272.557098 307.437714,274.883911 
	C306.555115,274.209656 306.175720,274.059418 306.169495,273.895111 
	C305.757202,262.966980 301.197113,255.293243 291.765259,248.683548 
	C281.419281,241.433243 272.927612,231.480759 263.907349,222.427307 
	C261.018494,219.527832 258.156860,219.316116 254.906311,220.680435 
	C246.791519,224.086380 238.756195,227.681610 230.363464,231.382019 
z"/>
<path fill="#F0E1DB" opacity="1.000000" stroke="none" 
	d="
M235.585388,356.413269 
	C230.566193,351.487946 228.868912,345.918579 230.593918,339.047089 
	C244.699142,345.144318 259.174683,344.959351 274.908417,339.960205 
	C274.198944,343.188324 274.222443,346.085052 272.974915,348.249023 
	C266.841125,358.888641 260.369781,369.333679 253.680908,380.404755 
	C247.518509,372.223602 241.667984,364.456482 235.585388,356.413269 
z"/>
<path fill="#FDE8E9" opacity="1.000000" stroke="none" 
	d="
M46.159260,402.867401 
	C43.108204,396.762909 40.230530,390.975342 37.506454,385.116425 
	C37.183731,384.422333 37.403885,383.124481 37.875092,382.466522 
	C43.100624,375.170166 48.111141,367.684753 53.823719,360.783478 
	C58.322826,355.348206 64.260750,353.702759 71.391685,356.278076 
	C74.115417,357.261719 77.791992,357.162415 80.548470,356.185608 
	C86.864380,353.947357 92.505753,354.985687 96.525101,359.749542 
	C102.610191,366.961761 107.830017,374.906281 113.351738,382.586914 
	C113.756378,383.149750 113.970352,384.253510 113.697685,384.836945 
	C110.972664,390.667114 108.059517,396.409821 105.365746,402.253845 
	C104.746689,403.596832 104.335281,405.302673 104.565292,406.722107 
	C105.415787,411.970764 106.735901,417.143463 107.582138,422.392639 
	C109.035835,431.409973 105.456390,438.011169 96.821236,440.689819 
	C84.698952,444.450287 72.648201,443.178314 61.511700,437.214020 
	C58.654961,435.684082 56.335590,431.935120 55.189644,428.702148 
	C53.320591,423.429047 51.944324,417.778900 51.640873,412.217957 
	C51.402641,407.852234 48.567142,405.903442 46.159260,402.867401 
M55.497849,373.163116 
	C55.328743,373.117554 55.159637,373.071960 54.759754,372.439301 
	C53.146793,373.952606 51.533833,375.465881 49.318382,377.321594 
	C48.542633,378.621918 47.766884,379.922272 46.288258,381.305237 
	C45.091148,382.295105 43.894043,383.285004 42.436462,384.490265 
	C43.849133,387.120117 45.155357,389.551819 46.626152,392.289886 
	C49.447536,390.841064 51.982388,389.677917 54.380054,388.279572 
	C59.494427,385.296753 64.890305,384.030212 70.608574,385.894196 
	C74.156456,387.050781 77.190994,386.592743 80.538750,385.035736 
	C86.179039,382.412476 91.293152,384.368103 95.670441,388.192444 
	C97.891914,390.133301 99.645363,392.609863 102.267586,395.591492 
	C104.324219,391.857330 106.606857,388.426361 107.941826,384.659576 
	C108.195000,383.945160 104.693352,381.895660 102.916855,380.471344 
	C102.668083,380.271881 102.376968,380.125214 101.912567,379.375519 
	C101.575142,378.923553 101.237709,378.471558 100.946648,377.310272 
	C99.312836,375.913086 97.679031,374.515900 95.477242,373.353088 
	C95.274872,373.384613 95.072510,373.416107 94.851028,372.648254 
	C93.151642,370.942627 91.452255,369.237000 89.752861,367.531372 
	C89.162453,367.841888 88.572037,368.152435 87.981621,368.462952 
	C87.981621,371.044281 87.981621,373.625610 87.951607,376.757660 
	C87.938087,376.941071 87.924576,377.124451 87.180801,377.210419 
	C86.457993,377.069763 85.735184,376.929077 84.946358,376.198303 
	C84.910103,376.003693 84.873848,375.809113 85.280281,374.956879 
	C85.594772,372.822632 85.909256,370.688416 86.270416,368.237457 
	C82.509514,369.117249 79.533997,369.813324 76.365891,370.554443 
	C76.608276,372.587433 76.814941,374.320831 76.222214,376.155334 
	C75.279106,376.090424 74.335991,376.025513 73.700790,375.981812 
	C74.152969,374.075104 74.569603,372.318298 74.989418,370.548096 
	C71.484062,369.741455 68.446121,369.042389 64.817123,368.207306 
	C65.166901,370.485229 65.369972,372.566589 65.825821,374.591064 
	C66.444458,377.338470 64.823761,377.216095 62.862061,376.499115 
	C62.919136,376.336731 62.976212,376.174316 63.711403,375.696045 
	C63.367622,373.224945 63.023838,370.753815 62.680058,368.282715 
	C62.157890,367.999420 61.635723,367.716095 61.113556,367.432800 
	C59.405445,369.280853 57.697334,371.128937 55.497849,373.163116 
M57.902054,429.414032 
	C59.684002,431.520569 61.049911,434.480225 63.319420,435.587006 
	C73.521042,440.562073 84.382385,441.631897 95.350548,438.684692 
	C102.881889,436.661011 106.324570,431.422058 105.120338,423.665009 
	C103.773140,414.987122 102.184143,406.273895 99.731796,397.858276 
	C96.426361,386.515137 83.594681,382.837219 76.194778,390.599213 
	C67.661621,385.560883 58.613953,386.777466 50.889194,393.276550 
	C51.897594,398.722839 52.766502,403.499847 53.669102,408.270538 
	C54.958828,415.087280 56.273212,421.899384 57.902054,429.414032 
M47.534805,372.009979 
	C47.474632,372.165161 47.378780,372.317596 47.366539,372.476471 
	C47.358051,372.586700 47.510284,372.807922 47.513390,372.806549 
	C49.070709,372.110504 50.806175,371.645996 52.139805,370.645813 
	C57.467937,366.649719 62.905025,364.651764 69.793800,366.790619 
	C73.241837,367.861176 77.566223,367.951904 80.991203,366.879364 
	C88.675896,364.472931 94.634262,366.878479 100.223022,371.726196 
	C101.697998,373.005646 103.157501,374.302887 104.624107,375.591949 
	C105.049866,375.207977 105.475632,374.824005 105.901390,374.440063 
	C102.128540,369.957947 98.571266,365.268341 94.517525,361.056580 
	C91.006393,357.408569 86.619896,356.923523 81.615723,358.371033 
	C78.429764,359.292603 74.470932,359.854095 71.508125,358.782074 
	C63.996437,356.064117 58.546864,358.414459 53.822250,363.998016 
	C51.783905,366.406982 49.934753,368.976013 47.534805,372.009979 
z"/>
<path fill="#FEEBEC" opacity="1.000000" stroke="none" 
	d="
M412.192078,412.292450 
	C412.048828,411.956268 412.096039,411.661255 412.143219,411.366272 
	C412.222992,411.688721 412.302765,412.011200 412.192078,412.292450 
z"/>
<path fill="#ED2226" opacity="1.000000" stroke="none" 
	d="
M233.353485,62.724918 
	C233.535294,63.221500 233.476425,63.903866 233.417542,64.586227 
	C233.225769,64.334305 233.033997,64.082390 232.745605,63.567192 
	C232.803604,63.172844 232.958206,63.041771 233.353485,62.724918 
z"/>
<path fill="#EE272B" opacity="1.000000" stroke="none" 
	d="
M98.467842,134.490891 
	C102.874786,137.019989 107.406586,139.358536 111.649155,142.138489 
	C115.041824,144.361526 114.591568,147.426727 112.206993,150.222549 
	C105.571922,158.001892 96.727882,161.019089 86.166801,162.204041 
	C97.085762,155.115616 100.050362,148.147263 97.919716,135.522919 
	C98.204750,134.776535 98.336296,134.633713 98.467842,134.490891 
z"/>
<path fill="#EE2B2F" opacity="1.000000" stroke="none" 
	d="
M84.979828,158.939011 
	C77.737251,162.122330 68.515366,160.684662 64.388451,154.882309 
	C62.045609,151.588348 61.102978,147.298477 60.188431,143.234894 
	C62.377491,142.848068 63.907875,142.683487 65.438263,142.518890 
	C65.389061,142.009064 65.339859,141.499252 65.290657,140.989426 
	C63.272400,140.989426 61.254143,140.989426 59.235886,140.989426 
	C58.259998,137.291397 61.131313,136.122864 63.546570,135.513519 
	C65.528259,135.013550 67.846001,135.845627 70.250961,136.113556 
	C67.158951,145.715057 69.432625,150.272171 77.641800,152.308807 
	C78.522491,152.859238 78.961823,153.113968 79.401154,153.368698 
	C79.284546,152.657867 79.167931,151.947021 79.051315,151.236191 
	C79.482964,151.163696 79.914619,151.091202 80.717468,151.430511 
	C82.052780,152.893478 83.016899,153.944656 83.988762,154.999084 
	C83.996513,155.002350 83.996864,155.019150 83.900192,155.261597 
	C84.193153,156.019547 84.582771,156.535019 84.977539,157.365234 
	C84.981735,158.099640 84.980782,158.519318 84.979828,158.939011 
M66.086411,150.307220 
	C66.173462,150.339813 66.260521,150.372421 66.347572,150.405014 
	C66.256241,150.253662 66.164917,150.102295 65.930031,149.713181 
	C65.839577,149.678131 65.749130,149.643066 65.658676,149.608017 
	C65.754456,149.766205 65.850235,149.924393 66.086411,150.307220 
M70.138382,153.140900 
	C70.057053,153.614426 69.975723,154.087967 69.894386,154.561493 
	C70.243607,154.122284 70.592827,153.683075 71.470619,152.963974 
	C71.475861,152.724213 71.481102,152.484467 71.486336,152.244705 
	C71.201614,152.525177 70.916893,152.805649 70.138382,153.140900 
z"/>
<path fill="#EE282C" opacity="1.000000" stroke="none" 
	d="
M57.966408,149.699371 
	C61.172363,154.213684 64.274162,158.343719 67.395897,162.500290 
	C56.438702,162.190521 48.857849,153.579926 38.208572,149.354156 
	C44.713585,145.714981 50.508892,142.472855 56.304195,139.230728 
	C56.868694,142.884384 57.365475,146.099731 57.966408,149.699371 
z"/>
<path fill="#EE3034" opacity="1.000000" stroke="none" 
	d="
M85.340622,158.902390 
	C84.980782,158.519318 84.981735,158.099640 84.965439,157.064117 
	C84.631088,155.971909 84.313980,155.495529 83.996872,155.019150 
	C83.996864,155.019150 83.996513,155.002350 83.960960,154.666229 
	C83.265862,153.182037 82.606308,152.033936 81.946762,150.885849 
	C86.713799,148.061951 86.113304,143.174988 87.120598,138.363464 
	C88.840393,137.653763 90.064232,137.295944 91.183876,136.968582 
	C89.888077,135.783142 88.958015,134.932297 88.168053,133.799393 
	C88.218117,133.327698 88.128075,133.138031 88.006226,132.943665 
	C87.974411,132.938980 87.947151,132.997238 87.947151,132.997238 
	C91.278740,131.402878 92.950630,132.972946 94.481827,135.913269 
	C97.162712,141.061295 96.381645,146.790283 92.169952,150.299988 
	C91.595200,150.778946 90.875587,151.697128 90.978424,152.278259 
	C91.738434,156.572876 88.382118,157.422668 85.340622,158.902390 
z"/>
<path fill="#F1494D" opacity="1.000000" stroke="none" 
	d="
M88.027954,134.081436 
	C88.958015,134.932297 89.888077,135.783142 91.183876,136.968582 
	C90.064232,137.295944 88.840393,137.653763 87.254929,138.020386 
	C85.077301,137.019516 83.154991,136.141953 81.559532,134.858185 
	C81.319260,134.664856 82.391212,131.767456 83.233360,131.544281 
	C84.627151,131.174927 86.327751,131.963348 87.923111,132.630585 
	C87.947151,132.997238 87.974411,132.938980 87.785202,133.050308 
	C87.491768,133.287323 87.387550,133.413010 87.283325,133.538696 
	C87.531532,133.719604 87.779739,133.900528 88.027954,134.081436 
z"/>
<path fill="#EF3135" opacity="1.000000" stroke="none" 
	d="
M59.256310,141.271149 
	C61.254143,140.989426 63.272400,140.989426 65.290657,140.989426 
	C65.339859,141.499252 65.389061,142.009064 65.438263,142.518890 
	C63.907875,142.683487 62.377491,142.848068 60.442104,143.012497 
	C59.783649,142.525848 59.530193,142.039368 59.256310,141.271149 
z"/>
<path fill="#EF363A" opacity="1.000000" stroke="none" 
	d="
M81.710358,150.969406 
	C82.606308,152.033936 83.265862,153.182037 83.953209,154.662979 
	C83.016899,153.944656 82.052780,152.893478 81.038879,151.511642 
	C81.150711,151.138306 81.312332,151.095642 81.710358,150.969406 
z"/>
<path fill="#EF363A" opacity="1.000000" stroke="none" 
	d="
M78.803497,151.249069 
	C79.167931,151.947021 79.284546,152.657867 79.401154,153.368698 
	C78.961823,153.113968 78.522491,152.859238 78.049576,152.335876 
	C78.077583,151.719528 78.257477,151.451096 78.803497,151.249069 
z"/>
<path fill="#EE272B" opacity="1.000000" stroke="none" 
	d="
M97.868454,135.126541 
	C97.549614,135.009476 97.435516,134.685242 97.321419,134.361023 
	C97.562569,134.311661 97.803719,134.262299 98.256355,134.351913 
	C98.336296,134.633713 98.204750,134.776535 97.868454,135.126541 
z"/>
<path fill="#141211" opacity="1.000000" stroke="none" 
	d="
M266.555450,320.408569 
	C260.755524,326.034576 254.211502,326.756348 247.447327,323.926178 
	C244.905945,322.862854 242.398788,320.565460 240.994110,318.173981 
	C237.932480,312.961456 240.585815,308.463531 246.594788,308.173676 
	C251.233368,307.949982 255.904083,307.934235 260.539246,308.198700 
	C268.798889,308.669952 270.859558,312.742859 266.555450,320.408569 
M264.927185,315.974396 
	C265.596283,313.417816 264.488800,312.102417 261.967499,312.075592 
	C256.025360,312.012360 250.082108,312.055328 244.168930,312.055328 
	C242.865128,316.748596 245.236771,319.043945 248.670303,320.599976 
	C254.574982,323.275909 260.364777,321.817749 264.927185,315.974396 
z"/>
<path fill="#0C0A09" opacity="1.000000" stroke="none" 
	d="
M281.409058,272.666809 
	C283.436920,275.942780 283.216614,279.162476 280.399261,280.827759 
	C278.534332,281.930115 275.062927,282.041046 273.257141,280.982025 
	C271.756897,280.102234 270.791138,276.748291 271.080048,274.700714 
	C271.712372,270.218475 276.501801,269.291077 281.409058,272.666809 
z"/>
<path fill="#0A0908" opacity="1.000000" stroke="none" 
	d="
M227.052231,281.348267 
	C223.844711,278.569397 222.707092,275.271423 225.582458,272.574341 
	C227.193466,271.063232 231.032623,270.175873 232.806656,271.082916 
	C234.581100,271.990204 236.206467,275.698303 235.821487,277.798126 
	C235.016388,282.189331 231.415344,283.020569 227.052231,281.348267 
z"/>
<path fill="#272321" opacity="1.000000" stroke="none" 
	d="
M257.126160,297.217957 
	C253.032455,298.472809 250.035599,297.420258 246.764038,293.653381 
	C252.120331,293.653381 256.574829,293.653381 261.029358,293.653381 
	C261.161346,294.025726 261.293365,294.398102 261.425354,294.770447 
	C260.120361,295.548004 258.815338,296.325562 257.126160,297.217957 
z"/>
<path fill="#ED2327" opacity="1.000000" stroke="none" 
	d="
M57.739559,429.063751 
	C56.273212,421.899384 54.958828,415.087280 53.669102,408.270538 
	C52.766502,403.499847 51.897594,398.722839 50.889194,393.276550 
	C58.613953,386.777466 67.661621,385.560883 76.194778,390.599213 
	C83.594681,382.837219 96.426361,386.515137 99.731796,397.858276 
	C102.184143,406.273895 103.773140,414.987122 105.120338,423.665009 
	C106.324570,431.422058 102.881889,436.661011 95.350548,438.684692 
	C84.382385,441.631897 73.521042,440.562073 63.319420,435.587006 
	C61.049911,434.480225 59.684002,431.520569 57.739559,429.063751 
z"/>
<path fill="#EE282C" opacity="1.000000" stroke="none" 
	d="
M96.045212,373.118713 
	C97.679031,374.515900 99.312836,375.913086 100.614937,377.710876 
	C100.020241,378.460541 99.757248,378.809631 99.494247,379.158752 
	C100.364647,379.423859 101.235046,379.688995 102.105453,379.954102 
	C102.376968,380.125214 102.668083,380.271881 102.916855,380.471344 
	C104.693352,381.895660 108.195000,383.945160 107.941826,384.659576 
	C106.606857,388.426361 104.324219,391.857330 102.267586,395.591492 
	C99.645363,392.609863 97.891914,390.133301 95.670441,388.192444 
	C91.293152,384.368103 86.179039,382.412476 80.538750,385.035736 
	C77.190994,386.592743 74.156456,387.050781 70.608574,385.894196 
	C64.890305,384.030212 59.494427,385.296753 54.380054,388.279572 
	C51.982388,389.677917 49.447536,390.841064 46.626152,392.289886 
	C45.155357,389.551819 43.849133,387.120117 42.436462,384.490265 
	C43.894043,383.285004 45.091148,382.295105 46.675652,381.541016 
	C48.524185,382.097382 49.985325,382.417969 51.446465,382.738556 
	C51.732159,382.286591 52.017853,381.834595 52.303547,381.382629 
	C51.509319,379.914795 50.715088,378.446991 49.920864,376.979156 
	C51.533833,375.465881 53.146793,373.952606 54.931999,373.069763 
	C55.874435,375.387299 56.644630,377.074402 57.754116,379.504669 
	C59.433262,378.702881 61.224831,377.847412 63.016396,376.991943 
	C64.823761,377.216095 66.444458,377.338470 65.825821,374.591064 
	C65.369972,372.566589 65.166901,370.485229 64.817123,368.207306 
	C68.446121,369.042389 71.484062,369.741455 74.989418,370.548096 
	C74.569603,372.318298 74.152969,374.075104 73.700790,375.981812 
	C74.335991,376.025513 75.279106,376.090424 76.612396,376.072083 
	C77.002571,375.988861 76.937080,376.007538 77.163025,376.355591 
	C79.930099,376.731934 82.471237,376.760162 85.012375,376.788391 
	C85.735184,376.929077 86.457993,377.069763 87.646675,377.445496 
	C88.357079,377.836761 88.623787,377.928497 89.260117,378.114685 
	C91.461082,378.541290 93.314606,378.808960 94.880257,379.035034 
	C95.355553,376.621216 95.700386,374.869965 96.045212,373.118713 
M97.475510,380.178986 
	C97.546394,379.772034 97.617279,379.365051 97.688156,378.958099 
	C97.515327,379.268524 97.342499,379.578949 97.475510,380.178986 
M54.896072,379.462769 
	C54.724899,379.274292 54.553726,379.085785 54.382553,378.897308 
	C54.309090,379.181854 54.235626,379.466431 54.162167,379.750977 
	C54.383068,379.790833 54.603970,379.830688 54.896072,379.462769 
z"/>
<path fill="#EE292D" opacity="1.000000" stroke="none" 
	d="
M47.767227,371.741150 
	C49.934753,368.976013 51.783905,366.406982 53.822250,363.998016 
	C58.546864,358.414459 63.996437,356.064117 71.508125,358.782074 
	C74.470932,359.854095 78.429764,359.292603 81.615723,358.371033 
	C86.619896,356.923523 91.006393,357.408569 94.517525,361.056580 
	C98.571266,365.268341 102.128540,369.957947 105.901390,374.440063 
	C105.475632,374.824005 105.049866,375.207977 104.624107,375.591949 
	C103.157501,374.302887 101.697998,373.005646 100.223022,371.726196 
	C94.634262,366.878479 88.675896,364.472931 80.991203,366.879364 
	C77.566223,367.951904 73.241837,367.861176 69.793800,366.790619 
	C62.905025,364.651764 57.467937,366.649719 52.139805,370.645813 
	C50.806175,371.645996 49.070709,372.110504 47.513390,372.806549 
	C47.510284,372.807922 47.358051,372.586700 47.366539,372.476471 
	C47.378780,372.317596 47.474632,372.165161 47.767227,371.741150 
z"/>
<path fill="#EF363A" opacity="1.000000" stroke="none" 
	d="
M77.012085,376.021545 
	C76.814941,374.320831 76.608276,372.587433 76.365891,370.554443 
	C79.533997,369.813324 82.509514,369.117249 86.270416,368.237457 
	C85.909256,370.688416 85.594772,372.822632 84.620857,375.288879 
	C81.619980,375.749725 79.278534,375.878632 76.937080,376.007538 
	C76.937080,376.007538 77.002571,375.988861 77.012085,376.021545 
z"/>
<path fill="#EF363A" opacity="1.000000" stroke="none" 
	d="
M87.981621,376.206940 
	C87.981621,373.625610 87.981621,371.044281 87.981621,368.462952 
	C88.572037,368.152435 89.162453,367.841888 89.752861,367.531372 
	C91.452255,369.237000 93.151642,370.942627 94.781898,373.367950 
	C92.760796,374.745911 90.808815,375.404175 88.637451,376.095062 
	C88.418076,376.127655 87.981621,376.206940 87.981621,376.206940 
z"/>
<path fill="#EE2E31" opacity="1.000000" stroke="none" 
	d="
M55.989220,372.977020 
	C57.697334,371.128937 59.405445,369.280853 61.113556,367.432800 
	C61.635723,367.716095 62.157890,367.999420 62.680058,368.282715 
	C63.023838,370.753815 63.367622,373.224945 63.045296,375.854645 
	C61.365498,376.344421 60.351799,376.675598 59.395226,376.988098 
	C58.249420,375.638733 57.119316,374.307892 55.989220,372.977020 
z"/>
<path fill="#EF383C" opacity="1.000000" stroke="none" 
	d="
M88.856842,376.062469 
	C90.808815,375.404175 92.760796,374.745911 94.791458,373.767639 
	C95.072510,373.416107 95.274872,373.384613 95.761230,373.235901 
	C95.700386,374.869965 95.355553,376.621216 94.880257,379.035034 
	C93.314606,378.808960 91.461082,378.541290 89.365936,377.802216 
	C89.035149,376.908020 88.945992,376.485229 88.856842,376.062469 
z"/>
<path fill="#EE3034" opacity="1.000000" stroke="none" 
	d="
M49.619621,377.150391 
	C50.715088,378.446991 51.509319,379.914795 52.303547,381.382629 
	C52.017853,381.834595 51.732159,382.286591 51.446465,382.738556 
	C49.985325,382.417969 48.524185,382.097382 47.027084,381.499695 
	C47.766884,379.922272 48.542633,378.621918 49.619621,377.150391 
z"/>
<path fill="#EE3034" opacity="1.000000" stroke="none" 
	d="
M55.743530,373.070068 
	C57.119316,374.307892 58.249420,375.638733 59.395226,376.988098 
	C60.351799,376.675598 61.365498,376.344421 62.706238,376.012573 
	C62.976212,376.174316 62.919136,376.336731 62.939228,376.745544 
	C61.224831,377.847412 59.433262,378.702881 57.754116,379.504669 
	C56.644630,377.074402 55.874435,375.387299 55.047386,373.363281 
	C55.159637,373.071960 55.328743,373.117554 55.743530,373.070068 
z"/>
<path fill="#FDDCDD" opacity="1.000000" stroke="none" 
	d="
M77.163025,376.355591 
	C79.278534,375.878632 81.619980,375.749725 84.399513,375.617676 
	C84.873848,375.809113 84.910103,376.003693 84.979370,376.493347 
	C82.471237,376.760162 79.930099,376.731934 77.163025,376.355591 
z"/>
<path fill="#EF383C" opacity="1.000000" stroke="none" 
	d="
M102.009003,379.664825 
	C101.235046,379.688995 100.364647,379.423859 99.494247,379.158752 
	C99.757248,378.809631 100.020241,378.460541 100.591751,378.065491 
	C101.237709,378.471558 101.575142,378.923553 102.009003,379.664825 
z"/>
<path fill="#FDDCDD" opacity="1.000000" stroke="none" 
	d="
M88.637459,376.095062 
	C88.945992,376.485229 89.035149,376.908020 89.018486,377.643250 
	C88.623787,377.928497 88.357079,377.836761 88.011810,377.494202 
	C87.924576,377.124451 87.938087,376.941071 87.966614,376.482300 
	C87.981621,376.206940 88.418076,376.127655 88.637459,376.095062 
z"/>
<path fill="#EF383C" opacity="1.000000" stroke="none" 
	d="
M70.942047,153.243881 
	C70.592827,153.683075 70.243607,154.122284 69.894394,154.561493 
	C69.975723,154.087967 70.057053,153.614426 70.504799,153.070343 
	C70.871216,152.999802 70.942047,153.243881 70.942047,153.243881 
z"/>
<path fill="#EF363A" opacity="1.000000" stroke="none" 
	d="
M83.900200,155.261597 
	C84.313980,155.495529 84.631088,155.971909 84.960297,156.749390 
	C84.582771,156.535019 84.193153,156.019547 83.900200,155.261597 
z"/>
<path fill="#EE2E31" opacity="1.000000" stroke="none" 
	d="
M65.946014,150.082581 
	C65.850235,149.924393 65.754456,149.766205 65.658676,149.608017 
	C65.749130,149.643066 65.839577,149.678131 65.967102,149.862244 
	C66.004166,150.011292 65.946014,150.082581 65.946014,150.082581 
z"/>
<path fill="#FEF1F1" opacity="1.000000" stroke="none" 
	d="
M70.751694,153.042969 
	C70.916893,152.805649 71.201614,152.525177 71.486343,152.244705 
	C71.481102,152.484467 71.475861,152.724213 71.206329,153.103928 
	C70.942047,153.243881 70.871216,152.999802 70.751694,153.042969 
z"/>
<path fill="#EE2E31" opacity="1.000000" stroke="none" 
	d="
M66.038879,149.981110 
	C66.164917,150.102295 66.256241,150.253662 66.347572,150.405014 
	C66.260521,150.372421 66.173462,150.339813 66.016212,150.194901 
	C65.946014,150.082581 66.004166,150.011292 66.038879,149.981110 
z"/>
<path fill="#FEF1F1" opacity="1.000000" stroke="none" 
	d="
M88.168053,133.799393 
	C87.779739,133.900528 87.531532,133.719604 87.283325,133.538696 
	C87.387550,133.413010 87.491768,133.287323 87.817017,133.054993 
	C88.128075,133.138031 88.218117,133.327698 88.168053,133.799393 
z"/>
<path fill="#FAF9F9" opacity="1.000000" stroke="none" 
	d="
M264.786133,316.348816 
	C260.364777,321.817749 254.574982,323.275909 248.670303,320.599976 
	C245.236771,319.043945 242.865128,316.748596 244.168930,312.055328 
	C250.082108,312.055328 256.025360,312.012360 261.967499,312.075592 
	C264.488800,312.102417 265.596283,313.417816 264.786133,316.348816 
z"/>
<path fill="#EF383C" opacity="1.000000" stroke="none" 
	d="
M97.322586,380.034180 
	C97.342499,379.578949 97.515327,379.268524 97.688156,378.958099 
	C97.617279,379.365051 97.546394,379.772034 97.322586,380.034180 
z"/>
<path fill="#EE3034" opacity="1.000000" stroke="none" 
	d="
M54.860474,379.666687 
	C54.603970,379.830688 54.383068,379.790833 54.162163,379.750977 
	C54.235626,379.466431 54.309090,379.181854 54.382553,378.897308 
	C54.553726,379.085785 54.724899,379.274292 54.860474,379.666687 
z"/>
</svg>