<svg version="1.1" id="Layer_1" xmlns="http://www.w3.org/2000/svg" xmlns:xlink="http://www.w3.org/1999/xlink" x="0px" y="0px"
	 width="100%" viewBox="0 0 500 500" enable-background="new 0 0 500 500" xml:space="preserve">
<path fill="#47704C" opacity="1.000000" stroke="none" 
	d="
M331.000000,501.000000 
	C220.666687,501.000000 110.833389,501.000000 1.000059,501.000000 
	C1.000039,334.333405 1.000039,167.666794 1.000020,1.000148 
	C167.666565,1.000099 334.333130,1.000099 500.999756,1.000049 
	C500.999847,167.666519 500.999847,334.333038 500.999939,500.999786 
	C444.500000,501.000000 388.000000,501.000000 331.000000,501.000000 
M155.761856,373.953583 
	C166.450729,374.965240 177.144119,376.865814 187.827591,376.811707 
	C213.564880,376.681366 239.387253,376.718231 265.001770,374.594604 
	C283.285278,373.078735 301.458801,368.877991 319.364868,364.562103 
	C336.234161,360.496094 352.319366,354.064850 366.240875,343.017700 
	C374.502472,336.461914 379.279144,325.294739 376.974792,315.574127 
	C375.005951,307.268738 369.218719,301.807892 362.837524,297.000031 
	C347.034668,285.093445 328.469757,279.522675 309.604248,275.169617 
	C286.406311,269.816925 262.899078,266.338654 239.004227,265.930481 
	C232.787445,265.824310 226.583694,264.956177 219.776138,264.388123 
	C219.776138,222.538940 219.776138,180.980225 219.776138,139.421906 
	C215.570938,139.421906 212.010773,139.421906 207.819183,139.421906 
	C207.819183,181.398895 207.819183,222.955917 207.819183,264.425598 
	C196.137039,265.310425 185.041504,265.692322 174.074234,267.084534 
	C155.775894,269.407318 137.413193,271.646545 119.348160,275.269928 
	C99.520676,279.246765 80.380005,285.789398 63.901497,298.118408 
	C56.567825,303.605347 51.139664,310.456909 50.926029,320.450500 
	C50.670235,332.416412 57.738754,339.885406 66.423203,346.055603 
	C83.173691,357.956665 102.560036,363.575836 122.307373,367.917969 
	C133.074554,370.285492 144.008362,371.895264 155.761856,373.953583 
M391.223938,171.984406 
	C397.624573,171.323425 404.048187,170.831253 410.420715,169.963715 
	C421.217194,168.493927 431.915344,166.582748 441.473114,160.825226 
	C446.516174,157.787308 450.575256,154.319870 450.059113,147.536102 
	C449.584045,141.292038 445.410553,138.467636 440.614838,135.855057 
	C428.581604,129.299698 415.319641,126.897110 402.035126,126.244385 
	C384.355652,125.375725 366.506683,124.910576 349.039032,129.065872 
	C339.893341,131.241501 330.622131,133.365250 323.817047,140.696472 
	C318.868134,146.027985 318.828400,150.362549 323.439178,156.045074 
	C328.068878,161.750931 334.611572,164.040939 341.254425,165.978195 
	C357.250977,170.643326 373.702240,171.878708 391.223938,171.984406 
z"/>
<path fill="#020000" opacity="1.000000" stroke="none" 
	d="
M155.314423,373.900208 
	C144.008362,371.895264 133.074554,370.285492 122.307373,367.917969 
	C102.560036,363.575836 83.173691,357.956665 66.423203,346.055603 
	C57.738754,339.885406 50.670235,332.416412 50.926029,320.450500 
	C51.139664,310.456909 56.567825,303.605347 63.901497,298.118408 
	C80.380005,285.789398 99.520676,279.246765 119.348160,275.269928 
	C137.413193,271.646545 155.775894,269.407318 174.074234,267.084534 
	C185.041504,265.692322 196.137039,265.310425 207.819183,264.425598 
	C207.819183,222.955917 207.819183,181.398895 207.819183,139.421906 
	C212.010773,139.421906 215.570938,139.421906 219.776138,139.421906 
	C219.776138,180.980225 219.776138,222.538940 219.776138,264.388123 
	C226.583694,264.956177 232.787445,265.824310 239.004227,265.930481 
	C262.899078,266.338654 286.406311,269.816925 309.604248,275.169617 
	C328.469757,279.522675 347.034668,285.093445 362.837524,297.000031 
	C369.218719,301.807892 375.005951,307.268738 376.974792,315.574127 
	C379.279144,325.294739 374.502472,336.461914 366.240875,343.017700 
	C352.319366,354.064850 336.234161,360.496094 319.364868,364.562103 
	C301.458801,368.877991 283.285278,373.078735 265.001770,374.594604 
	C239.387253,376.718231 213.564880,376.681366 187.827591,376.811707 
	C177.144119,376.865814 166.450729,374.965240 155.314423,373.900208 
M298.142639,282.375610 
	C272.477844,277.343781 246.592361,274.773529 220.336914,274.777618 
	C220.336914,278.967896 220.336914,282.520721 220.336914,286.888123 
	C227.466400,286.888123 234.281143,286.888123 242.034729,286.888123 
	C232.417358,301.043701 223.502563,314.165192 214.188095,327.874939 
	C204.730560,313.918884 195.757523,300.677795 186.113174,286.446106 
	C194.261688,286.446106 201.034744,286.446106 207.922852,286.446106 
	C207.922852,282.355499 207.922852,278.783051 207.922852,274.813995 
	C206.281952,274.813995 204.981537,274.737976 203.692276,274.825562 
	C188.083420,275.886017 172.413666,276.418640 156.883331,278.178925 
	C133.854813,280.789001 111.186737,285.402985 89.678497,294.444763 
	C80.283958,298.394104 71.178581,302.956970 64.435806,310.980927 
	C58.710606,317.793976 58.343693,324.678558 64.462608,331.178497 
	C68.720924,335.701996 73.853783,339.739746 79.281532,342.764130 
	C98.582535,353.518799 119.858711,358.340546 141.404022,361.990326 
	C175.382233,367.746246 209.608795,369.145294 243.966904,366.921783 
	C273.442810,365.014221 302.588165,361.026947 330.601105,351.086914 
	C342.246399,346.954773 353.606476,342.137543 362.460052,333.074951 
	C370.123596,325.230408 370.239563,317.223175 362.523834,309.401428 
	C359.291229,306.124359 355.448181,303.289917 351.483856,300.921936 
	C335.256226,291.228973 317.236847,286.511292 298.142639,282.375610 
z"/>
<path fill="#000000" opacity="1.000000" stroke="none" 
	d="
M390.749481,171.989853 
	C373.702240,171.878708 357.250977,170.643326 341.254425,165.978195 
	C334.611572,164.040939 328.068878,161.750931 323.439178,156.045074 
	C318.828400,150.362549 318.868134,146.027985 323.817047,140.696472 
	C330.622131,133.365250 339.893341,131.241501 349.039032,129.065872 
	C366.506683,124.910576 384.355652,125.375725 402.035126,126.244385 
	C415.319641,126.897110 428.581604,129.299698 440.614838,135.855057 
	C445.410553,138.467636 449.584045,141.292038 450.059113,147.536102 
	C450.575256,154.319870 446.516174,157.787308 441.473114,160.825226 
	C431.915344,166.582748 421.217194,168.493927 410.420715,169.963715 
	C404.048187,170.831253 397.624573,171.323425 390.749481,171.989853 
M376.429810,163.000000 
	C387.315826,162.662766 398.293427,163.072159 409.058716,161.751099 
	C417.607483,160.702042 426.021545,157.903748 434.233856,155.112488 
	C437.177277,154.112061 439.355225,150.859543 441.882538,148.634872 
	C439.143524,146.204742 436.795135,142.801880 433.596100,141.517181 
	C421.421204,136.627869 408.594482,134.149216 395.463440,134.077637 
	C385.193909,134.021652 374.820160,133.893234 364.678070,135.217010 
	C355.151062,136.460495 345.755249,139.203964 336.538605,142.053589 
	C333.460022,143.005463 331.112579,146.322205 328.430908,148.557907 
	C331.204712,150.984146 333.591919,154.402390 336.820862,155.660706 
	C349.188385,160.480362 362.110077,163.072372 376.429810,163.000000 
z"/>
<path fill="#EB2024" opacity="1.000000" stroke="none" 
	d="
M298.551147,282.490051 
	C317.236847,286.511292 335.256226,291.228973 351.483856,300.921936 
	C355.448181,303.289917 359.291229,306.124359 362.523834,309.401428 
	C370.239563,317.223175 370.123596,325.230408 362.460052,333.074951 
	C353.606476,342.137543 342.246399,346.954773 330.601105,351.086914 
	C302.588165,361.026947 273.442810,365.014221 243.966904,366.921783 
	C209.608795,369.145294 175.382233,367.746246 141.404022,361.990326 
	C119.858711,358.340546 98.582535,353.518799 79.281532,342.764130 
	C73.853783,339.739746 68.720924,335.701996 64.462608,331.178497 
	C58.343693,324.678558 58.710606,317.793976 64.435806,310.980927 
	C71.178581,302.956970 80.283958,298.394104 89.678497,294.444763 
	C111.186737,285.402985 133.854813,280.789001 156.883331,278.178925 
	C172.413666,276.418640 188.083420,275.886017 203.692276,274.825562 
	C204.981537,274.737976 206.281952,274.813995 207.922852,274.813995 
	C207.922852,278.783051 207.922852,282.355499 207.922852,286.446106 
	C201.034744,286.446106 194.261688,286.446106 186.113174,286.446106 
	C195.757523,300.677795 204.730560,313.918884 214.188095,327.874939 
	C223.502563,314.165192 232.417358,301.043701 242.034729,286.888123 
	C234.281143,286.888123 227.466400,286.888123 220.336914,286.888123 
	C220.336914,282.520721 220.336914,278.967896 220.336914,274.777618 
	C246.592361,274.773529 272.477844,277.343781 298.551147,282.490051 
z"/>
<path fill="#47704C" opacity="1.000000" stroke="none" 
	d="
M375.950745,163.000000 
	C362.110077,163.072372 349.188385,160.480362 336.820862,155.660706 
	C333.591919,154.402390 331.204712,150.984146 328.430908,148.557907 
	C331.112579,146.322205 333.460022,143.005463 336.538605,142.053589 
	C345.755249,139.203964 355.151062,136.460495 364.678070,135.217010 
	C374.820160,133.893234 385.193909,134.021652 395.463440,134.077637 
	C408.594482,134.149216 421.421204,136.627869 433.596100,141.517181 
	C436.795135,142.801880 439.143524,146.204742 441.882538,148.634888 
	C439.355225,150.859543 437.177277,154.112061 434.233856,155.112488 
	C426.021545,157.903748 417.607483,160.702042 409.058716,161.751099 
	C398.293427,163.072159 387.315826,162.662766 375.950745,163.000000 
z"/>
</svg>