<svg version="1.1" id="Layer_1" xmlns="http://www.w3.org/2000/svg" xmlns:xlink="http://www.w3.org/1999/xlink" x="0px" y="0px"
	 width="100%" viewBox="0 0 500 500" enable-background="new 0 0 500 500" xml:space="preserve">
<path fill="#47704C" opacity="1.000000" stroke="none" 
	d="
M276.000000,501.000000 
	C184.000015,501.000000 92.500046,501.000000 1.000049,501.000000 
	C1.000033,334.333405 1.000033,167.666794 1.000016,1.000139 
	C167.666565,1.000092 334.333130,1.000092 500.999756,1.000046 
	C500.999847,167.666519 500.999847,334.333038 500.999939,500.999786 
	C426.166656,501.000000 351.333344,501.000000 276.000000,501.000000 
M410.506317,290.936981 
	C410.289520,290.492371 410.161652,289.967407 409.843048,289.614777 
	C396.294586,274.621033 382.871613,259.509308 369.070099,244.751694 
	C365.412201,240.840347 360.549957,238.065811 356.313110,234.678741 
	C355.087006,233.698547 354.112701,232.403381 353.022949,231.252594 
	C354.238190,230.159744 355.274353,228.627228 356.698486,228.047241 
	C364.464417,224.884460 372.678467,222.636383 380.078156,218.800186 
	C393.868530,211.650894 405.524292,201.684143 415.177002,189.384735 
	C434.922699,164.224884 442.462982,135.571442 437.706146,104.290260 
	C433.434937,76.202583 419.999084,52.734818 397.408691,34.847847 
	C371.522614,14.351318 342.049286,7.531659 309.855072,12.273867 
	C292.140686,14.883201 276.111572,22.270529 261.771210,33.084206 
	C248.063156,43.421032 237.321564,56.386635 229.816269,71.718384 
	C220.669601,90.403122 216.916092,110.099808 218.781662,131.156418 
	C220.531723,150.909225 227.009674,168.884018 238.066345,184.688828 
	C253.275085,206.428833 274.538422,220.624756 300.192871,228.023651 
	C301.659607,228.446686 302.729248,230.246613 303.983704,231.405746 
	C302.708282,232.599030 301.582977,234.034393 300.127380,234.937103 
	C296.696228,237.065018 292.470673,238.296951 289.705750,241.039780 
	C282.304474,248.381912 275.634491,256.454041 268.431610,264.004944 
	C256.952759,276.038391 245.344223,287.950928 233.607712,299.732452 
	C231.996262,301.350067 229.438599,302.449799 227.145020,302.897064 
	C206.018524,307.016876 184.816330,310.754883 163.717789,315.008820 
	C154.874359,316.791840 146.916489,318.037872 141.042801,308.729706 
	C137.329773,302.845642 134.526306,297.339722 135.738739,289.983978 
	C136.836121,283.326263 136.932846,276.452637 136.909760,269.676117 
	C136.888397,263.405365 130.115891,257.222168 123.786232,256.998047 
	C114.804985,256.680115 105.568123,264.064880 102.011093,274.416687 
	C98.661346,284.165192 99.358269,293.838165 102.985558,303.672028 
	C101.282394,304.188019 99.861931,304.533600 98.503555,305.044312 
	C92.040016,307.474457 85.440598,309.618988 79.187439,312.509613 
	C73.870789,314.967346 69.584831,318.953735 67.251976,324.557800 
	C63.742935,332.987366 67.295738,339.631378 72.889023,345.573761 
	C67.099457,356.393890 69.878593,366.504272 80.086403,373.135071 
	C81.438278,374.013214 82.587029,375.926819 82.905991,377.543182 
	C84.088249,383.534363 86.579720,388.578033 92.395714,391.080383 
	C104.561172,396.314697 117.145973,396.106140 127.991638,389.000793 
	C138.003250,382.441772 144.137177,371.712555 149.728745,361.846741 
	C157.788956,360.213470 165.556839,358.532410 173.366898,357.077759 
	C193.491776,353.329376 213.661072,349.813995 233.756973,345.918396 
	C240.484360,344.614319 247.678299,343.585083 253.503448,340.349701 
	C259.496796,337.020935 264.274139,331.346130 269.234955,326.351593 
	C276.725037,318.810577 283.912598,310.969086 291.826080,302.625488 
	C287.615662,362.541595 283.478760,421.411377 279.255859,481.504944 
	C317.385925,482.096588 355.510132,482.688110 394.155090,483.287750 
	C392.349213,459.057068 390.610870,435.732574 388.849243,412.095337 
	C396.927460,416.408264 404.045105,420.528778 411.434357,424.084961 
	C425.635986,430.919739 440.256958,435.879608 456.497772,434.085358 
	C466.729187,432.954987 481.192993,422.946838 476.006256,408.401398 
	C472.196411,397.717224 468.979218,386.707214 463.993164,376.583527 
	C456.270233,360.902924 447.864655,345.480255 438.625488,330.647766 
	C430.189575,317.104828 420.261810,304.491150 410.506317,290.936981 
M55.633949,85.977318 
	C50.704277,89.214005 44.976192,91.688339 41.008595,95.843643 
	C32.338154,104.924240 28.717163,116.543129 28.053614,128.922958 
	C26.887651,150.676331 30.684753,171.335007 41.182896,190.779709 
	C47.250496,202.018143 54.976654,211.855469 63.623291,220.978546 
	C76.173134,234.219833 91.040382,244.543182 106.945938,253.415131 
	C112.300201,256.401703 117.473366,256.582794 122.855011,253.571045 
	C139.173462,244.438705 154.977417,234.736954 168.375549,221.330048 
	C181.879868,207.816895 192.849380,192.872757 199.132355,174.726440 
	C204.361420,159.623917 206.940659,144.304581 205.201447,128.133881 
	C203.955017,116.545082 200.936615,105.972458 192.911102,97.561371 
	C179.228653,83.221558 157.664764,82.514755 139.898361,92.657104 
	C131.056931,97.704430 123.852585,104.579086 118.400322,112.525604 
	C113.475342,107.042252 109.224960,101.228104 103.925583,96.620430 
	C90.151733,84.644478 74.503166,79.496178 55.633949,85.977318 
z"/>
<path fill="#010101" opacity="1.000000" stroke="none" 
	d="
M410.748932,291.202454 
	C420.261810,304.491150 430.189575,317.104828 438.625488,330.647766 
	C447.864655,345.480255 456.270233,360.902924 463.993164,376.583527 
	C468.979218,386.707214 472.196411,397.717224 476.006256,408.401398 
	C481.192993,422.946838 466.729187,432.954987 456.497772,434.085358 
	C440.256958,435.879608 425.635986,430.919739 411.434357,424.084961 
	C404.045105,420.528778 396.927460,416.408264 388.849243,412.095337 
	C390.610870,435.732574 392.349213,459.057068 394.155090,483.287750 
	C355.510132,482.688110 317.385925,482.096588 279.255859,481.504944 
	C283.478760,421.411377 287.615662,362.541595 291.826080,302.625488 
	C283.912598,310.969086 276.725037,318.810577 269.234955,326.351593 
	C264.274139,331.346130 259.496796,337.020935 253.503448,340.349701 
	C247.678299,343.585083 240.484360,344.614319 233.756973,345.918396 
	C213.661072,349.813995 193.491776,353.329376 173.366898,357.077759 
	C165.556839,358.532410 157.788956,360.213470 149.728745,361.846741 
	C144.137177,371.712555 138.003250,382.441772 127.991638,389.000793 
	C117.145973,396.106140 104.561172,396.314697 92.395714,391.080383 
	C86.579720,388.578033 84.088249,383.534363 82.905991,377.543182 
	C82.587029,375.926819 81.438278,374.013214 80.086403,373.135071 
	C69.878593,366.504272 67.099457,356.393890 72.889023,345.573761 
	C67.295738,339.631378 63.742935,332.987366 67.251976,324.557800 
	C69.584831,318.953735 73.870789,314.967346 79.187439,312.509613 
	C85.440598,309.618988 92.040016,307.474457 98.503555,305.044312 
	C99.861931,304.533600 101.282394,304.188019 102.985558,303.672028 
	C99.358269,293.838165 98.661346,284.165192 102.011093,274.416687 
	C105.568123,264.064880 114.804985,256.680115 123.786232,256.998047 
	C130.115891,257.222168 136.888397,263.405365 136.909760,269.676117 
	C136.932846,276.452637 136.836121,283.326263 135.738739,289.983978 
	C134.526306,297.339722 137.329773,302.845642 141.042801,308.729706 
	C146.916489,318.037872 154.874359,316.791840 163.717789,315.008820 
	C184.816330,310.754883 206.018524,307.016876 227.145020,302.897064 
	C229.438599,302.449799 231.996262,301.350067 233.607712,299.732452 
	C245.344223,287.950928 256.952759,276.038391 268.431610,264.004944 
	C275.634491,256.454041 282.304474,248.381912 289.705750,241.039780 
	C292.470673,238.296951 296.696228,237.065018 300.127380,234.937103 
	C301.582977,234.034393 302.708282,232.599030 303.983704,231.405746 
	C302.729248,230.246613 301.659607,228.446686 300.192871,228.023651 
	C274.538422,220.624756 253.275085,206.428833 238.066345,184.688828 
	C227.009674,168.884018 220.531723,150.909225 218.781662,131.156418 
	C216.916092,110.099808 220.669601,90.403122 229.816269,71.718384 
	C237.321564,56.386635 248.063156,43.421032 261.771210,33.084206 
	C276.111572,22.270529 292.140686,14.883201 309.855072,12.273867 
	C342.049286,7.531659 371.522614,14.351318 397.408691,34.847847 
	C419.999084,52.734818 433.434937,76.202583 437.706146,104.290260 
	C442.462982,135.571442 434.922699,164.224884 415.177002,189.384735 
	C405.524292,201.684143 393.868530,211.650894 380.078156,218.800186 
	C372.678467,222.636383 364.464417,224.884460 356.698486,228.047241 
	C355.274353,228.627228 354.238190,230.159744 353.022949,231.252594 
	C354.112701,232.403381 355.087006,233.698547 356.313110,234.678741 
	C360.549957,238.065811 365.412201,240.840347 369.070099,244.751694 
	C382.871613,259.509308 396.294586,274.621033 409.843048,289.614777 
	C410.161652,289.967407 410.289520,290.492371 410.748932,291.202454 
M407.643188,166.083633 
	C418.850311,145.921906 422.409302,124.432030 417.403717,101.967506 
	C407.035248,55.434708 365.473846,25.920677 318.021454,30.870251 
	C265.710175,36.326637 228.152710,88.239433 239.520844,139.375687 
	C247.879410,176.974380 277.200043,205.152649 313.930725,210.886475 
	C351.606964,216.767929 387.194366,199.909210 407.643188,166.083633 
M359.126343,285.094116 
	C349.224365,287.837280 351.183960,296.178894 351.032623,304.601379 
	C342.587982,294.628540 335.081421,285.582184 327.343689,276.738068 
	C325.079681,274.150330 322.436066,271.618896 319.452606,270.021423 
	C316.946564,268.679596 312.840393,267.379730 311.003632,268.537567 
	C309.046265,269.771484 308.405243,273.875488 308.187164,276.800781 
	C308.050751,278.630981 309.452179,280.827850 310.685944,282.466980 
	C318.294159,292.574982 326.041321,302.578583 333.764984,312.599457 
	C335.758087,315.185303 337.236481,317.997711 333.961975,320.377777 
	C330.833832,322.651428 328.488739,320.761353 326.471222,318.056549 
	C322.416260,312.620148 318.201111,307.303223 313.983887,301.848755 
	C308.750397,308.767456 308.736694,309.582153 313.726044,315.802277 
	C316.643005,319.438751 319.958069,322.818634 322.393280,326.748199 
	C323.381256,328.342407 323.384674,331.800537 322.287140,333.160156 
	C320.291077,335.632812 317.539154,334.633423 315.519928,332.245605 
	C313.612518,329.990021 311.675446,327.759552 309.751404,325.518036 
	C310.354279,331.971100 310.316711,339.160645 313.742310,343.784668 
	C322.547668,355.670532 333.061005,366.258057 346.091339,373.788452 
	C347.311340,374.493469 349.930939,374.092407 351.188141,373.200470 
	C358.509003,368.006500 365.221222,361.841675 372.907349,357.307098 
	C380.689087,352.716095 380.816650,346.293091 379.682922,339.034332 
	C379.201477,335.951660 378.294739,332.895355 377.240356,329.949066 
	C372.335968,316.244812 366.583099,302.727722 368.922882,287.602081 
	C368.965515,287.326324 368.704376,287.003540 368.314728,286.021698 
	C365.759216,285.719391 362.860596,285.376526 359.126343,285.094116 
M92.896004,327.578156 
	C92.453011,325.365570 90.948166,322.373138 91.848549,321.147156 
	C92.865364,319.762634 96.187195,319.238434 98.250420,319.643860 
	C101.613754,320.304688 104.969009,321.676544 107.954163,323.396606 
	C110.731979,324.997253 112.513824,324.526733 114.966507,322.748077 
	C124.486458,315.844574 131.598221,316.611053 139.791931,324.743835 
	C138.974396,322.571747 138.074722,320.326324 136.494690,318.773041 
	C127.706055,310.133240 123.796043,299.915283 125.581734,287.591827 
	C126.225128,283.151672 126.861717,278.666290 126.880630,274.198883 
	C126.889885,272.012573 125.975647,268.463379 124.589882,267.954803 
	C122.607285,267.227203 119.456757,268.162262 117.460159,269.424042 
	C115.500839,270.662262 113.995705,273.017303 112.925018,275.193970 
	C108.505920,284.177856 108.858513,293.177551 113.662834,301.931519 
	C117.947289,309.738220 117.138443,311.405151 108.583328,313.143188 
	C98.480103,315.195740 88.356857,317.449799 80.116982,324.223175 
	C74.488312,328.850067 74.529922,334.099030 80.328323,338.293396 
	C88.880241,344.479553 98.079102,349.239807 108.887543,350.288452 
	C119.153450,351.284485 129.356873,343.333984 130.684143,332.960541 
	C131.208664,328.861145 128.936340,326.664124 125.077728,328.280731 
	C121.954399,329.589294 119.456314,332.326172 116.407288,333.899170 
	C114.460175,334.903656 111.676804,335.887665 109.855507,335.237122 
	C104.276291,333.244232 98.980614,330.457550 92.896004,327.578156 
M404.124451,351.408966 
	C397.065674,340.738617 390.006897,330.068268 382.948120,319.397949 
	C382.219391,323.389618 382.753143,326.799957 382.972595,330.230377 
	C383.411530,337.092773 383.408020,343.996307 384.168488,350.818085 
	C384.421722,353.089813 385.918671,355.963257 387.760559,357.188995 
	C395.635620,362.429688 403.851990,367.157562 411.943878,372.072449 
	C412.284698,371.812012 412.625488,371.551544 412.966278,371.291107 
	C410.151978,364.873535 407.337646,358.455933 404.124451,351.408966 
M80.687523,359.436584 
	C82.932037,361.276154 84.896523,363.919617 87.469612,364.815887 
	C98.513382,368.662750 109.747993,367.451538 120.878227,364.896942 
	C125.033325,363.943268 127.262962,361.483185 125.676529,356.507935 
	C118.713470,361.177032 111.060356,360.982178 103.557510,359.051147 
	C96.103745,357.132782 88.885376,354.299744 80.811310,351.617889 
	C80.655609,353.748901 80.472366,356.256836 80.687523,359.436584 
M95.455627,381.162506 
	C107.134483,388.321625 126.721596,383.085449 128.143112,373.838745 
	C116.914055,375.076721 105.299477,376.357239 93.466766,377.661774 
	C93.683678,378.108185 94.300125,379.376831 95.455627,381.162506 
M139.530396,358.854462 
	C141.571823,353.231903 140.743271,347.999390 137.065430,342.125488 
	C135.965836,345.250580 134.396133,347.637726 134.447937,349.989166 
	C134.561523,355.144318 135.496628,360.281372 136.042160,364.961639 
	C135.889084,365.142609 136.491013,364.600922 136.880951,363.935089 
	C137.714951,362.511108 138.439301,361.022888 139.530396,358.854462 
z"/>
<path fill="#010000" opacity="1.000000" stroke="none" 
	d="
M56.024040,85.901604 
	C74.503166,79.496178 90.151733,84.644478 103.925583,96.620430 
	C109.224960,101.228104 113.475342,107.042252 118.400322,112.525604 
	C123.852585,104.579086 131.056931,97.704430 139.898361,92.657104 
	C157.664764,82.514755 179.228653,83.221558 192.911102,97.561371 
	C200.936615,105.972458 203.955017,116.545082 205.201447,128.133881 
	C206.940659,144.304581 204.361420,159.623917 199.132355,174.726440 
	C192.849380,192.872757 181.879868,207.816895 168.375549,221.330048 
	C154.977417,234.736954 139.173462,244.438705 122.855011,253.571045 
	C117.473366,256.582794 112.300201,256.401703 106.945938,253.415131 
	C91.040382,244.543182 76.173134,234.219833 63.623291,220.978546 
	C54.976654,211.855469 47.250496,202.018143 41.182896,190.779709 
	C30.684753,171.335007 26.887651,150.676331 28.053614,128.922958 
	C28.717163,116.543129 32.338154,104.924240 41.008595,95.843643 
	C44.976192,91.688339 50.704277,89.214005 56.024040,85.901604 
M184.485001,167.944672 
	C189.077240,154.681000 190.434952,141.067978 188.995178,127.129761 
	C187.402176,111.708183 177.832886,101.805885 164.360809,102.046944 
	C154.349289,102.226082 145.549850,106.265938 139.223236,113.636276 
	C133.468323,120.340622 129.062790,128.271927 124.549324,135.948624 
	C121.645370,140.887802 116.739052,143.254684 112.769234,140.083008 
	C110.872353,138.567490 109.536064,135.920334 108.745995,133.522141 
	C104.830154,121.635948 98.657173,111.428886 87.877197,104.582977 
	C69.649117,93.007111 50.356167,100.826340 45.641338,121.897850 
	C42.294418,136.855881 43.545464,151.787827 48.365936,166.220337 
	C59.455757,199.423325 83.550705,221.141022 112.973038,237.895706 
	C114.190819,238.589188 116.587944,238.291245 117.912781,237.536911 
	C124.990425,233.506958 132.202972,229.606644 138.814301,224.884995 
	C159.108932,210.391022 175.659882,192.735458 184.485001,167.944672 
z"/>
<path fill="#FDFDFD" opacity="1.000000" stroke="none" 
	d="
M407.435059,166.386566 
	C387.194366,199.909210 351.606964,216.767929 313.930725,210.886475 
	C277.200043,205.152649 247.879410,176.974380 239.520844,139.375687 
	C228.152710,88.239433 265.710175,36.326637 318.021454,30.870251 
	C365.473846,25.920677 407.035248,55.434708 417.403717,101.967506 
	C422.409302,124.432030 418.850311,145.921906 407.435059,166.386566 
M338.811218,179.599380 
	C328.129120,182.957123 318.475677,180.289291 309.498291,174.359131 
	C306.183746,172.169678 303.254303,169.405807 300.021149,167.082092 
	C297.233734,165.078751 294.241425,165.216522 291.891266,167.715866 
	C289.370178,170.396988 289.386292,173.556534 291.996460,176.183929 
	C294.328705,178.531570 296.931976,180.652481 299.609772,182.607620 
	C321.409668,198.524399 347.081665,196.450104 364.411346,177.439850 
	C367.764435,173.761627 368.180298,169.833618 365.191162,167.424240 
	C361.669434,164.585556 358.855682,166.009720 355.547699,168.644043 
	C350.559174,172.616669 344.905548,175.754120 338.811218,179.599380 
M282.530701,137.141647 
	C288.313629,140.527496 293.947754,140.259659 299.218140,136.152496 
	C303.520996,132.799332 305.377869,126.525589 303.643860,121.296608 
	C301.748108,115.579865 297.689697,112.263893 291.693939,111.439644 
	C285.926147,110.646744 280.064056,113.968521 277.494049,119.424019 
	C274.612030,125.541954 276.112183,131.425720 282.530701,137.141647 
M363.502716,111.869423 
	C355.517151,114.798851 351.508331,121.553131 353.456329,128.796188 
	C355.496185,136.380722 362.615936,140.706207 370.327209,139.045868 
	C377.497162,137.502060 382.204468,130.312958 380.946442,122.827888 
	C379.675079,115.263351 372.810822,110.671463 363.502716,111.869423 
z"/>
<path fill="#FCFCFC" opacity="1.000000" stroke="none" 
	d="
M359.544128,285.063904 
	C362.860596,285.376526 365.759216,285.719391 368.314728,286.021698 
	C368.704376,287.003540 368.965515,287.326324 368.922882,287.602081 
	C366.583099,302.727722 372.335968,316.244812 377.240356,329.949066 
	C378.294739,332.895355 379.201477,335.951660 379.682922,339.034332 
	C380.816650,346.293091 380.689087,352.716095 372.907349,357.307098 
	C365.221222,361.841675 358.509003,368.006500 351.188141,373.200470 
	C349.930939,374.092407 347.311340,374.493469 346.091339,373.788452 
	C333.061005,366.258057 322.547668,355.670532 313.742310,343.784668 
	C310.316711,339.160645 310.354279,331.971100 309.751404,325.518036 
	C311.675446,327.759552 313.612518,329.990021 315.519928,332.245605 
	C317.539154,334.633423 320.291077,335.632812 322.287140,333.160156 
	C323.384674,331.800537 323.381256,328.342407 322.393280,326.748199 
	C319.958069,322.818634 316.643005,319.438751 313.726044,315.802277 
	C308.736694,309.582153 308.750397,308.767456 313.983887,301.848755 
	C318.201111,307.303223 322.416260,312.620148 326.471222,318.056549 
	C328.488739,320.761353 330.833832,322.651428 333.961975,320.377777 
	C337.236481,317.997711 335.758087,315.185303 333.764984,312.599457 
	C326.041321,302.578583 318.294159,292.574982 310.685944,282.466980 
	C309.452179,280.827850 308.050751,278.630981 308.187164,276.800781 
	C308.405243,273.875488 309.046265,269.771484 311.003632,268.537567 
	C312.840393,267.379730 316.946564,268.679596 319.452606,270.021423 
	C322.436066,271.618896 325.079681,274.150330 327.343689,276.738068 
	C335.081421,285.582184 342.587982,294.628540 351.032623,304.601379 
	C351.183960,296.178894 349.224365,287.837280 359.544128,285.063904 
z"/>
<path fill="#F8F8F8" opacity="1.000000" stroke="none" 
	d="
M93.235336,327.778870 
	C98.980614,330.457550 104.276291,333.244232 109.855507,335.237122 
	C111.676804,335.887665 114.460175,334.903656 116.407288,333.899170 
	C119.456314,332.326172 121.954399,329.589294 125.077728,328.280731 
	C128.936340,326.664124 131.208664,328.861145 130.684143,332.960541 
	C129.356873,343.333984 119.153450,351.284485 108.887543,350.288452 
	C98.079102,349.239807 88.880241,344.479553 80.328323,338.293396 
	C74.529922,334.099030 74.488312,328.850067 80.116982,324.223175 
	C88.356857,317.449799 98.480103,315.195740 108.583328,313.143188 
	C117.138443,311.405151 117.947289,309.738220 113.662834,301.931519 
	C108.858513,293.177551 108.505920,284.177856 112.925018,275.193970 
	C113.995705,273.017303 115.500839,270.662262 117.460159,269.424042 
	C119.456757,268.162262 122.607285,267.227203 124.589882,267.954803 
	C125.975647,268.463379 126.889885,272.012573 126.880630,274.198883 
	C126.861717,278.666290 126.225128,283.151672 125.581734,287.591827 
	C123.796043,299.915283 127.706055,310.133240 136.494690,318.773041 
	C138.074722,320.326324 138.974396,322.571747 139.791931,324.743835 
	C131.598221,316.611053 124.486458,315.844574 114.966507,322.748077 
	C112.513824,324.526733 110.731979,324.997253 107.954163,323.396606 
	C104.969009,321.676544 101.613754,320.304688 98.250420,319.643860 
	C96.187195,319.238434 92.865364,319.762634 91.848549,321.147156 
	C90.948166,322.373138 92.453011,325.365570 93.235336,327.778870 
z"/>
<path fill="#47704C" opacity="1.000000" stroke="none" 
	d="
M404.323914,351.723663 
	C407.337646,358.455933 410.151978,364.873535 412.966278,371.291107 
	C412.625488,371.551544 412.284698,371.812012 411.943878,372.072449 
	C403.851990,367.157562 395.635620,362.429688 387.760559,357.188995 
	C385.918671,355.963257 384.421722,353.089813 384.168488,350.818085 
	C383.408020,343.996307 383.411530,337.092773 382.972595,330.230377 
	C382.753143,326.799957 382.219391,323.389618 382.948120,319.397949 
	C390.006897,330.068268 397.065674,340.738617 404.323914,351.723663 
z"/>
<path fill="#F5F5F5" opacity="1.000000" stroke="none" 
	d="
M80.488327,359.100647 
	C80.472366,356.256836 80.655609,353.748901 80.811310,351.617889 
	C88.885376,354.299744 96.103745,357.132782 103.557510,359.051147 
	C111.060356,360.982178 118.713470,361.177032 125.676529,356.507935 
	C127.262962,361.483185 125.033325,363.943268 120.878227,364.896942 
	C109.747993,367.451538 98.513382,368.662750 87.469612,364.815887 
	C84.896523,363.919617 82.932037,361.276154 80.488327,359.100647 
z"/>
<path fill="#F3F3F3" opacity="1.000000" stroke="none" 
	d="
M95.186096,380.903992 
	C94.300125,379.376831 93.683678,378.108185 93.466766,377.661774 
	C105.299477,376.357239 116.914055,375.076721 128.143112,373.838745 
	C126.721596,383.085449 107.134483,388.321625 95.186096,380.903992 
z"/>
<path fill="#EEEEEE" opacity="1.000000" stroke="none" 
	d="
M139.369476,359.207733 
	C138.439301,361.022888 137.714951,362.511108 136.880951,363.935089 
	C136.491013,364.600922 135.889084,365.142609 136.042160,364.961639 
	C135.496628,360.281372 134.561523,355.144318 134.447937,349.989166 
	C134.396133,347.637726 135.965836,345.250580 137.065430,342.125488 
	C140.743271,347.999390 141.571823,353.231903 139.369476,359.207733 
z"/>
<path fill="#DF1206" opacity="1.000000" stroke="none" 
	d="
M184.320953,168.302521 
	C175.659882,192.735458 159.108932,210.391022 138.814301,224.884995 
	C132.202972,229.606644 124.990425,233.506958 117.912781,237.536911 
	C116.587944,238.291245 114.190819,238.589188 112.973038,237.895706 
	C83.550705,221.141022 59.455757,199.423325 48.365936,166.220337 
	C43.545464,151.787827 42.294418,136.855881 45.641338,121.897850 
	C50.356167,100.826340 69.649117,93.007111 87.877197,104.582977 
	C98.657173,111.428886 104.830154,121.635948 108.745995,133.522141 
	C109.536064,135.920334 110.872353,138.567490 112.769234,140.083008 
	C116.739052,143.254684 121.645370,140.887802 124.549324,135.948624 
	C129.062790,128.271927 133.468323,120.340622 139.223236,113.636276 
	C145.549850,106.265938 154.349289,102.226082 164.360809,102.046944 
	C177.832886,101.805885 187.402176,111.708183 188.995178,127.129761 
	C190.434952,141.067978 189.077240,154.681000 184.320953,168.302521 
z"/>
<path fill="#050505" opacity="1.000000" stroke="none" 
	d="
M339.172913,179.422958 
	C344.905548,175.754120 350.559174,172.616669 355.547699,168.644043 
	C358.855682,166.009720 361.669434,164.585556 365.191162,167.424240 
	C368.180298,169.833618 367.764435,173.761627 364.411346,177.439850 
	C347.081665,196.450104 321.409668,198.524399 299.609772,182.607620 
	C296.931976,180.652481 294.328705,178.531570 291.996460,176.183929 
	C289.386292,173.556534 289.370178,170.396988 291.891266,167.715866 
	C294.241425,165.216522 297.233734,165.078751 300.021149,167.082092 
	C303.254303,169.405807 306.183746,172.169678 309.498291,174.359131 
	C318.475677,180.289291 328.129120,182.957123 339.172913,179.422958 
z"/>
<path fill="#040404" opacity="1.000000" stroke="none" 
	d="
M282.218597,136.935913 
	C276.112183,131.425720 274.612030,125.541954 277.494049,119.424019 
	C280.064056,113.968521 285.926147,110.646744 291.693939,111.439644 
	C297.689697,112.263893 301.748108,115.579865 303.643860,121.296608 
	C305.377869,126.525589 303.520996,132.799332 299.218140,136.152496 
	C293.947754,140.259659 288.313629,140.527496 282.218597,136.935913 
z"/>
<path fill="#050505" opacity="1.000000" stroke="none" 
	d="
M363.881622,111.767578 
	C372.810822,110.671463 379.675079,115.263351 380.946442,122.827888 
	C382.204468,130.312958 377.497162,137.502060 370.327209,139.045868 
	C362.615936,140.706207 355.496185,136.380722 353.456329,128.796188 
	C351.508331,121.553131 355.517151,114.798851 363.881622,111.767578 
z"/>
</svg>