<svg version="1.1" id="Layer_1" xmlns="http://www.w3.org/2000/svg" xmlns:xlink="http://www.w3.org/1999/xlink" x="0px" y="0px"
	 width="100%" viewBox="0 0 500 500" enable-background="new 0 0 500 500" xml:space="preserve">
<path fill="#47704C" opacity="1.000000" stroke="none" 
	d="
M281.000000,501.000000 
	C187.333359,501.000000 94.166710,501.000000 1.000050,501.000000 
	C1.000033,334.333405 1.000033,167.666794 1.000017,1.000139 
	C167.666565,1.000093 334.333130,1.000093 500.999756,1.000046 
	C500.999847,167.666519 500.999847,334.333038 500.999939,500.999786 
	C427.833344,501.000000 354.666656,501.000000 281.000000,501.000000 
M261.963989,24.477844 
	C256.275299,23.605846 250.572479,22.816563 244.900787,21.845406 
	C231.192825,19.498211 217.901566,21.498566 204.994965,26.056671 
	C182.496078,34.002384 167.487396,50.296284 157.097687,71.049835 
	C149.970566,85.286354 146.031662,100.457794 144.777130,116.533600 
	C143.691620,130.443680 144.993378,143.364624 152.873505,155.387177 
	C144.743698,161.303116 139.187408,169.286880 137.102112,179.066788 
	C133.477631,196.065323 137.070633,211.735794 146.988907,226.118896 
	C163.085144,249.461060 190.665665,255.798264 214.968292,241.497467 
	C216.023087,240.876801 217.506317,240.024902 218.446411,240.332108 
	C222.884598,241.782333 227.203033,243.598999 232.740173,245.739655 
	C230.017670,248.066956 227.915390,249.706009 225.991791,251.533188 
	C208.777084,267.885254 192.604599,285.216461 178.956955,304.672089 
	C168.081421,320.175903 157.126541,335.731232 147.737854,352.139709 
	C138.921432,367.548035 131.769928,383.954163 124.604263,400.237427 
	C122.096870,405.935211 120.200226,412.712341 120.746895,418.750122 
	C121.531540,427.416077 132.527222,434.510803 141.833237,435.065216 
	C159.740875,436.132141 175.521896,429.745667 190.831619,421.643951 
	C196.847916,418.460205 202.599854,414.776886 209.162430,410.914856 
	C208.314224,434.514709 207.489059,457.473724 206.657166,480.619507 
	C240.628311,480.619507 273.672821,480.619507 307.273529,480.619507 
	C306.805786,477.747162 306.188690,475.350677 306.056915,472.927826 
	C304.987030,453.257141 303.952179,433.584198 303.024780,413.906372 
	C302.556305,403.965759 302.374329,394.011963 301.983093,384.067261 
	C301.722778,377.450653 301.375000,370.836182 300.955688,364.227783 
	C300.799744,361.770020 300.210083,359.340698 300.035980,356.882996 
	C299.873901,354.595306 300.001373,352.287109 300.001373,348.928894 
	C309.023682,370.355072 316.127899,390.952209 317.027679,413.229034 
	C317.809204,432.578644 318.954346,451.914185 320.036835,471.250427 
	C320.216736,474.464111 320.898132,477.649750 321.319519,480.647156 
	C335.820099,480.647156 349.727692,480.647156 363.486786,480.647156 
	C363.309418,478.010895 363.095276,475.723236 363.011688,473.430817 
	C362.636871,463.152008 362.577942,452.852966 361.883453,442.596558 
	C360.813293,426.792450 359.516907,410.996826 357.912170,395.238739 
	C357.166504,387.917023 356.256622,380.442261 354.043274,373.474548 
	C349.207336,358.250854 344.102661,343.053040 337.988068,328.308990 
	C329.014709,306.671570 319.355927,285.301727 309.370270,264.109497 
	C305.757568,256.442352 302.316406,248.056702 293.249603,243.703171 
	C299.879547,241.562607 306.342224,239.403854 312.871002,239.180878 
	C327.376282,238.685501 341.537598,236.670547 354.806061,230.849564 
	C375.627045,221.715210 384.479095,207.346466 380.079742,183.572189 
	C378.278259,173.837067 374.338043,164.497726 371.707489,156.058456 
	C374.241394,150.297623 377.230103,144.993362 378.929626,139.304001 
	C381.773285,129.784424 382.359741,120.077553 381.177338,109.994934 
	C378.621643,88.201881 371.881165,68.677765 355.653717,53.051704 
	C343.336975,41.191399 328.569397,35.502357 311.845825,35.152328 
	C302.518372,34.957096 293.158447,36.315002 284.703461,36.910313 
	C281.422852,34.065933 278.544525,30.659744 274.895142,28.662001 
	C271.235687,26.658720 266.807129,26.060482 261.963989,24.477844 
z"/>
<path fill="#000000" opacity="1.000000" stroke="none" 
	d="
M262.339813,24.662144 
	C266.807129,26.060482 271.235687,26.658720 274.895142,28.662001 
	C278.544525,30.659744 281.422852,34.065933 284.703461,36.910313 
	C293.158447,36.315002 302.518372,34.957096 311.845825,35.152328 
	C328.569397,35.502357 343.336975,41.191399 355.653717,53.051704 
	C371.881165,68.677765 378.621643,88.201881 381.177338,109.994934 
	C382.359741,120.077553 381.773285,129.784424 378.929626,139.304001 
	C377.230103,144.993362 374.241394,150.297623 371.707489,156.058456 
	C374.338043,164.497726 378.278259,173.837067 380.079742,183.572189 
	C384.479095,207.346466 375.627045,221.715210 354.806061,230.849564 
	C341.537598,236.670547 327.376282,238.685501 312.871002,239.180878 
	C306.342224,239.403854 299.879547,241.562607 293.249603,243.703171 
	C302.316406,248.056702 305.757568,256.442352 309.370270,264.109497 
	C319.355927,285.301727 329.014709,306.671570 337.988068,328.308990 
	C344.102661,343.053040 349.207336,358.250854 354.043274,373.474548 
	C356.256622,380.442261 357.166504,387.917023 357.912170,395.238739 
	C359.516907,410.996826 360.813293,426.792450 361.883453,442.596558 
	C362.577942,452.852966 362.636871,463.152008 363.011688,473.430817 
	C363.095276,475.723236 363.309418,478.010895 363.486786,480.647156 
	C349.727692,480.647156 335.820099,480.647156 321.319519,480.647156 
	C320.898132,477.649750 320.216736,474.464111 320.036835,471.250427 
	C318.954346,451.914185 317.809204,432.578644 317.027679,413.229034 
	C316.127899,390.952209 309.023682,370.355072 300.001373,348.928894 
	C300.001373,352.287109 299.873901,354.595306 300.035980,356.882996 
	C300.210083,359.340698 300.799744,361.770020 300.955688,364.227783 
	C301.375000,370.836182 301.722778,377.450653 301.983093,384.067261 
	C302.374329,394.011963 302.556305,403.965759 303.024780,413.906372 
	C303.952179,433.584198 304.987030,453.257141 306.056915,472.927826 
	C306.188690,475.350677 306.805786,477.747162 307.273529,480.619507 
	C273.672821,480.619507 240.628311,480.619507 206.657166,480.619507 
	C207.489059,457.473724 208.314224,434.514709 209.162430,410.914856 
	C202.599854,414.776886 196.847916,418.460205 190.831619,421.643951 
	C175.521896,429.745667 159.740875,436.132141 141.833237,435.065216 
	C132.527222,434.510803 121.531540,427.416077 120.746895,418.750122 
	C120.200226,412.712341 122.096870,405.935211 124.604263,400.237427 
	C131.769928,383.954163 138.921432,367.548035 147.737854,352.139709 
	C157.126541,335.731232 168.081421,320.175903 178.956955,304.672089 
	C192.604599,285.216461 208.777084,267.885254 225.991791,251.533188 
	C227.915390,249.706009 230.017670,248.066956 232.740173,245.739655 
	C227.203033,243.598999 222.884598,241.782333 218.446411,240.332108 
	C217.506317,240.024902 216.023087,240.876801 214.968292,241.497467 
	C190.665665,255.798264 163.085144,249.461060 146.988907,226.118896 
	C137.070633,211.735794 133.477631,196.065323 137.102112,179.066788 
	C139.187408,169.286880 144.743698,161.303116 152.873505,155.387177 
	C144.993378,143.364624 143.691620,130.443680 144.777130,116.533600 
	C146.031662,100.457794 149.970566,85.286354 157.097687,71.049835 
	C167.487396,50.296284 182.496078,34.002384 204.994965,26.056671 
	C217.901566,21.498566 231.192825,19.498211 244.900787,21.845406 
	C250.572479,22.816563 256.275299,23.605846 262.339813,24.662144 
M212.987961,348.893372 
	C211.983704,354.514618 214.450577,358.044800 219.161819,361.082397 
	C226.415161,365.759094 233.331573,370.985046 240.171326,376.262604 
	C242.727005,378.234528 244.892838,378.584412 247.229645,376.541077 
	C255.471878,369.333832 263.598419,361.994019 271.861267,354.810760 
	C276.337494,350.919434 278.831604,346.043793 279.679108,340.282349 
	C281.505127,327.868866 284.820251,315.189178 274.229919,305.421417 
	C277.988800,296.734497 281.685699,288.457703 285.145599,280.083038 
	C286.891357,275.857513 286.355438,271.547546 282.444977,268.948914 
	C278.340546,266.221405 274.618347,268.982483 271.885712,271.826202 
	C268.220367,275.640503 265.133545,280.020325 261.888184,284.226654 
	C255.239548,292.844025 248.650772,301.507568 242.186783,309.956818 
	C240.932892,304.766907 240.670120,299.481750 238.373322,295.318817 
	C235.934219,290.898010 230.131989,291.019073 224.025604,294.204834 
	C224.025604,299.336121 224.083771,304.497681 223.982880,309.656128 
	C223.959000,310.877411 223.800552,312.516327 223.027252,313.237976 
	C214.940063,320.785034 213.254562,330.620087 212.220184,340.352203 
	C212.220184,334.540375 212.220184,328.728516 212.220184,322.853516 
	C202.192566,340.254761 187.124863,354.898773 182.233170,375.651154 
	C187.430725,372.776642 192.272491,369.941956 197.254318,367.379578 
	C205.212479,363.286346 212.737869,358.953674 212.492569,348.334717 
	C212.490219,348.233185 212.735672,348.125885 212.987961,348.893372 
M193.979828,177.615051 
	C194.975266,184.364838 195.855438,191.134979 197.041489,197.851105 
	C197.366684,199.692520 198.271576,201.656616 199.478394,203.084366 
	C229.048630,238.067963 285.963501,239.763275 317.712280,206.553040 
	C319.079773,205.122589 319.781921,202.587173 319.906586,200.513153 
	C320.743958,186.585999 320.871643,172.599747 322.191711,158.724213 
	C322.984711,150.389053 325.516113,142.219299 327.302307,133.805466 
	C302.842285,126.736794 278.815552,119.291870 262.746979,97.219421 
	C242.992706,120.932343 216.706543,133.400909 188.043808,141.965652 
	C190.039139,153.811615 191.970230,165.276199 193.979828,177.615051 
z"/>
<path fill="#FCFCFC" opacity="1.000000" stroke="none" 
	d="
M193.940582,177.177917 
	C191.970230,165.276199 190.039139,153.811615 188.043808,141.965652 
	C216.706543,133.400909 242.992706,120.932343 262.746979,97.219421 
	C278.815552,119.291870 302.842285,126.736794 327.302307,133.805466 
	C325.516113,142.219299 322.984711,150.389053 322.191711,158.724213 
	C320.871643,172.599747 320.743958,186.585999 319.906586,200.513153 
	C319.781921,202.587173 319.079773,205.122589 317.712280,206.553040 
	C285.963501,239.763275 229.048630,238.067963 199.478394,203.084366 
	C198.271576,201.656616 197.366684,199.692520 197.041489,197.851105 
	C195.855438,191.134979 194.975266,184.364838 193.940582,177.177917 
M231.369308,190.833817 
	C225.070251,192.087006 223.083389,196.578171 227.209793,201.032379 
	C246.259003,221.594757 272.888458,221.456558 294.053345,200.417664 
	C296.343109,198.141510 296.495667,194.710800 293.954437,192.922485 
	C292.094604,191.613678 288.829193,191.509171 286.430664,192.012802 
	C284.551208,192.407455 283.071747,194.597610 281.360382,195.919937 
	C265.485321,208.186249 250.729233,207.379486 236.222458,193.552002 
	C235.071045,192.454498 233.519577,191.776688 231.369308,190.833817 
M304.241699,161.240295 
	C301.882812,153.544373 295.715973,149.591690 288.889740,151.400375 
	C282.372437,153.127213 278.153656,159.508743 279.390320,165.769730 
	C280.761780,172.713043 286.489441,176.915741 293.548920,176.158707 
	C300.430023,175.420776 304.575958,169.996582 304.241699,161.240295 
M216.104279,164.337830 
	C217.776932,172.294174 222.162415,176.352066 228.993057,176.263840 
	C234.961670,176.186737 239.991272,172.090103 241.104797,166.398804 
	C242.519897,159.166046 238.080017,152.503159 230.958115,151.171844 
	C223.543106,149.785767 217.527313,154.778625 216.104279,164.337830 
z"/>
<path fill="#FDFDFD" opacity="1.000000" stroke="none" 
	d="
M212.795654,340.938721 
	C213.254562,330.620087 214.940063,320.785034 223.027252,313.237976 
	C223.800552,312.516327 223.959000,310.877411 223.982880,309.656128 
	C224.083771,304.497681 224.025604,299.336121 224.025604,294.204834 
	C230.131989,291.019073 235.934219,290.898010 238.373322,295.318817 
	C240.670120,299.481750 240.932892,304.766907 242.186783,309.956818 
	C248.650772,301.507568 255.239548,292.844025 261.888184,284.226654 
	C265.133545,280.020325 268.220367,275.640503 271.885712,271.826202 
	C274.618347,268.982483 278.340546,266.221405 282.444977,268.948914 
	C286.355438,271.547546 286.891357,275.857513 285.145599,280.083038 
	C281.685699,288.457703 277.988800,296.734497 274.229919,305.421417 
	C284.820251,315.189178 281.505127,327.868866 279.679108,340.282349 
	C278.831604,346.043793 276.337494,350.919434 271.861267,354.810760 
	C263.598419,361.994019 255.471878,369.333832 247.229645,376.541077 
	C244.892838,378.584412 242.727005,378.234528 240.171326,376.262604 
	C233.331573,370.985046 226.415161,365.759094 219.161819,361.082397 
	C214.450577,358.044800 211.983704,354.514618 212.994583,348.020081 
	C212.932678,345.077423 212.864166,343.008057 212.795654,340.938721 
z"/>
<path fill="#47704C" opacity="1.000000" stroke="none" 
	d="
M212.507919,340.645447 
	C212.864166,343.008057 212.932678,345.077423 212.933319,347.584045 
	C212.735672,348.125885 212.490219,348.233185 212.492569,348.334717 
	C212.737869,358.953674 205.212479,363.286346 197.254318,367.379578 
	C192.272491,369.941956 187.430725,372.776642 182.233170,375.651154 
	C187.124863,354.898773 202.192566,340.254761 212.220184,322.853516 
	C212.220184,328.728516 212.220184,334.540375 212.507919,340.645447 
z"/>
<path fill="#050505" opacity="1.000000" stroke="none" 
	d="
M231.761658,190.868820 
	C233.519577,191.776688 235.071045,192.454498 236.222458,193.552002 
	C250.729233,207.379486 265.485321,208.186249 281.360382,195.919937 
	C283.071747,194.597610 284.551208,192.407455 286.430664,192.012802 
	C288.829193,191.509171 292.094604,191.613678 293.954437,192.922485 
	C296.495667,194.710800 296.343109,198.141510 294.053345,200.417664 
	C272.888458,221.456558 246.259003,221.594757 227.209793,201.032379 
	C223.083389,196.578171 225.070251,192.087006 231.761658,190.868820 
z"/>
<path fill="#050505" opacity="1.000000" stroke="none" 
	d="
M304.305786,161.620911 
	C304.575958,169.996582 300.430023,175.420776 293.548920,176.158707 
	C286.489441,176.915741 280.761780,172.713043 279.390320,165.769730 
	C278.153656,159.508743 282.372437,153.127213 288.889740,151.400375 
	C295.715973,149.591690 301.882812,153.544373 304.305786,161.620911 
z"/>
<path fill="#040404" opacity="1.000000" stroke="none" 
	d="
M216.087173,163.933075 
	C217.527313,154.778625 223.543106,149.785767 230.958115,151.171844 
	C238.080017,152.503159 242.519897,159.166046 241.104797,166.398804 
	C239.991272,172.090103 234.961670,176.186737 228.993057,176.263840 
	C222.162415,176.352066 217.776932,172.294174 216.087173,163.933075 
z"/>
</svg>