<svg version="1.1" id="Layer_1" xmlns="http://www.w3.org/2000/svg" xmlns:xlink="http://www.w3.org/1999/xlink" x="0px" y="0px"
	 width="100%" viewBox="0 0 500 500" enable-background="new 0 0 500 500" xml:space="preserve">
<path fill="#47704C" opacity="1.000000" stroke="none" 
	d="
M501.000000,199.000000 
	C501.000000,299.999969 501.000000,400.499969 501.000000,500.999939 
	C334.333405,500.999969 167.666794,500.999969 1.000143,501.000000 
	C1.000096,334.333435 1.000096,167.666870 1.000048,1.000233 
	C167.666519,1.000155 334.333038,1.000155 500.999786,1.000078 
	C501.000000,66.833336 501.000000,132.666672 501.000000,199.000000 
M481.357971,242.093521 
	C481.563690,241.664520 481.949036,241.235733 481.949524,240.806488 
	C481.985962,209.144836 482.100739,177.482666 481.963928,145.821609 
	C481.864746,122.860916 481.429169,99.901665 481.767731,76.390991 
	C481.767731,68.429688 481.767731,60.468380 481.767731,52.272865 
	C465.947784,48.066189 450.296265,47.049500 434.168091,49.838181 
	C411.630463,53.735111 392.248230,63.584721 375.644012,78.965988 
	C364.374908,89.405106 355.808807,101.975601 350.036163,116.209717 
	C345.669373,126.977386 342.244812,138.045380 341.892242,149.904694 
	C341.708710,156.078491 340.700775,162.078094 335.816010,167.021515 
	C333.028320,169.842682 331.379333,173.975189 329.788696,177.757401 
	C325.383270,188.232758 328.652191,197.301834 338.262085,203.139801 
	C345.045044,207.260376 352.144287,211.291702 355.855072,218.751556 
	C361.510498,230.120804 368.736053,240.153900 378.660065,248.188828 
	C387.199738,255.102966 396.632965,260.436707 407.147369,263.492798 
	C416.174408,266.116577 425.423737,267.975494 434.994812,270.273529 
	C434.994812,273.617798 435.178772,277.444366 434.902130,281.237305 
	C434.795044,282.705505 434.016235,284.561279 432.908905,285.448242 
	C426.393433,290.666962 425.051422,297.902893 425.041656,305.486694 
	C424.963379,366.309448 424.997894,427.132324 424.997894,487.955170 
	C424.997894,489.866058 424.997894,491.776947 424.997894,493.639526 
	C444.452271,493.639526 463.027252,493.639526 482.002106,493.639526 
	C482.002106,491.313690 482.002106,489.340210 482.002106,487.366730 
	C482.002106,421.378113 481.921234,355.389221 482.148132,289.401367 
	C482.167297,283.826538 480.155518,281.598938 475.161713,281.015442 
	C474.222809,280.905731 473.286255,280.776123 472.226501,280.640015 
	C472.226501,276.371826 472.226501,272.445709 472.226501,268.538544 
	C480.796570,267.855713 482.855896,265.678650 482.209106,258.320618 
	C481.755524,253.160095 481.378021,247.992905 481.357971,242.093521 
M100.996704,271.755951 
	C100.996872,273.089111 100.923653,274.427094 101.011307,275.754486 
	C101.250587,279.378113 101.037354,281.735901 96.091446,282.423309 
	C92.843994,282.874634 89.375320,286.066986 87.174934,288.930267 
	C79.725441,298.624054 78.376518,310.310059 78.095695,322.025360 
	C77.909523,329.792267 78.954132,337.581909 78.949165,345.361053 
	C78.919876,391.271118 78.728104,437.181091 78.650093,483.091187 
	C78.644058,486.642609 79.091606,490.194855 79.322197,493.654663 
	C102.418198,493.654663 124.995178,493.654663 148.128418,493.654663 
	C148.128418,481.515564 148.128418,469.711700 148.128418,457.132141 
	C148.984909,458.308990 149.329880,458.667999 149.543182,459.093079 
	C153.553268,467.084717 160.253021,469.837616 168.797821,468.999847 
	C175.905731,468.302948 180.523529,464.329712 183.516571,458.031921 
	C186.102997,452.589722 188.871979,447.233551 191.598236,441.858643 
	C202.195602,420.965729 212.800674,400.076691 223.442780,379.206573 
	C223.856110,378.395966 224.542770,377.490997 225.329742,377.139099 
	C243.036377,369.220917 256.662170,357.049133 264.419617,339.038910 
	C270.342499,325.287933 271.789001,311.085358 264.024384,297.708008 
	C260.402527,291.468079 254.833359,286.169464 249.437027,281.217712 
	C246.075302,278.132965 241.571701,275.039825 237.257156,274.490509 
	C226.102585,273.070404 222.081833,272.621063 217.093155,285.062347 
	C215.973938,287.853546 215.119492,290.750946 214.117599,293.673950 
	C204.711304,288.109161 198.333344,291.059448 196.779373,300.694366 
	C195.531296,308.432648 194.652771,316.251984 194.064667,324.069519 
	C193.430801,332.495422 193.353302,340.962402 192.948486,349.407440 
	C192.906891,350.274933 192.527252,351.562042 191.899628,351.897858 
	C185.997238,355.056335 184.179428,361.132538 181.221024,366.410278 
	C179.359329,369.731506 177.352707,372.971497 174.844330,377.204285 
	C167.490921,359.253876 160.757507,342.630951 153.863556,326.074860 
	C150.882706,318.916229 147.168045,312.111633 147.907730,303.850189 
	C148.527039,296.933350 146.163849,290.897095 140.765381,286.123749 
	C139.433563,284.946106 138.310196,282.923584 138.127426,281.180786 
	C137.731415,277.404602 138.005402,273.558167 138.005402,269.644653 
	C139.600266,269.063995 140.931061,268.439941 142.330521,268.092468 
	C151.874374,265.722778 161.683456,264.134644 170.933289,260.927979 
	C189.282898,254.566635 203.504440,242.616379 212.675232,225.449585 
	C218.154938,215.192123 225.264893,207.182541 235.713913,201.929840 
	C238.328979,200.615280 240.790115,197.949539 242.112534,195.300919 
	C246.387909,186.737839 244.290115,178.388824 239.248184,170.961594 
	C234.590469,164.100327 229.227982,157.858368 230.834671,148.611053 
	C231.263748,146.141525 230.331543,143.392639 229.827591,140.810410 
	C224.470123,113.359779 211.447067,90.544609 189.472794,72.857574 
	C172.048615,58.832886 152.110199,51.117802 130.138992,49.153400 
	C109.676941,47.323917 89.868408,51.132893 71.439285,60.387005 
	C48.859322,71.725449 32.081848,88.924744 21.028017,111.751190 
	C13.767284,126.744789 10.327700,142.737228 10.264516,159.100601 
	C10.211050,172.947403 12.653950,186.689667 17.960272,199.834137 
	C26.267479,220.412262 39.534386,236.866760 57.347839,249.866806 
	C69.495689,258.732117 83.352341,263.676544 97.611717,267.801025 
	C98.923843,268.180573 99.874611,269.809479 100.996704,271.755951 
z"/>
<path fill="#010101" opacity="1.000000" stroke="none" 
	d="
M100.994934,271.307068 
	C99.874611,269.809479 98.923843,268.180573 97.611717,267.801025 
	C83.352341,263.676544 69.495689,258.732117 57.347839,249.866806 
	C39.534386,236.866760 26.267479,220.412262 17.960272,199.834137 
	C12.653950,186.689667 10.211050,172.947403 10.264516,159.100601 
	C10.327700,142.737228 13.767284,126.744789 21.028017,111.751190 
	C32.081848,88.924744 48.859322,71.725449 71.439285,60.387005 
	C89.868408,51.132893 109.676941,47.323917 130.138992,49.153400 
	C152.110199,51.117802 172.048615,58.832886 189.472794,72.857574 
	C211.447067,90.544609 224.470123,113.359779 229.827591,140.810410 
	C230.331543,143.392639 231.263748,146.141525 230.834671,148.611053 
	C229.227982,157.858368 234.590469,164.100327 239.248184,170.961594 
	C244.290115,178.388824 246.387909,186.737839 242.112534,195.300919 
	C240.790115,197.949539 238.328979,200.615280 235.713913,201.929840 
	C225.264893,207.182541 218.154938,215.192123 212.675232,225.449585 
	C203.504440,242.616379 189.282898,254.566635 170.933289,260.927979 
	C161.683456,264.134644 151.874374,265.722778 142.330521,268.092468 
	C140.931061,268.439941 139.600266,269.063995 138.005402,269.644653 
	C138.005402,273.558167 137.731415,277.404602 138.127426,281.180786 
	C138.310196,282.923584 139.433563,284.946106 140.765381,286.123749 
	C146.163849,290.897095 148.527039,296.933350 147.907730,303.850189 
	C147.168045,312.111633 150.882706,318.916229 153.863556,326.074860 
	C160.757507,342.630951 167.490921,359.253876 174.844330,377.204285 
	C177.352707,372.971497 179.359329,369.731506 181.221024,366.410278 
	C184.179428,361.132538 185.997238,355.056335 191.899628,351.897858 
	C192.527252,351.562042 192.906891,350.274933 192.948486,349.407440 
	C193.353302,340.962402 193.430801,332.495422 194.064667,324.069519 
	C194.652771,316.251984 195.531296,308.432648 196.779373,300.694366 
	C198.333344,291.059448 204.711304,288.109161 214.117599,293.673950 
	C215.119492,290.750946 215.973938,287.853546 217.093155,285.062347 
	C222.081833,272.621063 226.102585,273.070404 237.257156,274.490509 
	C241.571701,275.039825 246.075302,278.132965 249.437027,281.217712 
	C254.833359,286.169464 260.402527,291.468079 264.024384,297.708008 
	C271.789001,311.085358 270.342499,325.287933 264.419617,339.038910 
	C256.662170,357.049133 243.036377,369.220917 225.329742,377.139099 
	C224.542770,377.490997 223.856110,378.395966 223.442780,379.206573 
	C212.800674,400.076691 202.195602,420.965729 191.598236,441.858643 
	C188.871979,447.233551 186.102997,452.589722 183.516571,458.031921 
	C180.523529,464.329712 175.905731,468.302948 168.797821,468.999847 
	C160.253021,469.837616 153.553268,467.084717 149.543182,459.093079 
	C149.329880,458.667999 148.984909,458.308990 148.128418,457.132141 
	C148.128418,469.711700 148.128418,481.515564 148.128418,493.654663 
	C124.995178,493.654663 102.418198,493.654663 79.322197,493.654663 
	C79.091606,490.194855 78.644058,486.642609 78.650093,483.091187 
	C78.728104,437.181091 78.919876,391.271118 78.949165,345.361053 
	C78.954132,337.581909 77.909523,329.792267 78.095695,322.025360 
	C78.376518,310.310059 79.725441,298.624054 87.174934,288.930267 
	C89.375320,286.066986 92.843994,282.874634 96.091446,282.423309 
	C101.037354,281.735901 101.250587,279.378113 101.011307,275.754486 
	C100.923653,274.427094 100.996872,273.089111 100.994934,271.307068 
M160.759964,241.392029 
	C176.443756,235.640213 188.628937,225.599670 195.683731,210.458084 
	C199.450317,202.373886 205.234222,196.589340 211.790176,191.197403 
	C214.728333,188.780869 217.981979,186.747910 221.509491,184.245026 
	C219.651749,181.651489 218.287323,178.544540 215.934875,176.692764 
	C209.443512,171.582932 209.136551,164.616699 209.007431,157.383713 
	C208.049194,103.706039 158.885483,63.085361 105.946892,72.204834 
	C66.994537,78.914955 36.128670,112.409317 32.891785,150.258316 
	C28.978674,196.014389 57.943558,231.971359 93.282166,243.149170 
	C115.694389,250.238297 137.927887,248.372330 160.759964,241.392029 
M254.332458,332.748749 
	C255.105499,330.036530 256.181854,327.369568 256.594238,324.603577 
	C257.794373,316.554108 257.872986,308.364166 252.890610,301.562317 
	C250.895935,298.839233 246.855865,297.069946 243.417084,296.250916 
	C242.248138,295.972473 239.665314,299.723907 238.437088,302.013885 
	C236.166672,306.246948 234.509995,310.803955 232.428848,315.145081 
	C230.241898,319.706940 226.658920,320.608459 222.771561,317.423309 
	C220.886749,315.878998 219.502060,313.724213 216.991226,310.796844 
	C214.133163,324.773651 211.586502,337.227600 209.120605,349.286560 
	C216.637833,353.314545 223.366882,356.920197 230.705017,360.852203 
	C240.233337,354.454407 249.134155,345.697571 254.332458,332.748749 
M232.043106,290.647522 
	C233.286362,289.207092 234.529617,287.766663 236.539856,285.437592 
	C233.615494,285.644348 230.249680,285.170685 229.869370,286.025360 
	C227.502563,291.344666 225.804535,296.961548 223.884735,302.479736 
	C224.384811,302.631195 224.884872,302.782623 225.384949,302.934052 
	C227.469421,299.040192 229.553909,295.146362 232.043106,290.647522 
z"/>
<path fill="#010101" opacity="1.000000" stroke="none" 
	d="
M480.966522,242.828690 
	C481.378021,247.992905 481.755524,253.160095 482.209106,258.320618 
	C482.855896,265.678650 480.796570,267.855713 472.226501,268.538544 
	C472.226501,272.445709 472.226501,276.371826 472.226501,280.640015 
	C473.286255,280.776123 474.222809,280.905731 475.161713,281.015442 
	C480.155518,281.598938 482.167297,283.826538 482.148132,289.401367 
	C481.921234,355.389221 482.002106,421.378113 482.002106,487.366730 
	C482.002106,489.340210 482.002106,491.313690 482.002106,493.639526 
	C463.027252,493.639526 444.452271,493.639526 424.997894,493.639526 
	C424.997894,491.776947 424.997894,489.866058 424.997894,487.955170 
	C424.997894,427.132324 424.963379,366.309448 425.041656,305.486694 
	C425.051422,297.902893 426.393433,290.666962 432.908905,285.448242 
	C434.016235,284.561279 434.795044,282.705505 434.902130,281.237305 
	C435.178772,277.444366 434.994812,273.617798 434.994812,270.273529 
	C425.423737,267.975494 416.174408,266.116577 407.147369,263.492798 
	C396.632965,260.436707 387.199738,255.102966 378.660065,248.188828 
	C368.736053,240.153900 361.510498,230.120804 355.855072,218.751556 
	C352.144287,211.291702 345.045044,207.260376 338.262085,203.139801 
	C328.652191,197.301834 325.383270,188.232758 329.788696,177.757401 
	C331.379333,173.975189 333.028320,169.842682 335.816010,167.021515 
	C340.700775,162.078094 341.708710,156.078491 341.892242,149.904694 
	C342.244812,138.045380 345.669373,126.977386 350.036163,116.209717 
	C355.808807,101.975601 364.374908,89.405106 375.644012,78.965988 
	C392.248230,63.584721 411.630463,53.735111 434.168091,49.838181 
	C450.296265,47.049500 465.947784,48.066189 481.767731,52.272865 
	C481.767731,60.468380 481.767731,68.429688 481.278595,76.337891 
	C441.459686,61.658642 395.304291,79.660622 374.976410,117.339287 
	C367.276062,131.612228 364.337921,146.909653 364.103302,162.872055 
	C364.036194,167.437683 362.904938,171.111694 359.456421,174.400757 
	C356.538879,177.183411 354.425537,180.809311 351.890991,184.148041 
	C353.757172,185.349670 355.056030,186.096909 356.259369,186.975067 
	C365.147888,193.461700 373.370300,200.263092 378.098419,210.885330 
	C383.374664,222.739044 392.544464,231.443832 404.152222,237.459427 
	C416.655884,243.939331 430.146851,246.177963 444.001160,247.027863 
	C456.580109,247.799515 468.856232,246.089096 480.966522,242.828690 
z"/>
<path fill="#FDFDFD" opacity="1.000000" stroke="none" 
	d="
M481.162231,242.461105 
	C468.856232,246.089096 456.580109,247.799515 444.001160,247.027863 
	C430.146851,246.177963 416.655884,243.939331 404.152222,237.459427 
	C392.544464,231.443832 383.374664,222.739044 378.098419,210.885330 
	C373.370300,200.263092 365.147888,193.461700 356.259369,186.975067 
	C355.056030,186.096909 353.757172,185.349670 351.890991,184.148041 
	C354.425537,180.809311 356.538879,177.183411 359.456421,174.400757 
	C362.904938,171.111694 364.036194,167.437683 364.103302,162.872055 
	C364.337921,146.909653 367.276062,131.612228 374.976410,117.339287 
	C395.304291,79.660622 441.459686,61.658642 480.966522,76.613281 
	C481.429169,99.901665 481.864746,122.860916 481.963928,145.821609 
	C482.100739,177.482666 481.985962,209.144836 481.949524,240.806488 
	C481.949036,241.235733 481.563690,241.664520 481.162231,242.461105 
M384.620392,145.261017 
	C382.796326,150.437119 383.521088,155.142517 387.577972,158.967987 
	C391.157593,162.343369 395.501587,163.036453 400.092102,161.462021 
	C405.205139,159.708374 408.257904,154.984589 408.081940,149.507492 
	C407.912323,144.228104 404.205780,139.498306 399.191406,138.162598 
	C393.482483,136.641891 388.736481,138.784607 384.620392,145.261017 
z"/>
<path fill="#FDFDFD" opacity="1.000000" stroke="none" 
	d="
M160.408447,241.569611 
	C137.927887,248.372330 115.694389,250.238297 93.282166,243.149170 
	C57.943558,231.971359 28.978674,196.014389 32.891785,150.258316 
	C36.128670,112.409317 66.994537,78.914955 105.946892,72.204834 
	C158.885483,63.085361 208.049194,103.706039 209.007431,157.383713 
	C209.136551,164.616699 209.443512,171.582932 215.934875,176.692764 
	C218.287323,178.544540 219.651749,181.651489 221.509491,184.245026 
	C217.981979,186.747910 214.728333,188.780869 211.790176,191.197403 
	C205.234222,196.589340 199.450317,202.373886 195.683731,210.458084 
	C188.628937,225.599670 176.443756,235.640213 160.408447,241.569611 
M182.219040,138.864426 
	C177.086136,136.827042 172.364365,137.494949 168.466370,141.460007 
	C165.062256,144.922699 164.035690,149.165497 165.619293,153.857315 
	C167.389160,159.101028 171.840530,162.222397 177.337189,162.173782 
	C182.522293,162.127884 187.203995,158.838348 188.811722,154.111313 
	C190.726364,148.481934 188.708649,143.309982 182.219040,138.864426 
z"/>
<path fill="#FBFBFB" opacity="1.000000" stroke="none" 
	d="
M254.202484,333.115540 
	C249.134155,345.697571 240.233337,354.454407 230.705017,360.852203 
	C223.366882,356.920197 216.637833,353.314545 209.120605,349.286560 
	C211.586502,337.227600 214.133163,324.773651 216.991226,310.796844 
	C219.502060,313.724213 220.886749,315.878998 222.771561,317.423309 
	C226.658920,320.608459 230.241898,319.706940 232.428848,315.145081 
	C234.509995,310.803955 236.166672,306.246948 238.437088,302.013885 
	C239.665314,299.723907 242.248138,295.972473 243.417084,296.250916 
	C246.855865,297.069946 250.895935,298.839233 252.890610,301.562317 
	C257.872986,308.364166 257.794373,316.554108 256.594238,324.603577 
	C256.181854,327.369568 255.105499,330.036530 254.202484,333.115540 
z"/>
<path fill="#E1E1E1" opacity="1.000000" stroke="none" 
	d="
M231.840759,290.950012 
	C229.553909,295.146362 227.469421,299.040192 225.384949,302.934052 
	C224.884872,302.782623 224.384811,302.631195 223.884735,302.479736 
	C225.804535,296.961548 227.502563,291.344666 229.869370,286.025360 
	C230.249680,285.170685 233.615494,285.644348 236.539856,285.437592 
	C234.529617,287.766663 233.286362,289.207092 231.840759,290.950012 
z"/>
<path fill="#050505" opacity="1.000000" stroke="none" 
	d="
M384.785767,144.926361 
	C388.736481,138.784607 393.482483,136.641891 399.191406,138.162598 
	C404.205780,139.498306 407.912323,144.228104 408.081940,149.507492 
	C408.257904,154.984589 405.205139,159.708374 400.092102,161.462021 
	C395.501587,163.036453 391.157593,162.343369 387.577972,158.967987 
	C383.521088,155.142517 382.796326,150.437119 384.785767,144.926361 
z"/>
<path fill="#050505" opacity="1.000000" stroke="none" 
	d="
M182.592468,138.995697 
	C188.708649,143.309982 190.726364,148.481934 188.811722,154.111313 
	C187.203995,158.838348 182.522293,162.127884 177.337189,162.173782 
	C171.840530,162.222397 167.389160,159.101028 165.619293,153.857315 
	C164.035690,149.165497 165.062256,144.922699 168.466370,141.460007 
	C172.364365,137.494949 177.086136,136.827042 182.592468,138.995697 
z"/>
</svg>