<svg version="1.1" id="Layer_1" xmlns="http://www.w3.org/2000/svg" xmlns:xlink="http://www.w3.org/1999/xlink" x="0px" y="0px"
	 width="100%" viewBox="0 0 500 500" enable-background="new 0 0 500 500" xml:space="preserve">
<path fill="#47704C" opacity="1.000000" stroke="none" 
	d="
M1.000000,179.000000 
	C1.000000,119.348106 1.000000,60.196213 1.000000,1.022159 
	C167.610275,1.022159 334.220551,1.022159 500.915405,1.022159 
	C500.915405,167.568619 500.915405,334.137299 500.915405,500.852997 
	C334.333435,500.852997 167.666733,500.852997 1.000000,500.852997 
	C1.000000,393.779327 1.000000,286.639648 1.000000,179.000000 
M144.707275,478.714233 
	C144.487976,482.660645 143.824783,486.648132 144.185181,490.540863 
	C144.491684,493.851562 146.472687,496.246979 150.548920,496.066559 
	C155.538803,495.845764 160.557678,496.223969 165.541595,495.944031 
	C169.039444,495.747528 172.499817,494.883636 176.070679,494.302521 
	C179.141266,494.836395 182.523880,495.875183 185.923508,495.934235 
	C197.919113,496.142670 209.920532,496.017700 221.919754,496.014465 
	C229.329132,496.012451 230.360825,494.314148 228.538513,486.938812 
	C225.483200,474.573120 214.960068,468.837433 202.368088,467.078125 
	C198.128937,466.485840 195.857880,464.791443 196.047928,460.506470 
	C196.238159,456.217438 196.803497,451.944916 196.989899,447.655823 
	C197.709702,431.092804 198.353378,414.526459 199.007126,397.960663 
	C199.687134,380.729156 200.344727,363.496765 201.014511,346.264862 
	C201.677826,329.199493 202.395004,312.136017 202.995972,295.068451 
	C203.720001,274.505310 204.438461,253.941208 204.987076,233.372925 
	C205.456818,215.761139 205.591156,198.140381 206.069382,180.528885 
	C206.230392,174.599594 206.991974,168.686615 207.537689,162.053848 
	C214.183548,161.389206 221.004517,160.478912 227.855423,160.069809 
	C241.744583,159.240417 255.656708,158.796280 269.546051,157.969437 
	C277.787079,157.478836 286.050385,156.902359 294.219208,155.760376 
	C308.559326,153.755646 322.770294,150.638031 337.156799,149.211792 
	C349.329254,148.005081 359.824341,144.520508 368.259583,135.347046 
	C374.322662,128.753357 373.518036,124.185036 364.768097,120.943306 
	C365.430237,118.805412 366.223236,116.667114 366.750336,114.465157 
	C368.423645,107.474403 370.797577,100.654350 369.190216,93.150368 
	C368.376678,89.352371 367.154114,85.954437 363.401703,85.434120 
	C359.768982,84.930405 357.031342,87.526047 355.455963,91.010231 
	C351.790314,99.117554 348.205597,107.268791 344.224426,115.220131 
	C343.395020,116.876625 341.116028,118.579659 339.298065,118.845451 
	C325.931183,120.799820 312.433868,121.939888 299.128479,124.217590 
	C282.581787,127.050163 266.081787,125.995522 249.570145,124.847374 
	C235.748474,123.886284 221.979019,122.195923 208.169830,121.024292 
	C201.765015,120.480881 196.614670,118.611542 194.093292,115.353683 
	C203.797623,114.007263 213.858994,112.506416 220.112213,104.062408 
	C224.149445,98.610756 226.172150,91.692009 229.309311,85.538635 
	C230.882370,82.453201 231.042343,78.622765 235.451431,77.069550 
	C241.462769,74.951920 242.010773,72.738129 239.336426,66.761703 
	C237.323364,62.263012 234.916412,57.925781 233.143433,53.339378 
	C231.858215,50.014778 231.539246,46.327255 230.394897,42.934635 
	C229.225922,39.468990 225.355316,36.504417 228.922668,32.349304 
	C229.205795,32.019497 229.002151,30.936127 228.663895,30.458555 
	C223.090469,22.589991 217.297272,14.805999 207.946716,11.127956 
	C198.218033,7.301168 188.290512,5.206535 177.549744,6.798928 
	C167.933929,8.224539 158.796494,10.270722 150.559921,15.647099 
	C148.428574,17.038322 146.683365,19.859001 143.213181,18.248713 
	C142.704987,18.012892 140.205231,20.071005 140.271561,20.942528 
	C140.551361,24.618376 137.967804,25.175026 135.567551,26.189127 
	C133.200500,27.189207 131.877747,28.523008 133.057617,31.519669 
	C133.787674,33.373863 134.197433,35.915043 133.520493,37.674362 
	C127.663879,52.895077 129.209305,67.384094 136.788391,81.619514 
	C141.579529,90.618454 147.321320,98.712601 155.541351,104.901131 
	C156.214859,105.408188 157.033463,106.565788 156.876190,107.193512 
	C155.986298,110.745277 155.194275,114.401405 153.667130,117.696777 
	C150.646957,124.213905 145.394302,130.216431 144.243835,136.973068 
	C141.759552,151.563019 141.084641,166.480911 140.044052,181.290955 
	C139.103989,194.670319 138.600311,208.082001 138.016083,221.484299 
	C137.279556,238.380096 136.511002,255.276764 136.038483,272.180939 
	C135.748062,282.570160 135.516144,293.006439 136.228409,303.354767 
	C136.494247,307.216980 138.753769,311.686798 141.552811,314.366394 
	C143.400528,316.135193 144.023987,317.394867 143.968216,319.472107 
	C143.669617,330.588837 143.275681,341.703125 142.996277,352.820282 
	C142.620605,367.768127 142.283020,382.717102 141.995285,397.666901 
	C141.624176,416.948120 141.353271,436.231384 140.951111,455.511902 
	C140.882553,458.799133 140.350922,462.075348 140.072632,465.359985 
	C139.769012,468.943604 139.728302,472.308258 143.879196,474.147400 
	C144.660355,474.493500 144.642105,476.643890 144.707275,478.714233 
z"/>
<path fill="#040303" opacity="1.000000" stroke="none" 
	d="
M144.850006,478.337952 
	C144.642105,476.643890 144.660355,474.493500 143.879196,474.147400 
	C139.728302,472.308258 139.769012,468.943604 140.072632,465.359985 
	C140.350922,462.075348 140.882553,458.799133 140.951111,455.511902 
	C141.353271,436.231384 141.624176,416.948120 141.995285,397.666901 
	C142.283020,382.717102 142.620605,367.768127 142.996277,352.820282 
	C143.275681,341.703125 143.669617,330.588837 143.968216,319.472107 
	C144.023987,317.394867 143.400528,316.135193 141.552811,314.366394 
	C138.753769,311.686798 136.494247,307.216980 136.228409,303.354767 
	C135.516144,293.006439 135.748062,282.570160 136.038483,272.180939 
	C136.511002,255.276764 137.279556,238.380096 138.016083,221.484299 
	C138.600311,208.082001 139.103989,194.670319 140.044052,181.290955 
	C141.084641,166.480911 141.759552,151.563019 144.243835,136.973068 
	C145.394302,130.216431 150.646957,124.213905 153.667130,117.696777 
	C155.194275,114.401405 155.986298,110.745277 156.876190,107.193512 
	C157.033463,106.565788 156.214859,105.408188 155.541351,104.901131 
	C147.321320,98.712601 141.579529,90.618454 136.788391,81.619514 
	C129.209305,67.384094 127.663879,52.895077 133.520493,37.674362 
	C134.197433,35.915043 133.787674,33.373863 133.057617,31.519669 
	C131.877747,28.523008 133.200500,27.189207 135.567551,26.189127 
	C137.967804,25.175026 140.551361,24.618376 140.271561,20.942528 
	C140.205231,20.071005 142.704987,18.012892 143.213181,18.248713 
	C146.683365,19.859001 148.428574,17.038322 150.559921,15.647099 
	C158.796494,10.270722 167.933929,8.224539 177.549744,6.798928 
	C188.290512,5.206535 198.218033,7.301168 207.946716,11.127956 
	C217.297272,14.805999 223.090469,22.589991 228.663895,30.458555 
	C229.002151,30.936127 229.205795,32.019497 228.922668,32.349304 
	C225.355316,36.504417 229.225922,39.468990 230.394897,42.934635 
	C231.539246,46.327255 231.858215,50.014778 233.143433,53.339378 
	C234.916412,57.925781 237.323364,62.263012 239.336426,66.761703 
	C242.010773,72.738129 241.462769,74.951920 235.451431,77.069550 
	C231.042343,78.622765 230.882370,82.453201 229.309311,85.538635 
	C226.172150,91.692009 224.149445,98.610756 220.112213,104.062408 
	C213.858994,112.506416 203.797623,114.007263 194.093292,115.353683 
	C196.614670,118.611542 201.765015,120.480881 208.169830,121.024292 
	C221.979019,122.195923 235.748474,123.886284 249.570145,124.847374 
	C266.081787,125.995522 282.581787,127.050163 299.128479,124.217590 
	C312.433868,121.939888 325.931183,120.799820 339.298065,118.845451 
	C341.116028,118.579659 343.395020,116.876625 344.224426,115.220131 
	C348.205597,107.268791 351.790314,99.117554 355.455963,91.010231 
	C357.031342,87.526047 359.768982,84.930405 363.401703,85.434120 
	C367.154114,85.954437 368.376678,89.352371 369.190216,93.150368 
	C370.797577,100.654350 368.423645,107.474403 366.750336,114.465157 
	C366.223236,116.667114 365.430237,118.805412 364.768097,120.943306 
	C373.518036,124.185036 374.322662,128.753357 368.259583,135.347046 
	C359.824341,144.520508 349.329254,148.005081 337.156799,149.211792 
	C322.770294,150.638031 308.559326,153.755646 294.219208,155.760376 
	C286.050385,156.902359 277.787079,157.478836 269.546051,157.969437 
	C255.656708,158.796280 241.744583,159.240417 227.855423,160.069809 
	C221.004517,160.478912 214.183548,161.389206 207.537689,162.053848 
	C206.991974,168.686615 206.230392,174.599594 206.069382,180.528885 
	C205.591156,198.140381 205.456818,215.761139 204.987076,233.372925 
	C204.438461,253.941208 203.720001,274.505310 202.995972,295.068451 
	C202.395004,312.136017 201.677826,329.199493 201.014511,346.264862 
	C200.344727,363.496765 199.687134,380.729156 199.007126,397.960663 
	C198.353378,414.526459 197.709702,431.092804 196.989899,447.655823 
	C196.803497,451.944916 196.238159,456.217438 196.047928,460.506470 
	C195.857880,464.791443 198.128937,466.485840 202.368088,467.078125 
	C214.960068,468.837433 225.483200,474.573120 228.538513,486.938812 
	C230.360825,494.314148 229.329132,496.012451 221.919754,496.014465 
	C209.920532,496.017700 197.919113,496.142670 185.923508,495.934235 
	C182.523880,495.875183 179.141266,494.836395 176.070679,494.302521 
	C172.499817,494.883636 169.039444,495.747528 165.541595,495.944031 
	C160.557678,496.223969 155.538803,495.845764 150.548920,496.066559 
	C146.472687,496.246979 144.491684,493.851562 144.185181,490.540863 
	C143.824783,486.648132 144.487976,482.660645 144.850006,478.337952 
M364.115143,128.965881 
	C362.195129,129.538879 360.275146,130.111877 358.355133,130.684875 
	C358.187744,128.665817 357.523773,126.535820 357.945496,124.648384 
	C359.242920,118.841461 361.127930,113.166718 362.454773,107.365173 
	C363.599365,102.360504 365.042847,97.242157 362.041656,90.828751 
	C354.385864,107.624008 343.504822,122.228790 349.272552,142.289749 
	C354.270294,138.641830 358.853119,135.437973 363.234985,131.979538 
	C364.114105,131.285675 364.228790,129.623306 364.846680,128.993774 
	C365.092682,128.886383 365.338654,128.778992 365.584656,128.671585 
	C365.298401,128.631409 365.012177,128.591248 364.115143,128.965881 
M144.810623,213.242264 
	C143.611649,239.796494 142.412659,266.350708 141.217361,292.823242 
	C148.261093,292.823242 154.537277,292.823242 161.107727,292.823242 
	C161.402603,290.317352 161.732712,288.197479 161.890945,286.064911 
	C164.355698,252.844025 166.790283,219.620880 169.252151,186.399780 
	C169.793747,179.091476 170.277695,171.773117 171.125565,164.498703 
	C171.276031,163.207733 173.091660,162.110870 174.138367,160.924393 
	C174.879333,162.202667 175.716263,163.438202 176.314072,164.780243 
	C176.553253,165.317230 176.267380,166.089005 176.217621,166.753693 
	C174.588928,188.510040 172.941284,210.265015 171.340179,232.023407 
	C170.712143,240.558334 170.188217,249.100922 169.642807,257.252380 
	C179.488541,257.252380 188.547836,257.252380 197.766479,257.252380 
	C198.109573,249.567398 198.492676,242.603668 198.718567,235.634842 
	C199.522812,210.823883 200.316116,186.012329 200.995544,161.197784 
	C201.089951,157.749557 202.075439,155.932373 205.854538,155.907318 
	C209.675095,155.881973 213.492065,155.350967 217.311020,155.046661 
	C246.843643,152.693527 276.403473,150.629837 305.896088,147.852203 
	C318.248688,146.688812 330.458771,144.012207 343.095428,141.964966 
	C342.600128,136.071869 342.145599,130.664124 341.740540,125.844933 
	C317.235870,127.923660 293.092743,131.580887 268.951630,131.567398 
	C244.772263,131.553894 220.594940,127.874786 195.924759,125.760208 
	C190.954880,132.342896 188.524719,133.126648 179.631805,129.105453 
	C173.150848,126.174896 166.959839,122.603111 160.645844,119.320442 
	C152.771317,127.063919 148.716599,136.486328 148.139359,147.401321 
	C146.995621,169.028336 145.931610,190.659576 144.810623,213.242264 
M146.235153,466.192352 
	C147.445114,467.484833 148.607025,469.848419 149.872437,469.905151 
	C163.500381,470.516602 177.000000,469.350189 190.018158,466.468781 
	C192.658890,398.339966 195.278809,330.748718 197.884369,263.527588 
	C187.755188,263.527588 178.514465,263.527588 169.472504,263.527588 
	C166.843567,276.605011 168.594330,289.510193 164.227341,301.868347 
	C161.633652,309.208221 159.277298,315.321259 150.351288,315.356018 
	C148.982712,365.551086 147.622620,415.434753 146.235153,466.192352 
M201.227921,42.761337 
	C199.653900,48.424572 197.365723,52.687618 190.609024,54.438084 
	C186.059158,55.616821 182.162720,60.053558 182.272629,65.748085 
	C182.353088,69.917702 179.623489,69.942039 177.016205,69.895355 
	C173.455933,69.831612 173.934494,67.301544 174.386505,64.834831 
	C174.681076,63.227406 175.234100,61.253654 174.591995,59.994381 
	C173.812973,58.466610 171.916183,56.626591 170.467010,56.595398 
	C169.257355,56.569363 166.792191,59.176968 166.985794,60.232567 
	C167.537827,63.242542 168.650528,66.460014 170.518097,68.825851 
	C172.184692,70.937119 173.175217,72.301506 172.603943,75.274940 
	C171.557404,80.722137 170.833618,86.377411 171.086884,91.894905 
	C171.492722,100.735779 171.875717,100.718201 162.962662,102.547768 
	C162.962662,105.577637 162.811798,108.719452 163.044327,111.832626 
	C163.125946,112.925507 163.883636,114.430481 164.784271,114.925377 
	C171.176376,118.437805 177.664780,121.778000 184.165436,125.088745 
	C188.154282,127.120247 190.340942,125.705559 191.001450,121.523232 
	C188.389038,119.274055 185.825104,117.382393 183.684616,115.094566 
	C182.564270,113.897064 182.187454,112.003960 181.474823,110.425018 
	C183.064972,109.858551 184.631210,108.905434 186.250198,108.805298 
	C189.729965,108.590073 193.247253,109.008461 196.730789,108.822632 
	C207.650589,108.240120 216.023712,102.569168 218.525787,94.265594 
	C211.339981,92.618767 210.211090,91.886215 209.149887,87.914276 
	C209.884705,88.074387 210.533646,88.080338 211.046326,88.347626 
	C220.180786,93.109734 220.021133,93.038536 223.821487,83.376144 
	C225.849121,78.220940 225.700577,70.918770 234.897049,71.487320 
	C233.518814,68.881737 232.412186,67.068558 231.571152,65.139572 
	C229.988480,61.509579 228.503891,57.834034 227.079529,54.138496 
	C225.197220,49.254833 223.684814,44.208672 221.509247,39.463509 
	C219.278900,34.598850 215.213501,32.294682 209.716080,33.129723 
	C204.612045,33.905006 202.710556,37.657658 201.227921,42.761337 
M162.284454,96.913818 
	C165.299408,96.760468 165.845184,95.459602 165.538437,92.370911 
	C165.068970,87.643677 165.276978,82.756660 165.943832,78.043060 
	C166.357407,75.119606 166.655060,73.142517 164.274277,70.633247 
	C159.548019,65.651932 160.057877,56.900681 164.619293,52.995899 
	C168.983063,49.260334 174.701736,50.538513 178.878845,55.516090 
	C183.541183,52.885429 188.092407,50.463387 192.464203,47.752014 
	C193.611221,47.040627 194.417908,45.527386 194.997269,44.213257 
	C195.862717,42.250237 196.312149,40.108677 197.071732,38.093258 
	C199.992264,30.344078 204.921844,27.250793 213.237244,27.803753 
	C214.796341,27.907433 216.368240,27.818590 219.656830,27.818590 
	C216.250214,24.603794 214.141556,22.092348 211.552399,20.259811 
	C199.628296,11.820221 186.242859,11.129602 172.396301,13.359490 
	C162.275711,14.989334 153.159225,19.368948 146.381683,26.730257 
	C139.659210,34.031769 136.639786,43.635063 136.064880,53.644680 
	C135.189209,68.890976 141.966034,81.252426 151.330307,92.557312 
	C153.993332,95.772224 156.489609,99.167816 162.284454,96.913818 
M214.409317,490.758636 
	C217.153107,490.758636 219.896912,490.758636 223.037766,490.758636 
	C222.700485,488.921692 222.639923,487.939667 222.336441,487.039520 
	C219.241852,477.860931 203.215179,469.887482 192.468582,471.512390 
	C180.644119,473.300323 168.730057,474.532776 156.830246,475.768677 
	C151.375397,476.335236 150.030258,478.429993 149.770767,485.829468 
	C149.569565,491.567169 153.186035,490.770233 156.650925,490.760406 
	C159.483490,490.752411 162.382095,491.127136 165.126740,490.635742 
	C167.142334,490.274841 169.528381,489.238434 170.737198,487.705109 
	C173.036285,484.788788 175.016129,484.215881 177.635056,486.924866 
	C180.901291,490.303345 184.888306,490.992767 189.441528,490.835785 
	C197.429916,490.560303 205.434616,490.758392 214.409317,490.758636 
M143.206848,308.187347 
	C146.732285,311.352295 151.248840,310.898651 154.206390,308.718536 
	C156.927521,306.712708 157.998642,302.468445 160.378357,298.156097 
	C153.022858,298.528137 147.492004,298.807922 141.437775,299.114136 
	C141.954712,302.275909 142.376648,304.856506 143.206848,308.187347 
M219.369370,28.616655 
	C219.369370,28.616655 219.481705,28.429731 219.481705,28.429731 
	C219.481705,28.429731 219.215042,28.461443 219.369370,28.616655 
z"/>
<path fill="#EE4921" opacity="1.000000" stroke="none" 
	d="
M144.822632,212.765656 
	C145.931610,190.659576 146.995621,169.028336 148.139359,147.401321 
	C148.716599,136.486328 152.771317,127.063919 160.645844,119.320442 
	C166.959839,122.603111 173.150848,126.174896 179.631805,129.105453 
	C188.524719,133.126648 190.954880,132.342896 195.924759,125.760208 
	C220.594940,127.874786 244.772263,131.553894 268.951630,131.567398 
	C293.092743,131.580887 317.235870,127.923660 341.740540,125.844933 
	C342.145599,130.664124 342.600128,136.071869 343.095428,141.964966 
	C330.458771,144.012207 318.248688,146.688812 305.896088,147.852203 
	C276.403473,150.629837 246.843643,152.693527 217.311020,155.046661 
	C213.492065,155.350967 209.675095,155.881973 205.854538,155.907318 
	C202.075439,155.932373 201.089951,157.749557 200.995544,161.197784 
	C200.316116,186.012329 199.522812,210.823883 198.718567,235.634842 
	C198.492676,242.603668 198.109573,249.567398 197.766479,257.252380 
	C188.547836,257.252380 179.488541,257.252380 169.642807,257.252380 
	C170.188217,249.100922 170.712143,240.558334 171.340179,232.023407 
	C172.941284,210.265015 174.588928,188.510040 176.217621,166.753693 
	C176.267380,166.089005 176.553253,165.317230 176.314072,164.780243 
	C175.716263,163.438202 174.879333,162.202667 174.138367,160.924393 
	C173.091660,162.110870 171.276031,163.207733 171.125565,164.498703 
	C170.277695,171.773117 169.793747,179.091476 169.252151,186.399780 
	C166.790283,219.620880 164.355698,252.844025 161.890945,286.064911 
	C161.732712,288.197479 161.402603,290.317352 161.107727,292.823242 
	C154.537277,292.823242 148.261093,292.823242 141.217361,292.823242 
	C142.412659,266.350708 143.611649,239.796494 144.822632,212.765656 
z"/>
<path fill="#3EBCEB" opacity="1.000000" stroke="none" 
	d="
M146.248840,465.755402 
	C147.622620,415.434753 148.982712,365.551086 150.351288,315.356018 
	C159.277298,315.321259 161.633652,309.208221 164.227341,301.868347 
	C168.594330,289.510193 166.843567,276.605011 169.472504,263.527588 
	C178.514465,263.527588 187.755188,263.527588 197.884369,263.527588 
	C195.278809,330.748718 192.658890,398.339966 190.018158,466.468781 
	C177.000000,469.350189 163.500381,470.516602 149.872437,469.905151 
	C148.607025,469.848419 147.445114,467.484833 146.248840,465.755402 
z"/>
<path fill="#F2E2DC" opacity="1.000000" stroke="none" 
	d="
M201.382904,42.409233 
	C202.710556,37.657658 204.612045,33.905006 209.716080,33.129723 
	C215.213501,32.294682 219.278900,34.598850 221.509247,39.463509 
	C223.684814,44.208672 225.197220,49.254833 227.079529,54.138496 
	C228.503891,57.834034 229.988480,61.509579 231.571152,65.139572 
	C232.412186,67.068558 233.518814,68.881737 234.897049,71.487320 
	C225.700577,70.918770 225.849121,78.220940 223.821487,83.376144 
	C220.021133,93.038536 220.180786,93.109734 211.046326,88.347626 
	C210.533646,88.080338 209.884705,88.074387 209.149887,87.914276 
	C210.211090,91.886215 211.339981,92.618767 218.525787,94.265594 
	C216.023712,102.569168 207.650589,108.240120 196.730789,108.822632 
	C193.247253,109.008461 189.729965,108.590073 186.250198,108.805298 
	C184.631210,108.905434 183.064972,109.858551 181.474823,110.425018 
	C182.187454,112.003960 182.564270,113.897064 183.684616,115.094566 
	C185.825104,117.382393 188.389038,119.274055 191.001450,121.523232 
	C190.340942,125.705559 188.154282,127.120247 184.165436,125.088745 
	C177.664780,121.778000 171.176376,118.437805 164.784271,114.925377 
	C163.883636,114.430481 163.125946,112.925507 163.044327,111.832626 
	C162.811798,108.719452 162.962662,105.577637 162.962662,102.547768 
	C171.875717,100.718201 171.492722,100.735779 171.086884,91.894905 
	C170.833618,86.377411 171.557404,80.722137 172.603943,75.274940 
	C173.175217,72.301506 172.184692,70.937119 170.518097,68.825851 
	C168.650528,66.460014 167.537827,63.242542 166.985794,60.232567 
	C166.792191,59.176968 169.257355,56.569363 170.467010,56.595398 
	C171.916183,56.626591 173.812973,58.466610 174.591995,59.994381 
	C175.234100,61.253654 174.681076,63.227406 174.386505,64.834831 
	C173.934494,67.301544 173.455933,69.831612 177.016205,69.895355 
	C179.623489,69.942039 182.353088,69.917702 182.272629,65.748085 
	C182.162720,60.053558 186.059158,55.616821 190.609024,54.438084 
	C197.365723,52.687618 199.653900,48.424572 201.382904,42.409233 
M215.369003,60.844166 
	C217.111282,60.798523 218.897400,60.936016 220.555634,60.539173 
	C220.855713,60.467358 221.098312,57.875004 220.515091,57.045647 
	C219.952240,56.245216 217.668137,55.566544 217.229568,55.982628 
	C216.149918,57.006935 215.696106,58.690880 215.369003,60.844166 
z"/>
<path fill="#A55D26" opacity="1.000000" stroke="none" 
	d="
M161.876770,96.944412 
	C156.489609,99.167816 153.993332,95.772224 151.330307,92.557312 
	C141.966034,81.252426 135.189209,68.890976 136.064880,53.644680 
	C136.639786,43.635063 139.659210,34.031769 146.381683,26.730257 
	C153.159225,19.368948 162.275711,14.989334 172.396301,13.359490 
	C186.242859,11.129602 199.628296,11.820221 211.552399,20.259811 
	C214.141556,22.092348 216.250214,24.603794 219.656830,27.818590 
	C216.368240,27.818590 214.796341,27.907433 213.237244,27.803753 
	C204.921844,27.250793 199.992264,30.344078 197.071732,38.093258 
	C196.312149,40.108677 195.862717,42.250237 194.997269,44.213257 
	C194.417908,45.527386 193.611221,47.040627 192.464203,47.752014 
	C188.092407,50.463387 183.541183,52.885429 178.878845,55.516090 
	C174.701736,50.538513 168.983063,49.260334 164.619293,52.995899 
	C160.057877,56.900681 159.548019,65.651932 164.274277,70.633247 
	C166.655060,73.142517 166.357407,75.119606 165.943832,78.043060 
	C165.276978,82.756660 165.068970,87.643677 165.538437,92.370911 
	C165.845184,95.459602 165.299408,96.760468 161.876770,96.944412 
z"/>
<path fill="#9C4F2A" opacity="1.000000" stroke="none" 
	d="
M213.920898,490.758392 
	C205.434616,490.758392 197.429916,490.560303 189.441528,490.835785 
	C184.888306,490.992767 180.901291,490.303345 177.635056,486.924866 
	C175.016129,484.215881 173.036285,484.788788 170.737198,487.705109 
	C169.528381,489.238434 167.142334,490.274841 165.126740,490.635742 
	C162.382095,491.127136 159.483490,490.752411 156.650925,490.760406 
	C153.186035,490.770233 149.569565,491.567169 149.770767,485.829468 
	C150.030258,478.429993 151.375397,476.335236 156.830246,475.768677 
	C168.730057,474.532776 180.644119,473.300323 192.468582,471.512390 
	C203.215179,469.887482 219.241852,477.860931 222.336441,487.039520 
	C222.639923,487.939667 222.700485,488.921692 223.037766,490.758636 
	C219.896912,490.758636 217.153107,490.758636 213.920898,490.758392 
z"/>
<path fill="#ECDCD6" opacity="1.000000" stroke="none" 
	d="
M364.695923,128.407501 
	C364.228790,129.623306 364.114105,131.285675 363.234985,131.979538 
	C358.853119,135.437973 354.270294,138.641830 349.272552,142.289749 
	C343.504822,122.228790 354.385864,107.624008 362.041656,90.828751 
	C365.042847,97.242157 363.599365,102.360504 362.454773,107.365173 
	C361.127930,113.166718 359.242920,118.841461 357.945496,124.648384 
	C357.523773,126.535820 358.187744,128.665817 358.355133,130.684875 
	C360.275146,130.111877 362.195129,129.538879 364.417786,128.721588 
	C364.720428,128.477295 364.695953,128.407501 364.695923,128.407501 
z"/>
<path fill="#EDDED8" opacity="1.000000" stroke="none" 
	d="
M143.002716,307.812225 
	C142.376648,304.856506 141.954712,302.275909 141.437775,299.114136 
	C147.492004,298.807922 153.022858,298.528137 160.378357,298.156097 
	C157.998642,302.468445 156.927521,306.712708 154.206390,308.718536 
	C151.248840,310.898651 146.732285,311.352295 143.002716,307.812225 
z"/>
<path fill="#A55D26" opacity="1.000000" stroke="none" 
	d="
M219.292206,28.539049 
	C219.215042,28.461443 219.481705,28.429731 219.481705,28.429731 
	C219.481705,28.429731 219.369370,28.616655 219.292206,28.539049 
z"/>
<path fill="#ECDCD6" opacity="1.000000" stroke="none" 
	d="
M364.723175,128.514191 
	C365.012177,128.591248 365.298401,128.631409 365.584656,128.671600 
	C365.338654,128.778992 365.092682,128.886383 364.771301,128.700638 
	C364.695953,128.407501 364.720428,128.477295 364.723175,128.514191 
z"/>
<path fill="#0D0B0A" opacity="1.000000" stroke="none" 
	d="
M215.179825,60.476868 
	C215.696106,58.690880 216.149918,57.006935 217.229568,55.982628 
	C217.668137,55.566544 219.952240,56.245216 220.515091,57.045647 
	C221.098312,57.875004 220.855713,60.467358 220.555634,60.539173 
	C218.897400,60.936016 217.111282,60.798523 215.179825,60.476868 
z"/>
</svg>