<svg version="1.1" id="Layer_1" xmlns="http://www.w3.org/2000/svg" xmlns:xlink="http://www.w3.org/1999/xlink" x="0px" y="0px"
	 width="100%" viewBox="0 0 500 500" enable-background="new 0 0 500 500" xml:space="preserve">
<path fill="#47704C" opacity="1.000000" stroke="none" 
	d="
M278.000000,501.000000 
	C185.333359,501.000000 93.166710,501.000000 1.000049,501.000000 
	C1.000033,334.333405 1.000033,167.666794 1.000016,1.000139 
	C167.666565,1.000093 334.333130,1.000093 500.999756,1.000046 
	C500.999847,167.666519 500.999847,334.333038 500.999939,500.999786 
	C426.833344,501.000000 352.666656,501.000000 278.000000,501.000000 
M289.001862,462.638763 
	C288.510162,443.240509 288.018463,423.842285 287.526764,404.444031 
	C289.029816,408.710419 289.642822,413.035126 289.970001,417.381317 
	C290.590942,425.630981 290.891144,433.906769 291.614075,442.146271 
	C292.475494,451.963531 293.989380,461.733368 294.575012,471.562195 
	C295.136444,480.985107 294.773254,481.004517 303.872040,481.002838 
	C316.024658,481.000610 328.177307,481.002258 340.738251,481.002258 
	C340.929108,479.377991 341.319092,477.971832 341.211609,476.604797 
	C340.921722,472.917267 340.305969,469.255005 340.028320,465.566986 
	C339.591461,459.764832 339.504547,453.932617 338.950684,448.143646 
	C337.742889,435.519745 336.343323,422.914093 335.004913,410.302826 
	C333.865082,399.562561 333.051819,388.772827 331.467896,378.097900 
	C328.919678,360.923859 326.163208,343.768005 322.926880,326.712219 
	C319.360840,307.919037 314.935181,289.267365 304.915344,272.647614 
	C300.671997,265.609253 295.043274,259.669617 286.787109,256.907928 
	C285.046967,256.325836 283.617645,254.814529 282.045105,253.731369 
	C283.616974,252.536804 285.019226,250.886215 286.790375,250.227280 
	C294.112305,247.503265 301.716766,245.485718 308.904541,242.464340 
	C326.099609,235.236420 340.039978,223.722504 352.135803,209.548157 
	C365.057892,194.405594 373.290283,176.849106 377.101318,157.819824 
	C380.741272,139.644531 380.499817,120.959206 375.883331,102.598083 
	C371.687347,85.909393 364.212280,70.773346 353.493927,57.573025 
	C339.222382,39.996719 321.479553,26.823269 299.778748,19.340401 
	C281.207092,12.936523 262.219269,10.419891 242.762833,13.110270 
	C226.493347,15.359967 211.078979,20.558321 196.950226,29.062483 
	C185.168640,36.153873 174.191010,44.554676 166.018753,55.590340 
	C159.036499,65.019051 152.809418,75.257423 147.912292,85.903122 
	C143.751083,94.949059 140.815048,104.928917 139.455933,114.787689 
	C138.139725,124.335068 136.297638,134.130341 138.858887,144.039429 
	C141.144852,152.883438 141.555511,162.261780 144.312469,170.920792 
	C147.202530,179.997955 151.088013,188.996124 156.045868,197.107452 
	C160.646149,204.633713 167.009567,211.149689 173.004288,217.739670 
	C181.003220,226.532852 190.472092,233.660355 201.099396,238.914520 
	C209.895203,243.263153 219.146851,246.689758 228.386475,250.605377 
	C228.211044,251.600357 227.960175,253.023209 227.845566,253.673279 
	C223.877518,255.785507 220.308334,257.435455 216.992447,259.493500 
	C202.166138,268.695740 189.101135,280.122009 177.582535,293.090820 
	C165.173889,307.061707 152.975204,321.319672 141.921982,336.361420 
	C133.397125,347.962433 126.152405,360.641602 119.524315,373.454834 
	C114.357979,383.442261 106.996185,392.543762 107.684898,405.303680 
	C108.240997,415.606598 117.830223,425.989929 126.875916,426.916534 
	C133.744675,427.620178 140.681839,427.647400 147.586960,428.006470 
	C164.756668,428.899292 180.490921,423.583466 195.804855,416.682129 
	C202.933334,413.469666 209.853531,409.795074 217.966019,405.787628 
	C217.966019,410.852264 218.165894,415.055420 217.924957,419.233154 
	C217.402069,428.300110 216.508469,437.346466 216.037231,446.415344 
	C215.526947,456.235260 215.706863,466.105774 214.821564,475.885040 
	C214.399658,480.545471 215.979202,481.084351 219.853394,481.062286 
	C241.683838,480.937866 263.515350,481.007629 285.346497,480.991180 
	C286.944946,480.989960 288.543243,480.830872 290.296661,480.736847 
	C289.837524,474.652405 289.419617,469.114319 289.001862,462.638763 
z"/>
<path fill="#010101" opacity="1.000000" stroke="none" 
	d="
M289.001770,463.107483 
	C289.419617,469.114319 289.837524,474.652405 290.296661,480.736847 
	C288.543243,480.830872 286.944946,480.989960 285.346497,480.991180 
	C263.515350,481.007629 241.683838,480.937866 219.853394,481.062286 
	C215.979202,481.084351 214.399658,480.545471 214.821564,475.885040 
	C215.706863,466.105774 215.526947,456.235260 216.037231,446.415344 
	C216.508469,437.346466 217.402069,428.300110 217.924957,419.233154 
	C218.165894,415.055420 217.966019,410.852264 217.966019,405.787628 
	C209.853531,409.795074 202.933334,413.469666 195.804855,416.682129 
	C180.490921,423.583466 164.756668,428.899292 147.586960,428.006470 
	C140.681839,427.647400 133.744675,427.620178 126.875916,426.916534 
	C117.830223,425.989929 108.240997,415.606598 107.684898,405.303680 
	C106.996185,392.543762 114.357979,383.442261 119.524315,373.454834 
	C126.152405,360.641602 133.397125,347.962433 141.921982,336.361420 
	C152.975204,321.319672 165.173889,307.061707 177.582535,293.090820 
	C189.101135,280.122009 202.166138,268.695740 216.992447,259.493500 
	C220.308334,257.435455 223.877518,255.785507 227.845566,253.673279 
	C227.960175,253.023209 228.211044,251.600357 228.386475,250.605377 
	C219.146851,246.689758 209.895203,243.263153 201.099396,238.914520 
	C190.472092,233.660355 181.003220,226.532852 173.004288,217.739670 
	C167.009567,211.149689 160.646149,204.633713 156.045868,197.107452 
	C151.088013,188.996124 147.202530,179.997955 144.312469,170.920792 
	C141.555511,162.261780 141.144852,152.883438 138.858887,144.039429 
	C136.297638,134.130341 138.139725,124.335068 139.455933,114.787689 
	C140.815048,104.928917 143.751083,94.949059 147.912292,85.903122 
	C152.809418,75.257423 159.036499,65.019051 166.018753,55.590340 
	C174.191010,44.554676 185.168640,36.153873 196.950226,29.062483 
	C211.078979,20.558321 226.493347,15.359967 242.762833,13.110270 
	C262.219269,10.419891 281.207092,12.936523 299.778748,19.340401 
	C321.479553,26.823269 339.222382,39.996719 353.493927,57.573025 
	C364.212280,70.773346 371.687347,85.909393 375.883331,102.598083 
	C380.499817,120.959206 380.741272,139.644531 377.101318,157.819824 
	C373.290283,176.849106 365.057892,194.405594 352.135803,209.548157 
	C340.039978,223.722504 326.099609,235.236420 308.904541,242.464340 
	C301.716766,245.485718 294.112305,247.503265 286.790375,250.227280 
	C285.019226,250.886215 283.616974,252.536804 282.045105,253.731369 
	C283.617645,254.814529 285.046967,256.325836 286.787109,256.907928 
	C295.043274,259.669617 300.671997,265.609253 304.915344,272.647614 
	C314.935181,289.267365 319.360840,307.919037 322.926880,326.712219 
	C326.163208,343.768005 328.919678,360.923859 331.467896,378.097900 
	C333.051819,388.772827 333.865082,399.562561 335.004913,410.302826 
	C336.343323,422.914093 337.742889,435.519745 338.950684,448.143646 
	C339.504547,453.932617 339.591461,459.764832 340.028320,465.566986 
	C340.305969,469.255005 340.921722,472.917267 341.211609,476.604797 
	C341.319092,477.971832 340.929108,479.377991 340.738251,481.002258 
	C328.177307,481.002258 316.024658,481.000610 303.872040,481.002838 
	C294.773254,481.004517 295.136444,480.985107 294.575012,471.562195 
	C293.989380,461.733368 292.475494,451.963531 291.614075,442.146271 
	C290.891144,433.906769 290.590942,425.630981 289.970001,417.381317 
	C289.642822,413.035126 289.029816,408.710419 287.526764,404.444031 
	C288.018463,423.842285 288.510162,443.240509 289.001770,463.107483 
M297.720276,316.768829 
	C297.720276,316.768829 297.315765,316.509705 297.637543,315.865082 
	C300.197083,309.785889 302.906097,303.762268 305.203796,297.585693 
	C305.733063,296.162872 305.432892,293.488953 304.459137,292.710052 
	C303.450958,291.903656 300.973450,292.267914 299.478638,292.910767 
	C297.743042,293.657166 296.159912,295.075226 294.895325,296.535034 
	C292.065399,299.801849 289.498993,303.295532 286.775787,306.656738 
	C285.251068,308.538727 283.627502,310.340637 282.516449,311.633881 
	C283.666901,303.318512 284.969696,294.916656 285.857483,286.471161 
	C286.002869,285.088196 284.596588,282.646820 283.405701,282.266754 
	C282.178314,281.875031 279.774109,282.983337 278.881134,284.179291 
	C276.927460,286.795929 275.502197,289.833038 274.043579,292.788513 
	C269.955078,301.072784 265.959137,309.402802 261.895966,317.778107 
	C261.240631,310.658569 261.019714,304.053436 259.833313,297.626526 
	C259.412109,295.344696 256.642609,293.496368 254.945099,291.450134 
	C253.119537,293.182953 250.558640,294.579926 249.588806,296.703552 
	C243.684799,309.631409 238.117203,322.713593 232.525772,335.782104 
	C232.050003,336.894012 231.646408,338.646820 232.179123,339.486938 
	C238.323837,349.177429 244.420898,358.993011 254.116638,365.645599 
	C255.827194,366.819275 258.793091,367.563873 260.626465,366.923676 
	C270.243988,363.565186 279.918121,360.192261 289.105530,355.838654 
	C295.609863,352.756561 301.678406,348.492584 307.328217,343.987152 
	C309.906097,341.931458 311.004120,338.020020 312.773346,334.950287 
	C312.283936,334.472076 311.794556,333.993896 311.305176,333.515717 
	C308.302429,334.111938 305.299683,334.708160 301.796539,334.851013 
	C301.622864,334.707794 301.449219,334.564606 301.623322,333.833252 
	C305.584503,327.328339 309.722290,320.920013 313.373749,314.245667 
	C314.211761,312.713898 313.377350,310.267151 313.312592,308.241486 
	C311.422180,308.566528 309.169983,308.350891 307.713898,309.325073 
	C304.300507,311.608795 301.268311,314.462311 297.720276,316.768829 
M327.155060,203.659897 
	C344.472046,186.695709 354.606293,166.121811 356.772644,142.034775 
	C361.889252,85.145409 319.077759,36.893925 261.890747,34.647572 
	C198.790680,32.168953 148.875854,91.097557 162.455399,152.690826 
	C170.588303,189.579453 192.996658,215.043381 228.950180,226.432602 
	C265.258728,237.934296 298.249115,229.895248 327.155060,203.659897 
M190.945358,352.593170 
	C187.066452,358.166565 183.187546,363.739960 179.308640,369.313385 
	C192.849487,364.193573 203.574188,355.471069 214.547043,347.058655 
	C221.382065,341.818573 223.528793,335.092529 223.076675,326.886475 
	C222.891357,323.523132 223.581421,320.111572 223.873276,316.721924 
	C223.388016,316.506805 222.902756,316.291656 222.417496,316.076538 
	C212.094040,328.067719 201.770584,340.058899 190.945358,352.593170 
z"/>
<path fill="#FCFCFC" opacity="1.000000" stroke="none" 
	d="
M326.887146,203.890991 
	C298.249115,229.895248 265.258728,237.934296 228.950180,226.432602 
	C192.996658,215.043381 170.588303,189.579453 162.455399,152.690826 
	C148.875854,91.097557 198.790680,32.168953 261.890747,34.647572 
	C319.077759,36.893925 361.889252,85.145409 356.772644,142.034775 
	C354.606293,166.121811 344.472046,186.695709 326.887146,203.890991 
M294.461029,198.960007 
	C296.784271,196.354385 299.087341,193.730408 301.436676,191.148560 
	C303.561737,188.813156 305.252319,186.268661 303.432037,183.117462 
	C301.424896,179.642761 298.161011,180.267441 295.009369,181.137329 
	C281.897614,184.756271 268.505035,186.158981 255.003952,185.030548 
	C243.598251,184.077255 232.285583,182.046906 220.893005,180.867432 
	C218.803558,180.651108 215.547516,181.625061 214.613022,183.145508 
	C213.665375,184.687317 214.157547,188.135773 215.346848,189.800781 
	C222.219421,199.422287 230.936615,207.082520 241.808304,211.934998 
	C254.081543,217.413010 266.489929,217.264511 278.283661,210.814987 
	C283.898499,207.744476 288.756226,203.289459 294.461029,198.960007 
M310.232727,115.151466 
	C302.895172,110.377609 295.260406,110.849457 289.804230,116.414024 
	C284.685272,121.634666 283.968231,129.619736 288.079224,135.623810 
	C293.077972,142.924454 302.981750,144.523285 310.004913,139.163361 
	C317.657257,133.323273 317.981567,123.768707 310.232727,115.151466 
M228.086166,137.562408 
	C233.192566,130.883194 233.583359,123.773712 229.167358,117.892982 
	C225.180313,112.583488 217.815491,110.396782 211.793320,112.793022 
	C205.865082,115.151878 202.380829,119.456932 201.878113,125.886414 
	C201.357391,132.546173 204.195038,137.612564 210.068604,140.583710 
	C216.316727,143.744324 222.281845,142.812912 228.086166,137.562408 
z"/>
<path fill="#FBFBFB" opacity="1.000000" stroke="none" 
	d="
M302.296967,335.304382 
	C305.299683,334.708160 308.302429,334.111938 311.305176,333.515717 
	C311.794556,333.993896 312.283936,334.472076 312.773346,334.950287 
	C311.004120,338.020020 309.906097,341.931458 307.328217,343.987152 
	C301.678406,348.492584 295.609863,352.756561 289.105530,355.838654 
	C279.918121,360.192261 270.243988,363.565186 260.626465,366.923676 
	C258.793091,367.563873 255.827194,366.819275 254.116638,365.645599 
	C244.420898,358.993011 238.323837,349.177429 232.179123,339.486938 
	C231.646408,338.646820 232.050003,336.894012 232.525772,335.782104 
	C238.117203,322.713593 243.684799,309.631409 249.588806,296.703552 
	C250.558640,294.579926 253.119537,293.182953 254.945099,291.450134 
	C256.642609,293.496368 259.412109,295.344696 259.833313,297.626526 
	C261.019714,304.053436 261.240631,310.658569 261.895966,317.778107 
	C265.959137,309.402802 269.955078,301.072784 274.043579,292.788513 
	C275.502197,289.833038 276.927460,286.795929 278.881134,284.179291 
	C279.774109,282.983337 282.178314,281.875031 283.405701,282.266754 
	C284.596588,282.646820 286.002869,285.088196 285.857483,286.471161 
	C284.969696,294.916656 283.666901,303.318512 282.516449,311.633881 
	C283.627502,310.340637 285.251068,308.538727 286.775787,306.656738 
	C289.498993,303.295532 292.065399,299.801849 294.895325,296.535034 
	C296.159912,295.075226 297.743042,293.657166 299.478638,292.910767 
	C300.973450,292.267914 303.450958,291.903656 304.459137,292.710052 
	C305.432892,293.488953 305.733063,296.162872 305.203796,297.585693 
	C302.906097,303.762268 300.197083,309.785889 297.334045,316.440186 
	C297.108795,317.284149 297.187012,317.552948 297.265259,317.821777 
	C297.537445,317.576233 297.809631,317.330688 298.081818,317.085144 
	C301.268311,314.462311 304.300507,311.608795 307.713898,309.325073 
	C309.169983,308.350891 311.422180,308.566528 313.312592,308.241486 
	C313.377350,310.267151 314.211761,312.713898 313.373749,314.245667 
	C309.722290,320.920013 305.584503,327.328339 301.258667,334.315369 
	C300.847565,335.147278 300.801117,335.497009 300.754669,335.846741 
	C301.268768,335.665955 301.782867,335.485168 302.296967,335.304382 
z"/>
<path fill="#47704C" opacity="1.000000" stroke="none" 
	d="
M191.196243,352.321625 
	C201.770584,340.058899 212.094040,328.067719 222.417496,316.076538 
	C222.902756,316.291656 223.388016,316.506805 223.873276,316.721924 
	C223.581421,320.111572 222.891357,323.523132 223.076675,326.886475 
	C223.528793,335.092529 221.382065,341.818573 214.547043,347.058655 
	C203.574188,355.471069 192.849487,364.193573 179.308640,369.313385 
	C183.187546,363.739960 187.066452,358.166565 191.196243,352.321625 
z"/>
<path fill="#050505" opacity="1.000000" stroke="none" 
	d="
M294.208984,199.210815 
	C288.756226,203.289459 283.898499,207.744476 278.283661,210.814987 
	C266.489929,217.264511 254.081543,217.413010 241.808304,211.934998 
	C230.936615,207.082520 222.219421,199.422287 215.346848,189.800781 
	C214.157547,188.135773 213.665375,184.687317 214.613022,183.145508 
	C215.547516,181.625061 218.803558,180.651108 220.893005,180.867432 
	C232.285583,182.046906 243.598251,184.077255 255.003952,185.030548 
	C268.505035,186.158981 281.897614,184.756271 295.009369,181.137329 
	C298.161011,180.267441 301.424896,179.642761 303.432037,183.117462 
	C305.252319,186.268661 303.561737,188.813156 301.436676,191.148560 
	C299.087341,193.730408 296.784271,196.354385 294.208984,199.210815 
M267.837952,203.619812 
	C272.590790,201.192780 277.343597,198.765762 282.096436,196.338730 
	C281.921936,195.943008 281.747467,195.547302 281.572968,195.151581 
	C266.058533,195.151581 250.544128,195.151581 235.192337,195.151581 
	C244.324997,202.536240 254.574936,207.088959 267.837952,203.619812 
z"/>
<path fill="#040404" opacity="1.000000" stroke="none" 
	d="
M310.518250,115.388985 
	C317.981567,123.768707 317.657257,133.323273 310.004913,139.163361 
	C302.981750,144.523285 293.077972,142.924454 288.079224,135.623810 
	C283.968231,129.619736 284.685272,121.634666 289.804230,116.414024 
	C295.260406,110.849457 302.895172,110.377609 310.518250,115.388985 
z"/>
<path fill="#030303" opacity="1.000000" stroke="none" 
	d="
M227.821655,137.826248 
	C222.281845,142.812912 216.316727,143.744324 210.068604,140.583710 
	C204.195038,137.612564 201.357391,132.546173 201.878113,125.886414 
	C202.380829,119.456932 205.865082,115.151878 211.793320,112.793022 
	C217.815491,110.396782 225.180313,112.583488 229.167358,117.892982 
	C233.583359,123.773712 233.192566,130.883194 227.821655,137.826248 
z"/>
<path fill="#010101" opacity="1.000000" stroke="none" 
	d="
M302.046753,335.077698 
	C301.782867,335.485168 301.268768,335.665955 300.754669,335.846741 
	C300.801117,335.497009 300.847565,335.147278 301.084778,334.609467 
	C301.449219,334.564606 301.622864,334.707794 302.046753,335.077698 
z"/>
<path fill="#010101" opacity="1.000000" stroke="none" 
	d="
M297.901062,316.927002 
	C297.809631,317.330688 297.537445,317.576233 297.265259,317.821777 
	C297.187012,317.552948 297.108795,317.284149 297.173157,316.762512 
	C297.315765,316.509705 297.720276,316.768829 297.901062,316.927002 
z"/>
<path fill="#F2F2F2" opacity="1.000000" stroke="none" 
	d="
M267.446289,203.742859 
	C254.574936,207.088959 244.324997,202.536240 235.192337,195.151581 
	C250.544128,195.151581 266.058533,195.151581 281.572968,195.151581 
	C281.747467,195.547302 281.921936,195.943008 282.096436,196.338730 
	C277.343597,198.765762 272.590790,201.192780 267.446289,203.742859 
z"/>
</svg>