<svg version="1.1" id="Layer_1" xmlns="http://www.w3.org/2000/svg" xmlns:xlink="http://www.w3.org/1999/xlink" x="0px" y="0px"
	 width="100%" viewBox="0 0 500 500" enable-background="new 0 0 500 500" xml:space="preserve">
<path fill="#47704C" opacity="1.000000" stroke="none" 
	d="
M277.000000,501.000000 
	C184.666687,501.000000 92.833374,501.000000 1.000049,501.000000 
	C1.000033,334.333405 1.000033,167.666794 1.000016,1.000139 
	C167.666565,1.000093 334.333130,1.000093 500.999756,1.000046 
	C500.999847,167.666519 500.999847,334.333038 500.999939,500.999786 
	C426.500000,501.000000 352.000000,501.000000 277.000000,501.000000 
M156.500000,118.000000 
	C174.890610,118.000000 193.281235,118.000000 212.223602,118.000000 
	C212.223602,128.323318 212.223602,137.689529 212.223602,147.968491 
	C235.083954,133.846039 257.111023,120.238350 279.984039,106.108063 
	C256.912659,91.929909 234.902847,78.404114 211.759689,64.181847 
	C211.759689,75.037865 211.759689,84.280785 211.759689,94.115891 
	C173.318542,94.115891 135.447372,94.115891 97.350006,94.115891 
	C97.350006,102.284058 97.350006,109.837410 97.350006,118.000000 
	C116.962410,118.000000 136.231201,118.000000 156.500000,118.000000 
M81.662788,311.110107 
	C65.280151,319.234406 53.087555,331.702362 45.113750,347.974457 
	C37.856949,362.783386 35.509167,378.524750 37.880554,395.052032 
	C40.252777,411.585175 46.554073,426.257904 57.962479,438.305176 
	C77.176224,458.594849 100.665588,467.624847 128.833435,464.129303 
	C150.836700,461.398743 168.786072,451.368958 182.080719,434.108002 
	C199.803589,411.097748 204.189392,385.233948 195.195023,357.346985 
	C190.367798,342.380280 181.601501,329.962891 169.435928,320.365417 
	C152.657639,307.128906 133.507980,300.872955 111.787079,302.864166 
	C101.401749,303.816254 91.650185,306.250610 81.662788,311.110107 
M286.593414,324.131165 
	C298.518250,318.555786 308.631012,310.369446 316.237488,299.907440 
	C329.579132,281.557312 334.623779,260.847351 331.100861,238.113403 
	C327.804382,216.840759 317.651886,199.578995 300.832245,186.610840 
	C282.417755,172.413040 261.330383,167.477875 238.205795,170.900177 
	C216.834091,174.063049 199.597855,184.415649 186.594788,201.217667 
	C172.366318,219.603058 167.451691,240.720627 170.906219,263.842926 
	C174.088852,285.145355 184.166946,302.639832 201.171722,315.314209 
	C227.329163,334.810455 255.966446,337.308197 286.593414,324.131165 
M428.936005,50.506599 
	C408.663818,37.483868 386.539948,33.325367 363.418304,39.528156 
	C333.728851,47.492882 314.262878,66.924759 305.314972,96.481392 
	C300.908295,111.037415 300.790955,126.154358 305.094055,140.347290 
	C311.283173,160.760803 323.404694,177.259277 342.481964,188.457596 
	C359.254364,198.302979 377.109070,201.329849 395.766205,198.704941 
	C417.571625,195.637085 435.780731,185.061142 448.837189,167.172211 
	C464.589386,145.589828 469.128479,121.533020 461.808777,95.596718 
	C456.505005,76.803474 445.420135,62.115768 428.936005,50.506599 
z"/>
<path fill="#000000" opacity="1.000000" stroke="none" 
	d="
M156.000000,118.000000 
	C136.231201,118.000000 116.962410,118.000000 97.350006,118.000000 
	C97.350006,109.837410 97.350006,102.284058 97.350006,94.115891 
	C135.447372,94.115891 173.318542,94.115891 211.759689,94.115891 
	C211.759689,84.280785 211.759689,75.037865 211.759689,64.181847 
	C234.902847,78.404114 256.912659,91.929909 279.984039,106.108063 
	C257.111023,120.238350 235.083954,133.846039 212.223602,147.968491 
	C212.223602,137.689529 212.223602,128.323318 212.223602,118.000000 
	C193.281235,118.000000 174.890610,118.000000 156.000000,118.000000 
z"/>
<path fill="#000000" opacity="1.000000" stroke="none" 
	d="
M82.020874,310.993256 
	C91.650185,306.250610 101.401749,303.816254 111.787079,302.864166 
	C133.507980,300.872955 152.657639,307.128906 169.435928,320.365417 
	C181.601501,329.962891 190.367798,342.380280 195.195023,357.346985 
	C204.189392,385.233948 199.803589,411.097748 182.080719,434.108002 
	C168.786072,451.368958 150.836700,461.398743 128.833435,464.129303 
	C100.665588,467.624847 77.176224,458.594849 57.962479,438.305176 
	C46.554073,426.257904 40.252777,411.585175 37.880554,395.052032 
	C35.509167,378.524750 37.856949,362.783386 45.113750,347.974457 
	C53.087555,331.702362 65.280151,319.234406 82.020874,310.993256 
M76.012802,441.514160 
	C96.886627,456.222565 119.515602,459.187042 143.394394,450.692078 
	C165.261597,442.912811 179.303009,426.861816 186.592728,405.333832 
	C192.462372,387.999573 191.114899,370.673187 183.148285,353.853210 
	C171.263580,328.760956 151.070984,315.116516 124.143394,312.248901 
	C102.573540,309.951874 83.365852,317.599548 67.997520,332.745758 
	C50.239639,350.247040 43.778999,371.988556 48.001606,396.599213 
	C51.161716,415.017303 60.561607,429.777985 76.012802,441.514160 
z"/>
<path fill="#000000" opacity="1.000000" stroke="none" 
	d="
M286.272430,324.332336 
	C255.966446,337.308197 227.329163,334.810455 201.171722,315.314209 
	C184.166946,302.639832 174.088852,285.145355 170.906219,263.842926 
	C167.451691,240.720627 172.366318,219.603058 186.594788,201.217667 
	C199.597855,184.415649 216.834091,174.063049 238.205795,170.900177 
	C261.330383,167.477875 282.417755,172.413040 300.832245,186.610840 
	C317.651886,199.578995 327.804382,216.840759 331.100861,238.113403 
	C334.623779,260.847351 329.579132,281.557312 316.237488,299.907440 
	C308.631012,310.369446 298.518250,318.555786 286.272430,324.332336 
M322.006622,257.050598 
	C324.103210,250.115829 321.712097,243.551544 320.779816,236.755936 
	C318.822754,222.490326 311.971252,210.746902 302.246033,201.050903 
	C286.254822,185.107697 266.815460,177.304260 243.735794,179.897171 
	C232.628952,181.144974 222.415604,184.509659 213.001450,190.432480 
	C200.825638,198.092712 192.087036,208.389709 186.012695,221.666977 
	C178.869705,237.280136 177.641037,252.743683 181.945343,269.176025 
	C185.980408,284.580475 194.032242,297.146667 206.464844,306.940735 
	C223.342178,320.236237 242.503952,325.474762 263.625641,321.547791 
	C284.458679,317.674530 300.879517,306.620636 311.985809,288.401611 
	C317.671814,279.074127 322.114105,269.163452 322.006622,257.050598 
z"/>
<path fill="#030000" opacity="1.000000" stroke="none" 
	d="
M429.210785,50.744759 
	C445.420135,62.115768 456.505005,76.803474 461.808777,95.596718 
	C469.128479,121.533020 464.589386,145.589828 448.837189,167.172211 
	C435.780731,185.061142 417.571625,195.637085 395.766205,198.704941 
	C377.109070,201.329849 359.254364,198.302979 342.481964,188.457596 
	C323.404694,177.259277 311.283173,160.760803 305.094055,140.347290 
	C300.790955,126.154358 300.908295,111.037415 305.314972,96.481392 
	C314.262878,66.924759 333.728851,47.492882 363.418304,39.528156 
	C386.539948,33.325367 408.663818,37.483868 429.210785,50.744759 
M320.045258,152.346710 
	C336.113403,180.885468 365.835541,194.978546 397.576477,189.108963 
	C432.817902,182.592072 458.558594,149.089005 455.745972,113.397896 
	C452.815857,76.215858 422.845184,47.153450 386.356079,46.110924 
	C330.807465,44.523861 294.509033,102.035126 320.045258,152.346710 
z"/>
<path fill="#47704C" opacity="1.000000" stroke="none" 
	d="
M75.751953,441.264343 
	C60.561607,429.777985 51.161716,415.017303 48.001606,396.599213 
	C43.778999,371.988556 50.239639,350.247040 67.997520,332.745758 
	C83.365852,317.599548 102.573540,309.951874 124.143394,312.248901 
	C151.070984,315.116516 171.263580,328.760956 183.148285,353.853210 
	C191.114899,370.673187 192.462372,387.999573 186.592728,405.333832 
	C179.303009,426.861816 165.261597,442.912811 143.394394,450.692078 
	C119.515602,459.187042 96.886627,456.222565 75.751953,441.264343 
z"/>
<path fill="#47704C" opacity="1.000000" stroke="none" 
	d="
M321.874329,257.432526 
	C322.114105,269.163452 317.671814,279.074127 311.985809,288.401611 
	C300.879517,306.620636 284.458679,317.674530 263.625641,321.547791 
	C242.503952,325.474762 223.342178,320.236237 206.464844,306.940735 
	C194.032242,297.146667 185.980408,284.580475 181.945343,269.176025 
	C177.641037,252.743683 178.869705,237.280136 186.012695,221.666977 
	C192.087036,208.389709 200.825638,198.092712 213.001450,190.432480 
	C222.415604,184.509659 232.628952,181.144974 243.735794,179.897171 
	C266.815460,177.304260 286.254822,185.107697 302.246033,201.050903 
	C311.971252,210.746902 318.822754,222.490326 320.779816,236.755936 
	C321.712097,243.551544 324.103210,250.115829 321.874329,257.432526 
z"/>
<path fill="#EC2024" opacity="1.000000" stroke="none" 
	d="
M319.887756,152.009872 
	C294.509033,102.035126 330.807465,44.523861 386.356079,46.110924 
	C422.845184,47.153450 452.815857,76.215858 455.745972,113.397896 
	C458.558594,149.089005 432.817902,182.592072 397.576477,189.108963 
	C365.835541,194.978546 336.113403,180.885468 319.887756,152.009872 
z"/>
</svg>