<svg version="1.1" id="Layer_1" xmlns="http://www.w3.org/2000/svg" xmlns:xlink="http://www.w3.org/1999/xlink" x="0px" y="0px"
	 width="100%" viewBox="0 0 500 500" enable-background="new 0 0 500 500" xml:space="preserve">
<path fill="#47704C" opacity="1.000000" stroke="none" 
	d="
M267.000000,501.000000 
	C178.000015,501.000000 89.500046,501.000000 1.000047,501.000000 
	C1.000032,334.333405 1.000032,167.666794 1.000016,1.000137 
	C167.666565,1.000091 334.333130,1.000091 500.999756,1.000046 
	C500.999847,167.666519 500.999847,334.333038 500.999939,500.999786 
	C423.166656,501.000000 345.333344,501.000000 267.000000,501.000000 
M381.801849,477.289307 
	C392.098633,467.529541 402.395416,457.769806 413.338257,447.397675 
	C370.718689,404.752960 329.313538,363.323364 287.366302,321.351379 
	C328.876404,279.854309 370.304504,238.439178 411.126617,197.629868 
	C399.057404,185.555115 387.215698,173.707962 374.637329,161.123825 
	C333.634064,202.131516 292.216980,243.553085 250.114731,285.659882 
	C208.686020,244.226700 167.270554,202.806778 126.608864,162.140717 
	C114.680046,174.026459 102.823807,185.839890 90.040062,198.577484 
	C131.036896,239.573486 172.453018,280.988739 214.576050,323.110931 
	C173.282333,364.388885 131.850922,405.804504 90.735039,446.904694 
	C102.482361,458.858154 114.189484,470.770691 126.885567,483.689514 
	C168.500748,442.072998 210.010651,400.561768 252.217728,358.353333 
	C293.458374,399.614655 334.759430,440.936401 376.168579,482.366302 
	C377.871552,480.848083 379.590698,479.315460 381.801849,477.289307 
M275.130005,86.578522 
	C267.001373,93.749893 258.865326,100.912880 250.746353,108.095177 
	C243.790543,114.248474 237.780914,121.070251 233.898117,129.703354 
	C229.537338,139.399231 229.970230,149.585175 229.790649,159.798523 
	C229.698669,165.030807 233.323090,165.201080 236.686447,165.374664 
	C242.599503,165.679825 248.539932,165.647583 254.462769,165.504059 
	C258.535187,165.405350 262.597321,164.879959 267.003235,164.517365 
	C267.003235,162.616180 266.901733,161.124771 267.019745,159.650955 
	C267.765503,150.338013 269.198059,141.259125 276.847107,134.681870 
	C283.526550,128.938324 290.159576,123.131218 297.024872,117.615829 
	C306.500702,110.003227 314.115570,101.185738 318.247101,89.477829 
	C322.008057,78.820076 321.484772,68.387375 317.584625,58.081776 
	C312.292755,44.098785 302.389099,34.249481 288.931519,28.012938 
	C273.667358,20.939194 257.830261,18.018215 240.821594,19.758434 
	C225.806763,21.294653 212.521149,26.341631 201.325775,36.004608 
	C188.808578,46.808483 183.324829,61.439461 181.271271,77.647789 
	C189.879486,79.184662 198.015915,80.674438 206.167511,82.075958 
	C209.881897,82.714592 214.558517,84.777641 217.106186,83.292076 
	C219.896088,81.665260 220.447266,76.512238 222.485153,73.211479 
	C225.785568,67.865791 228.522247,61.496979 233.263016,57.865990 
	C241.385025,51.645267 251.586884,50.695747 261.460480,53.375870 
	C278.017426,57.870136 285.504547,72.413498 275.130005,86.578522 
M228.366699,192.308746 
	C228.191223,193.287872 228.094360,194.288925 227.828186,195.242737 
	C225.038834,205.238266 229.305756,212.922470 236.607651,218.847855 
	C243.037354,224.065445 250.666458,224.573029 258.231323,220.804230 
	C265.450562,217.207626 270.749695,211.492310 271.207153,203.419815 
	C271.703827,194.654999 268.428894,186.697128 260.360138,182.003525 
	C251.828979,177.040955 237.516983,176.284241 228.366699,192.308746 
z"/>
<path fill="#EB2125" opacity="1.000000" stroke="none" 
	d="
M381.555847,477.536072 
	C379.590698,479.315460 377.871552,480.848083 376.168579,482.366302 
	C334.759430,440.936401 293.458374,399.614655 252.217728,358.353333 
	C210.010651,400.561768 168.500748,442.072998 126.885567,483.689514 
	C114.189484,470.770691 102.482361,458.858154 90.735039,446.904694 
	C131.850922,405.804504 173.282333,364.388885 214.576050,323.110931 
	C172.453018,280.988739 131.036896,239.573486 90.040062,198.577484 
	C102.823807,185.839890 114.680046,174.026459 126.608864,162.140717 
	C167.270554,202.806778 208.686020,244.226700 250.114731,285.659882 
	C292.216980,243.553085 333.634064,202.131516 374.637329,161.123825 
	C387.215698,173.707962 399.057404,185.555115 411.126617,197.629868 
	C370.304504,238.439178 328.876404,279.854309 287.366302,321.351379 
	C329.313538,363.323364 370.718689,404.752960 413.338257,447.397675 
	C402.395416,457.769806 392.098633,467.529541 381.555847,477.536072 
z"/>
<path fill="#000000" opacity="1.000000" stroke="none" 
	d="
M275.331604,86.272888 
	C285.504547,72.413498 278.017426,57.870136 261.460480,53.375870 
	C251.586884,50.695747 241.385025,51.645267 233.263016,57.865990 
	C228.522247,61.496979 225.785568,67.865791 222.485153,73.211479 
	C220.447266,76.512238 219.896088,81.665260 217.106186,83.292076 
	C214.558517,84.777641 209.881897,82.714592 206.167511,82.075958 
	C198.015915,80.674438 189.879486,79.184662 181.271271,77.647789 
	C183.324829,61.439461 188.808578,46.808483 201.325775,36.004608 
	C212.521149,26.341631 225.806763,21.294653 240.821594,19.758434 
	C257.830261,18.018215 273.667358,20.939194 288.931519,28.012938 
	C302.389099,34.249481 312.292755,44.098785 317.584625,58.081776 
	C321.484772,68.387375 322.008057,78.820076 318.247101,89.477829 
	C314.115570,101.185738 306.500702,110.003227 297.024872,117.615829 
	C290.159576,123.131218 283.526550,128.938324 276.847107,134.681870 
	C269.198059,141.259125 267.765503,150.338013 267.019745,159.650955 
	C266.901733,161.124771 267.003235,162.616180 267.003235,164.517365 
	C262.597321,164.879959 258.535187,165.405350 254.462769,165.504059 
	C248.539932,165.647583 242.599503,165.679825 236.686447,165.374664 
	C233.323090,165.201080 229.698669,165.030807 229.790649,159.798523 
	C229.970230,149.585175 229.537338,139.399231 233.898117,129.703354 
	C237.780914,121.070251 243.790543,114.248474 250.746353,108.095177 
	C258.865326,100.912880 267.001373,93.749893 275.331604,86.272888 
z"/>
<path fill="#000000" opacity="1.000000" stroke="none" 
	d="
M228.615829,192.003708 
	C237.516983,176.284241 251.828979,177.040955 260.360138,182.003525 
	C268.428894,186.697128 271.703827,194.654999 271.207153,203.419815 
	C270.749695,211.492310 265.450562,217.207626 258.231323,220.804230 
	C250.666458,224.573029 243.037354,224.065445 236.607651,218.847855 
	C229.305756,212.922470 225.038834,205.238266 227.828186,195.242737 
	C228.094360,194.288925 228.191223,193.287872 228.615829,192.003708 
z"/>
</svg>