<svg version="1.1" id="Layer_1" xmlns="http://www.w3.org/2000/svg" xmlns:xlink="http://www.w3.org/1999/xlink" x="0px" y="0px"
	 width="100%" viewBox="0 0 500 500" enable-background="new 0 0 500 500" xml:space="preserve">
<path fill="#47704C" opacity="1.000000" stroke="none" 
	d="
M268.000000,501.000000 
	C178.666687,501.000000 89.833374,501.000000 1.000048,501.000000 
	C1.000032,334.333405 1.000032,167.666794 1.000016,1.000137 
	C167.666565,1.000091 334.333130,1.000091 500.999756,1.000046 
	C500.999847,167.666519 500.999847,334.333038 500.999939,500.999786 
	C423.500000,501.000000 346.000000,501.000000 268.000000,501.000000 
M386.263000,464.654205 
	C385.176147,452.564880 384.132141,440.471466 382.990021,428.387390 
	C381.911804,416.979156 381.367981,405.470398 379.419159,394.208313 
	C377.372192,382.379242 373.969452,370.782318 371.099091,359.098755 
	C366.714813,341.252991 360.087616,324.202637 351.820007,307.855835 
	C346.252228,296.847107 340.744965,285.563965 333.390442,275.770508 
	C325.843231,265.720490 319.311493,254.094574 306.685425,248.789124 
	C305.309509,248.210968 304.339050,246.667877 302.815430,245.227081 
	C308.548767,243.330612 313.646393,241.649094 318.740662,239.957611 
	C321.683350,238.980560 324.559082,237.470871 327.573547,237.111389 
	C333.472290,236.407928 339.447998,236.356888 345.390289,236.009521 
	C358.268768,235.256729 370.490265,231.944244 381.685486,225.587082 
	C400.152649,215.100571 405.126007,200.494186 401.185760,180.814392 
	C399.283203,171.312073 395.291473,162.228027 392.644867,154.169846 
	C395.256256,148.160217 398.096222,142.756653 399.991699,137.039917 
	C404.758667,122.663002 403.338745,107.810219 400.235382,93.605003 
	C397.997406,83.361305 392.967896,73.478477 387.838043,64.176674 
	C380.961273,51.707241 370.056763,43.216537 356.794830,37.870697 
	C341.198029,31.583685 325.209808,31.778078 309.024567,34.859737 
	C306.460327,35.347961 304.533051,35.025536 302.893280,32.247253 
	C301.469910,29.835663 299.000854,27.393543 296.438690,26.407047 
	C279.996490,20.076353 262.762604,17.393648 245.331207,19.269569 
	C225.044724,21.452747 207.588760,30.062498 193.747650,45.634434 
	C182.765289,57.990116 174.926224,71.991302 170.682663,87.836861 
	C168.387161,96.408295 167.376572,105.328697 165.875366,114.106895 
	C163.508087,127.949440 165.922516,140.879639 173.502075,153.216217 
	C171.549225,155.101715 169.181244,157.005859 167.292862,159.304077 
	C164.692719,162.468567 161.499680,165.605484 160.233139,169.323883 
	C155.578033,182.990555 154.721481,196.602432 160.567108,210.559235 
	C165.726410,222.877411 173.153839,233.471237 184.217163,240.153488 
	C196.085678,247.322113 209.653122,249.953339 223.468765,244.708969 
	C228.675308,242.732605 233.635162,238.684036 238.822037,238.479019 
	C243.988693,238.274826 249.299683,241.703812 254.541046,243.557663 
	C254.635696,243.591156 254.651154,243.848495 254.956772,244.740189 
	C248.291016,244.637344 245.184525,249.536041 241.499786,253.910233 
	C234.577728,262.127533 227.300491,270.044525 220.296295,278.194092 
	C214.571609,284.854950 209.029343,291.672546 203.406204,298.420654 
	C202.970718,298.389282 202.535248,298.357910 202.099762,298.326538 
	C202.099762,293.217285 201.873245,288.092651 202.218048,283.006775 
	C202.345108,281.132751 204.501129,279.369659 204.554077,277.522217 
	C204.722519,271.646179 204.441254,265.748871 204.137146,259.869934 
	C203.796371,253.282227 200.764633,249.384003 194.427139,248.123230 
	C190.251480,247.292526 185.882385,246.918976 181.630478,247.092041 
	C172.265640,247.473267 165.804642,252.851471 163.237442,262.005737 
	C162.186310,262.005737 161.013779,261.852661 159.894516,262.032013 
	C154.839737,262.841980 149.231110,263.229034 146.557037,268.283325 
	C144.807068,271.591003 142.721664,272.094849 139.521393,272.054504 
	C132.723618,271.968811 126.802826,273.816498 123.188835,280.314270 
	C122.704979,281.184265 121.183464,281.787994 120.062935,281.944122 
	C110.462250,283.281372 105.947258,287.835510 107.226906,297.674408 
	C108.397957,306.678314 111.407112,315.446503 113.658363,324.305328 
	C115.082939,329.911163 118.254745,335.654877 117.724899,341.050232 
	C116.724663,351.235596 113.650490,361.221252 111.381615,371.277161 
	C107.575043,388.148315 103.877541,405.046234 99.843605,421.863220 
	C96.576500,435.483459 102.932533,445.254517 112.346466,453.555786 
	C120.656631,460.883759 129.107910,459.703552 136.204315,452.260620 
	C146.271301,441.702057 156.459717,431.236115 166.050842,420.254242 
	C174.139175,410.992981 181.517120,401.105072 189.088120,391.399841 
	C197.903473,380.099487 206.589310,368.698090 215.326340,357.336670 
	C220.365173,350.784302 225.394150,344.224365 230.698532,337.314880 
	C228.808853,386.223999 226.946045,434.437653 225.081146,482.705566 
	C259.370575,482.705566 293.960846,482.705566 328.995514,482.705566 
	C325.616394,435.169800 322.260345,387.958130 318.904266,340.746429 
	C323.619843,351.349091 327.680298,362.055023 330.769836,373.034210 
	C333.705963,383.468292 336.210846,394.099487 337.834747,404.806366 
	C339.561096,416.188873 340.159149,427.752594 341.012604,439.254761 
	C341.974854,452.223480 342.547974,465.222076 343.615906,478.180878 
	C343.780853,480.182617 345.639374,483.680328 346.796875,483.714661 
	C360.070343,484.108307 373.359741,483.965332 387.023499,483.965332 
	C387.023499,481.334167 387.069763,479.245483 387.013550,477.159546 
	C386.908051,473.245453 386.743317,469.332947 386.263000,464.654205 
z"/>
<path fill="#010101" opacity="1.000000" stroke="none" 
	d="
M386.433105,465.036987 
	C386.743317,469.332947 386.908051,473.245453 387.013550,477.159546 
	C387.069763,479.245483 387.023499,481.334167 387.023499,483.965332 
	C373.359741,483.965332 360.070343,484.108307 346.796875,483.714661 
	C345.639374,483.680328 343.780853,480.182617 343.615906,478.180878 
	C342.547974,465.222076 341.974854,452.223480 341.012604,439.254761 
	C340.159149,427.752594 339.561096,416.188873 337.834747,404.806366 
	C336.210846,394.099487 333.705963,383.468292 330.769836,373.034210 
	C327.680298,362.055023 323.619843,351.349091 318.904266,340.746429 
	C322.260345,387.958130 325.616394,435.169800 328.995514,482.705566 
	C293.960846,482.705566 259.370575,482.705566 225.081146,482.705566 
	C226.946045,434.437653 228.808853,386.223999 230.698532,337.314880 
	C225.394150,344.224365 220.365173,350.784302 215.326340,357.336670 
	C206.589310,368.698090 197.903473,380.099487 189.088120,391.399841 
	C181.517120,401.105072 174.139175,410.992981 166.050842,420.254242 
	C156.459717,431.236115 146.271301,441.702057 136.204315,452.260620 
	C129.107910,459.703552 120.656631,460.883759 112.346466,453.555786 
	C102.932533,445.254517 96.576500,435.483459 99.843605,421.863220 
	C103.877541,405.046234 107.575043,388.148315 111.381615,371.277161 
	C113.650490,361.221252 116.724663,351.235596 117.724899,341.050232 
	C118.254745,335.654877 115.082939,329.911163 113.658363,324.305328 
	C111.407112,315.446503 108.397957,306.678314 107.226906,297.674408 
	C105.947258,287.835510 110.462250,283.281372 120.062935,281.944122 
	C121.183464,281.787994 122.704979,281.184265 123.188835,280.314270 
	C126.802826,273.816498 132.723618,271.968811 139.521393,272.054504 
	C142.721664,272.094849 144.807068,271.591003 146.557037,268.283325 
	C149.231110,263.229034 154.839737,262.841980 159.894516,262.032013 
	C161.013779,261.852661 162.186310,262.005737 163.237442,262.005737 
	C165.804642,252.851471 172.265640,247.473267 181.630478,247.092041 
	C185.882385,246.918976 190.251480,247.292526 194.427139,248.123230 
	C200.764633,249.384003 203.796371,253.282227 204.137146,259.869934 
	C204.441254,265.748871 204.722519,271.646179 204.554077,277.522217 
	C204.501129,279.369659 202.345108,281.132751 202.218048,283.006775 
	C201.873245,288.092651 202.099762,293.217285 202.099762,298.326538 
	C202.535248,298.357910 202.970718,298.389282 203.406204,298.420654 
	C209.029343,291.672546 214.571609,284.854950 220.296295,278.194092 
	C227.300491,270.044525 234.577728,262.127533 241.499786,253.910233 
	C245.184525,249.536041 248.291016,244.637344 254.956772,244.740189 
	C254.651154,243.848495 254.635696,243.591156 254.541046,243.557663 
	C249.299683,241.703812 243.988693,238.274826 238.822037,238.479019 
	C233.635162,238.684036 228.675308,242.732605 223.468765,244.708969 
	C209.653122,249.953339 196.085678,247.322113 184.217163,240.153488 
	C173.153839,233.471237 165.726410,222.877411 160.567108,210.559235 
	C154.721481,196.602432 155.578033,182.990555 160.233139,169.323883 
	C161.499680,165.605484 164.692719,162.468567 167.292862,159.304077 
	C169.181244,157.005859 171.549225,155.101715 173.502075,153.216217 
	C165.922516,140.879639 163.508087,127.949440 165.875366,114.106895 
	C167.376572,105.328697 168.387161,96.408295 170.682663,87.836861 
	C174.926224,71.991302 182.765289,57.990116 193.747650,45.634434 
	C207.588760,30.062498 225.044724,21.452747 245.331207,19.269569 
	C262.762604,17.393648 279.996490,20.076353 296.438690,26.407047 
	C299.000854,27.393543 301.469910,29.835663 302.893280,32.247253 
	C304.533051,35.025536 306.460327,35.347961 309.024567,34.859737 
	C325.209808,31.778078 341.198029,31.583685 356.794830,37.870697 
	C370.056763,43.216537 380.961273,51.707241 387.838043,64.176674 
	C392.967896,73.478477 397.997406,83.361305 400.235382,93.605003 
	C403.338745,107.810219 404.758667,122.663002 399.991699,137.039917 
	C398.096222,142.756653 395.256256,148.160217 392.644867,154.169846 
	C395.291473,162.228027 399.283203,171.312073 401.185760,180.814392 
	C405.126007,200.494186 400.152649,215.100571 381.685486,225.587082 
	C370.490265,231.944244 358.268768,235.256729 345.390289,236.009521 
	C339.447998,236.356888 333.472290,236.407928 327.573547,237.111389 
	C324.559082,237.470871 321.683350,238.980560 318.740662,239.957611 
	C313.646393,241.649094 308.548767,243.330612 302.815430,245.227081 
	C304.339050,246.667877 305.309509,248.210968 306.685425,248.789124 
	C319.311493,254.094574 325.843231,265.720490 333.390442,275.770508 
	C340.744965,285.563965 346.252228,296.847107 351.820007,307.855835 
	C360.087616,324.202637 366.714813,341.252991 371.099091,359.098755 
	C373.969452,370.782318 377.372192,382.379242 379.419159,394.208313 
	C381.367981,405.470398 381.911804,416.979156 382.990021,428.387390 
	C384.132141,440.471466 385.176147,452.564880 386.433105,465.036987 
M221.282333,202.109741 
	C222.212067,203.063675 223.127762,204.031784 224.073532,204.969528 
	C255.655609,236.283127 308.473755,236.129349 338.498566,204.537918 
	C339.807373,203.160812 340.993896,200.816544 340.847717,199.036957 
	C339.053497,177.191177 341.981384,155.891266 347.804474,134.898361 
	C348.493042,132.415955 347.944763,131.085892 345.542389,129.813705 
	C339.677673,126.708038 333.864563,123.448502 328.311646,119.820824 
	C309.801056,107.727928 292.259369,94.637123 283.537323,72.927353 
	C283.011536,73.503044 282.522430,73.948425 282.139008,74.471275 
	C262.915924,100.684593 240.165024,122.973053 211.315567,138.584473 
	C210.190643,139.193222 209.375320,141.777100 209.599564,143.261871 
	C212.206299,160.522629 214.971878,177.760712 217.897995,194.970352 
	C218.287766,197.262756 219.797958,199.364655 221.282333,202.109741 
M151.269012,298.147034 
	C153.240967,304.598755 154.392929,311.468292 157.409286,317.387817 
	C160.597412,323.644470 166.038818,323.085815 169.495529,316.920868 
	C170.616684,314.921326 171.853668,312.655121 171.940521,310.467346 
	C172.240326,302.916168 172.055939,295.345734 172.055939,287.499298 
	C173.611832,286.944366 175.262039,286.355804 177.556305,285.537506 
	C178.474823,290.394775 179.311981,294.821747 180.196899,299.501343 
	C185.377869,298.334351 190.166763,297.255707 194.957138,296.176697 
	C194.726715,292.292603 194.524429,288.882751 194.320343,285.442383 
	C182.387955,287.291931 172.979614,283.434479 166.912552,273.259094 
	C164.672516,269.502167 162.121536,268.676819 158.426346,269.138000 
	C154.633713,269.611359 151.876877,271.437805 150.851303,275.318237 
	C150.354492,277.198090 149.928406,279.096649 149.471420,280.982117 
	C134.128616,277.331818 131.339142,278.233704 127.301361,288.138916 
	C125.230530,288.332275 123.078583,288.449493 120.952065,288.747864 
	C115.198929,289.555084 113.315720,291.717957 114.108284,297.457916 
	C114.579758,300.872498 115.731880,304.222687 116.841225,307.513062 
	C118.710617,313.057770 123.713905,316.380493 129.504883,316.571045 
	C128.030792,310.432953 126.519730,304.140869 124.918182,297.472015 
	C127.982658,297.472015 129.862778,297.472015 131.699142,297.472015 
	C133.675110,315.389709 139.378555,321.933319 149.594925,319.805450 
	C147.627029,310.384094 145.658813,300.961151 143.590698,291.059998 
	C146.849258,291.059998 148.732025,291.059998 150.807541,291.059998 
	C150.937408,293.309387 151.050903,295.275269 151.269012,298.147034 
M147.000076,346.620483 
	C160.647690,353.143585 177.919220,346.147583 189.080902,336.054230 
	C180.851151,336.467407 173.785751,334.460114 169.581680,327.531677 
	C160.894363,328.796417 152.913513,325.770386 144.592422,326.132385 
	C136.563416,326.481750 128.358063,322.777527 120.230186,320.854065 
	C119.876152,321.179718 119.522125,321.505371 119.168091,321.831024 
	C121.472740,326.066406 122.827835,331.477295 126.292793,334.276306 
	C132.283737,339.115845 139.583832,342.334839 147.000076,346.620483 
M171.416870,268.832031 
	C174.856689,275.094269 180.093216,278.807831 187.206070,279.589752 
	C194.449463,280.386017 197.721573,277.536377 198.091217,270.277466 
	C198.225739,267.635620 198.112854,264.981201 198.112854,263.466949 
	C190.066956,260.150177 182.300552,255.787003 174.267731,263.218231 
	C174.439514,261.017365 174.894745,259.382355 175.968155,258.633636 
	C181.158524,255.013214 186.767960,254.810211 192.518417,257.279633 
	C193.902725,257.874084 195.245926,258.564331 196.608017,259.210541 
	C196.861679,258.782532 197.115341,258.354523 197.368988,257.926514 
	C196.020279,256.935242 194.721436,255.181000 193.313965,255.089035 
	C188.118134,254.749557 182.674911,254.042618 177.719238,255.185089 
	C170.829926,256.773376 169.118774,261.168732 171.416870,268.832031 
M179.435364,328.248260 
	C196.274368,332.630280 202.296844,327.943481 202.826279,314.902252 
	C203.228180,305.002655 197.878494,301.294525 188.756760,304.504761 
	C193.988022,313.317902 191.135895,318.634430 176.844757,326.392426 
	C177.521942,326.950165 178.121094,327.443665 179.435364,328.248260 
M187.078583,313.562469 
	C187.125916,312.110352 187.780914,310.150452 187.085876,309.318756 
	C185.880615,307.876465 183.938751,306.798431 182.102341,306.254272 
	C181.330795,306.025665 179.442368,307.329681 179.089722,308.307617 
	C177.490906,312.741608 176.258972,317.307861 174.799637,322.142365 
	C180.140335,321.528015 184.442703,319.418213 187.078583,313.562469 
z"/>
<path fill="#FDFDFD" opacity="1.000000" stroke="none" 
	d="
M221.035812,201.832245 
	C219.797958,199.364655 218.287766,197.262756 217.897995,194.970352 
	C214.971878,177.760712 212.206299,160.522629 209.599564,143.261871 
	C209.375320,141.777100 210.190643,139.193222 211.315567,138.584473 
	C240.165024,122.973053 262.915924,100.684593 282.139008,74.471275 
	C282.522430,73.948425 283.011536,73.503044 283.537323,72.927353 
	C292.259369,94.637123 309.801056,107.727928 328.311646,119.820824 
	C333.864563,123.448502 339.677673,126.708038 345.542389,129.813705 
	C347.944763,131.085892 348.493042,132.415955 347.804474,134.898361 
	C341.981384,155.891266 339.053497,177.191177 340.847717,199.036957 
	C340.993896,200.816544 339.807373,203.160812 338.498566,204.537918 
	C308.473755,236.129349 255.655609,236.283127 224.073532,204.969528 
	C223.127762,204.031784 222.212067,203.063675 221.035812,201.832245 
M259.416565,187.086029 
	C258.356506,186.032181 257.328339,184.943680 256.229980,183.931396 
	C253.650391,181.554077 250.772919,181.281601 248.177704,183.605957 
	C245.409378,186.085342 245.182846,189.239349 247.712112,192.011551 
	C267.042206,213.198425 294.116669,212.844666 315.003967,191.496033 
	C316.221558,190.251541 315.930969,186.302917 314.902832,184.383957 
	C313.440369,181.654434 310.287170,181.212692 307.517639,183.092758 
	C305.191254,184.672012 303.151459,186.666901 300.874695,188.326843 
	C286.623260,198.717270 273.606598,198.464157 259.416565,187.086029 
M313.213287,151.587112 
	C322.812531,152.522690 329.895203,146.011749 328.543121,137.494781 
	C327.536682,131.155014 322.482971,126.677444 316.219238,126.575851 
	C310.100037,126.476608 305.023010,130.524170 303.662781,136.586258 
	C302.211517,143.054031 305.416260,148.395676 313.213287,151.587112 
M237.668564,130.126617 
	C233.262344,135.690079 232.667938,141.110153 235.914551,146.120361 
	C238.808456,150.586258 244.341797,152.817978 249.348480,151.538589 
	C254.443710,150.236572 258.344818,146.141495 258.973175,141.248322 
	C259.673401,135.795593 257.846802,131.280243 253.092270,128.468048 
	C248.021805,125.469002 242.937515,125.905022 237.668564,130.126617 
z"/>
<path fill="#FAFAFA" opacity="1.000000" stroke="none" 
	d="
M151.216705,297.694092 
	C151.050903,295.275269 150.937408,293.309387 150.807541,291.059998 
	C148.732025,291.059998 146.849258,291.059998 143.590698,291.059998 
	C145.658813,300.961151 147.627029,310.384094 149.594925,319.805450 
	C139.378555,321.933319 133.675110,315.389709 131.699142,297.472015 
	C129.862778,297.472015 127.982658,297.472015 124.918182,297.472015 
	C126.519730,304.140869 128.030792,310.432953 129.504883,316.571045 
	C123.713905,316.380493 118.710617,313.057770 116.841225,307.513062 
	C115.731880,304.222687 114.579758,300.872498 114.108284,297.457916 
	C113.315720,291.717957 115.198929,289.555084 120.952065,288.747864 
	C123.078583,288.449493 125.230530,288.332275 127.301361,288.138916 
	C131.339142,278.233704 134.128616,277.331818 149.471420,280.982117 
	C149.928406,279.096649 150.354492,277.198090 150.851303,275.318237 
	C151.876877,271.437805 154.633713,269.611359 158.426346,269.138000 
	C162.121536,268.676819 164.672516,269.502167 166.912552,273.259094 
	C172.979614,283.434479 182.387955,287.291931 194.320343,285.442383 
	C194.524429,288.882751 194.726715,292.292603 194.957138,296.176697 
	C190.166763,297.255707 185.377869,298.334351 180.196899,299.501343 
	C179.311981,294.821747 178.474823,290.394775 177.556305,285.537506 
	C175.262039,286.355804 173.611832,286.944366 172.055939,287.499298 
	C172.055939,295.345734 172.240326,302.916168 171.940521,310.467346 
	C171.853668,312.655121 170.616684,314.921326 169.495529,316.920868 
	C166.038818,323.085815 160.597412,323.644470 157.409286,317.387817 
	C154.392929,311.468292 153.240967,304.598755 151.216705,297.694092 
z"/>
<path fill="#FAFAFA" opacity="1.000000" stroke="none" 
	d="
M146.667389,346.427063 
	C139.583832,342.334839 132.283737,339.115845 126.292793,334.276306 
	C122.827835,331.477295 121.472740,326.066406 119.168091,321.831024 
	C119.522125,321.505371 119.876152,321.179718 120.230186,320.854065 
	C128.358063,322.777527 136.563416,326.481750 144.592422,326.132385 
	C152.913513,325.770386 160.894363,328.796417 169.581680,327.531677 
	C173.785751,334.460114 180.851151,336.467407 189.080902,336.054230 
	C177.919220,346.147583 160.647690,353.143585 146.667389,346.427063 
z"/>
<path fill="#F6F6F6" opacity="1.000000" stroke="none" 
	d="
M171.256531,268.485626 
	C169.118774,261.168732 170.829926,256.773376 177.719238,255.185089 
	C182.674911,254.042618 188.118134,254.749557 193.313965,255.089035 
	C194.721436,255.181000 196.020279,256.935242 197.368988,257.926514 
	C197.115341,258.354523 196.861679,258.782532 196.608017,259.210541 
	C195.245926,258.564331 193.902725,257.874084 192.518417,257.279633 
	C186.767960,254.810211 181.158524,255.013214 175.968155,258.633636 
	C174.894745,259.382355 174.439514,261.017365 174.267731,263.218231 
	C182.300552,255.787003 190.066956,260.150177 198.112854,263.466949 
	C198.112854,264.981201 198.225739,267.635620 198.091217,270.277466 
	C197.721573,277.536377 194.449463,280.386017 187.206070,279.589752 
	C180.093216,278.807831 174.856689,275.094269 171.256531,268.485626 
z"/>
<path fill="#F8F8F8" opacity="1.000000" stroke="none" 
	d="
M179.077805,328.092712 
	C178.121094,327.443665 177.521942,326.950165 176.844757,326.392426 
	C191.135895,318.634430 193.988022,313.317902 188.756760,304.504761 
	C197.878494,301.294525 203.228180,305.002655 202.826279,314.902252 
	C202.296844,327.943481 196.274368,332.630280 179.077805,328.092712 
z"/>
<path fill="#F2F2F2" opacity="1.000000" stroke="none" 
	d="
M186.981384,313.920532 
	C184.442703,319.418213 180.140335,321.528015 174.799637,322.142365 
	C176.258972,317.307861 177.490906,312.741608 179.089722,308.307617 
	C179.442368,307.329681 181.330795,306.025665 182.102341,306.254272 
	C183.938751,306.798431 185.880615,307.876465 187.085876,309.318756 
	C187.780914,310.150452 187.125916,312.110352 186.981384,313.920532 
z"/>
<path fill="#060606" opacity="1.000000" stroke="none" 
	d="
M259.675110,187.337173 
	C273.606598,198.464157 286.623260,198.717270 300.874695,188.326843 
	C303.151459,186.666901 305.191254,184.672012 307.517639,183.092758 
	C310.287170,181.212692 313.440369,181.654434 314.902832,184.383957 
	C315.930969,186.302917 316.221558,190.251541 315.003967,191.496033 
	C294.116669,212.844666 267.042206,213.198425 247.712112,192.011551 
	C245.182846,189.239349 245.409378,186.085342 248.177704,183.605957 
	C250.772919,181.281601 253.650391,181.554077 256.229980,183.931396 
	C257.328339,184.943680 258.356506,186.032181 259.675110,187.337173 
z"/>
<path fill="#060606" opacity="1.000000" stroke="none" 
	d="
M312.847229,151.435883 
	C305.416260,148.395676 302.211517,143.054031 303.662781,136.586258 
	C305.023010,130.524170 310.100037,126.476608 316.219238,126.575851 
	C322.482971,126.677444 327.536682,131.155014 328.543121,137.494781 
	C329.895203,146.011749 322.812531,152.522690 312.847229,151.435883 
z"/>
<path fill="#050505" opacity="1.000000" stroke="none" 
	d="
M237.957672,129.873108 
	C242.937515,125.905022 248.021805,125.469002 253.092270,128.468048 
	C257.846802,131.280243 259.673401,135.795593 258.973175,141.248322 
	C258.344818,146.141495 254.443710,150.236572 249.348480,151.538589 
	C244.341797,152.817978 238.808456,150.586258 235.914551,146.120361 
	C232.667938,141.110153 233.262344,135.690079 237.957672,129.873108 
z"/>
</svg>